<?xml version="1.0" encoding="utf-8" standalone="yes"?>
<!DOCTYPE svg PUBLIC "-//W3C//DTD SVG 1.1//EN" "http://www.w3.org/Graphics/SVG/1.1/DTD/svg11.dtd">
<svg width="494" height="350" viewBox="0 0 494 350" style="fill:none;stroke:none;fill-rule:evenodd;clip-rule:evenodd;stroke-linecap:round;stroke-linejoin:round;stroke-miterlimit:1.5;" version="1.1" xmlns="http://www.w3.org/2000/svg" xmlns:xlink="http://www.w3.org/1999/xlink"><style id="fontImports">@import url("https://fonts.googleapis.com/css2?family=Roboto:wght@400;700&amp;display=block");</style><g id="items" style="isolation: isolate"><g id="blend" style="mix-blend-mode:normal"><g id="g-root-4.cu_sy_mcchbcd2pxje-fill" data-item-order="999891140" data-item-id="4.cu_sy_mcchbcd2pxje" data-item-class="Part Indexed Fill Stroke" data-item-index="4" data-renderer-id="0" transform="translate(112.10736083984375, 242.27340698242188)"><g id="4.cu_sy_mcchbcd2pxje-fill" stroke="none" fill="#e3cd09"><g><path d="M 20.668594 82.726318C 17.991699 57.615509 14.464699 33.297303 10 10L 10.2621 10.848115C 13.049797 17.539307 32.866699 22.726197 56.898895 22.726197C 80.845703 22.726197 100.607101 17.575988 103.505295 10.919403L 103.765198 10.105804C 99.310104 33.37091 95.789795 57.653504 93.116897 82.726318C 93.116897 89.353699 76.898804 94.726318 56.8927 94.726318C 36.886688 94.726318 20.668594 89.353699 20.668594 82.726318Z"></path></g></g></g><g id="g-root-4.cu_sy_mcchbcd2pxje-fill" data-item-order="999891140" data-item-id="4.cu_sy_mcchbcd2pxje" data-item-class="Part Indexed Fill Stroke" data-item-index="4" data-renderer-id="0" transform="translate(112.10736083984375, 242.27340698242188)"><g id="4.cu_sy_mcchbcd2pxje-fill" stroke="none" fill="#e3cd09"><g><path d="M 20.668594 82.726318C 17.991699 57.615509 14.464699 33.297303 10 10L 10.2621 10.848115C 13.049797 17.539307 32.866699 22.726197 56.898895 22.726197C 80.845703 22.726197 100.607101 17.575988 103.505295 10.919403L 103.765198 10.105804C 99.310104 33.37091 95.789795 57.653504 93.116897 82.726318C 93.116897 89.353699 76.898804 94.726318 56.8927 94.726318C 36.886688 94.726318 20.668594 89.353699 20.668594 82.726318Z"></path></g></g></g><g id="g-root-4.line_sy_91ig14d2pvyj-fill" data-item-order="999891143" data-item-id="4.line_sy_91ig14d2pvyj" data-item-class="Curve Stroke Part LeaderLine Indexed ColorStrokeBlack" data-item-index="4" data-renderer-id="0" transform="translate(199, 284.9999694824219)"></g><g id="g-root-4.line_sy_91ig14d2pvyj-fill" data-item-order="999891143" data-item-id="4.line_sy_91ig14d2pvyj" data-item-class="Curve Stroke Part LeaderLine Indexed ColorStrokeBlack" data-item-index="4" data-renderer-id="0" transform="translate(199, 284.9999694824219)"></g><g id="g-root-3.cu_sy_1lua17sd2pwqo-fill" data-item-order="999891144" data-item-id="3.cu_sy_1lua17sd2pwqo" data-item-class="Part Indexed Fill Stroke" data-item-index="3" data-renderer-id="0" transform="translate(93.7005615234375, 168.92575073242188)"><g id="3.cu_sy_1lua17sd2pwqo-fill" stroke="none" fill="#93c131"><g><path d="M 28.406998 83.347504C 23.46199 57.542389 17.365997 32.989807 10 10L 10.276993 10.859406C 13.931992 18.34729 41.887787 24.073487 75.421997 24.073487C 108.741287 24.073487 136.362793 18.346192 140.297897 10.927704L 140.524994 10.2305C 133.182587 33.185303 127.104492 57.695709 122.172089 83.453308L 121.911987 84.266999C 119.013886 90.923706 99.252396 96.073914 75.305603 96.073914C 51.273392 96.073914 31.456993 90.886902 28.668991 84.195801L 28.406998 83.347504Z"></path></g></g></g><g id="g-root-3.cu_sy_1lua17sd2pwqo-fill" data-item-order="999891144" data-item-id="3.cu_sy_1lua17sd2pwqo" data-item-class="Part Indexed Fill Stroke" data-item-index="3" data-renderer-id="0" transform="translate(93.7005615234375, 168.92575073242188)"><g id="3.cu_sy_1lua17sd2pwqo-fill" stroke="none" fill="#93c131"><g><path d="M 28.406998 83.347504C 23.46199 57.542389 17.365997 32.989807 10 10L 10.276993 10.859406C 13.931992 18.34729 41.887787 24.073487 75.421997 24.073487C 108.741287 24.073487 136.362793 18.346192 140.297897 10.927704L 140.524994 10.2305C 133.182587 33.185303 127.104492 57.695709 122.172089 83.453308L 121.911987 84.266999C 119.013886 90.923706 99.252396 96.073914 75.305603 96.073914C 51.273392 96.073914 31.456993 90.886902 28.668991 84.195801L 28.406998 83.347504Z"></path></g></g></g><g id="g-root-3.line_sy_18jfzxkd2pv5t-fill" data-item-order="999891147" data-item-id="3.line_sy_18jfzxkd2pv5t" data-item-class="Curve Stroke Part LeaderLine Indexed ColorStrokeBlack" data-item-index="3" data-renderer-id="0" transform="translate(214, 206.99996948242188)"></g><g id="g-root-3.line_sy_18jfzxkd2pv5t-fill" data-item-order="999891147" data-item-id="3.line_sy_18jfzxkd2pv5t" data-item-class="Curve Stroke Part LeaderLine Indexed ColorStrokeBlack" data-item-index="3" data-renderer-id="0" transform="translate(214, 206.99996948242188)"></g><g id="g-root-2.cu_sy_18hkko8d2pw5i-fill" data-item-order="999891148" data-item-id="2.cu_sy_18hkko8d2pw5i" data-item-class="Part Indexed Fill Stroke" data-item-index="2" data-renderer-id="0" transform="translate(62.96014404296875, 96.01956176757812)"><g id="2.cu_sy_18hkko8d2pw5i-fill" stroke="none" fill="#3bc482"><g><path d="M 40.741104 82.905884C 32.244095 56.385803 22.058106 31.945297 10.000092 10.060807L 10.317093 10.628495C 16.210098 18.774094 56.941101 24.979706 106.107697 24.979706C 155.154602 24.979706 195.717102 18.729492 201.764313 10.612702L 202.113098 10C 190.005203 31.963394 179.784302 56.502808 171.265198 83.136414L 171.038391 83.833985C 167.103195 91.252503 139.481689 96.979798 106.162399 96.979798C 72.628098 96.979798 44.672104 91.25351 41.018097 83.765595L 40.741104 82.905884Z"></path></g></g></g><g id="g-root-2.cu_sy_18hkko8d2pw5i-fill" data-item-order="999891148" data-item-id="2.cu_sy_18hkko8d2pw5i" data-item-class="Part Indexed Fill Stroke" data-item-index="2" data-renderer-id="0" transform="translate(62.96014404296875, 96.01956176757812)"><g id="2.cu_sy_18hkko8d2pw5i-fill" stroke="none" fill="#3bc482"><g><path d="M 40.741104 82.905884C 32.244095 56.385803 22.058106 31.945297 10.000092 10.060807L 10.317093 10.628495C 16.210098 18.774094 56.941101 24.979706 106.107697 24.979706C 155.154602 24.979706 195.717102 18.729492 201.764313 10.612702L 202.113098 10C 190.005203 31.963394 179.784302 56.502808 171.265198 83.136414L 171.038391 83.833985C 167.103195 91.252503 139.481689 96.979798 106.162399 96.979798C 72.628098 96.979798 44.672104 91.25351 41.018097 83.765595L 40.741104 82.905884Z"></path></g></g></g><g id="g-root-2.line_sy_8zn0rsd2pwy7-fill" data-item-order="999891151" data-item-id="2.line_sy_8zn0rsd2pwy7" data-item-class="Curve Stroke Part LeaderLine Indexed ColorStrokeBlack" data-item-index="2" data-renderer-id="0" transform="translate(237, 134.99996948242188)"></g><g id="g-root-2.line_sy_8zn0rsd2pwy7-fill" data-item-order="999891151" data-item-id="2.line_sy_8zn0rsd2pwy7" data-item-class="Curve Stroke Part LeaderLine Indexed ColorStrokeBlack" data-item-index="2" data-renderer-id="0" transform="translate(237, 134.99996948242188)"></g><g id="g-root-1.cu_sy_ddl3mwd2pxxg-fill" data-item-order="999891152" data-item-id="1.cu_sy_ddl3mwd2pxxg" data-item-class="Part Indexed Indexed_1 Fill Stroke" data-item-index="1" data-renderer-id="0" transform="translate(3, 3)"><g id="1.cu_sy_ddl3mwd2pxxg-fill" stroke="none" fill="#17b0e3"><g><path d="M 319.854095 30.992401C 321.265503 30.019196 322 29.019501 322 28C 322 18.058899 252.156403 10 166 10C 79.843994 10 10 18.058899 10 28C 10 28.861206 10.523987 29.708405 11.537994 30.537308L 12.143005 30.990097L 12.143005 30.990799C 34.942993 49.859894 54.075989 74.252502 69.960007 103.0802L 70.276993 103.64801C 76.169998 111.794006 116.901001 117.998993 166.067993 117.998993C 215.11499 117.998993 255.677002 111.748993 261.724213 103.632202L 262.072998 103.019409C 277.94989 74.218994 297.071198 49.847992 319.854095 30.992401Z"></path></g></g></g><g id="g-root-1.cu_sy_ddl3mwd2pxxg-fill" data-item-order="999891152" data-item-id="1.cu_sy_ddl3mwd2pxxg" data-item-class="Part Indexed Indexed_1 Fill Stroke" data-item-index="1" data-renderer-id="0" transform="translate(3, 3)"><g id="1.cu_sy_ddl3mwd2pxxg-fill" stroke="none" fill="#17b0e3"><g><path d="M 319.854095 30.992401C 321.265503 30.019196 322 29.019501 322 28C 322 18.058899 252.156403 10 166 10C 79.843994 10 10 18.058899 10 28C 10 28.861206 10.523987 29.708405 11.537994 30.537308L 12.143005 30.990097L 12.143005 30.990799C 34.942993 49.859894 54.075989 74.252502 69.960007 103.0802L 70.276993 103.64801C 76.169998 111.794006 116.901001 117.998993 166.067993 117.998993C 215.11499 117.998993 255.677002 111.748993 261.724213 103.632202L 262.072998 103.019409C 277.94989 74.218994 297.071198 49.847992 319.854095 30.992401Z"></path></g></g></g><g id="g-root-1.line_sy_1q8842wd2pwy5-fill" data-item-order="999891155" data-item-id="1.line_sy_1q8842wd2pwy5" data-item-class="Curve Stroke Part LeaderLine Indexed Indexed_1 ColorStrokeBlack" data-item-index="1" data-renderer-id="0" transform="translate(277, 62.999969482421875)"></g><g id="g-root-1.line_sy_1q8842wd2pwy5-fill" data-item-order="999891155" data-item-id="1.line_sy_1q8842wd2pwy5" data-item-class="Curve Stroke Part LeaderLine Indexed Indexed_1 ColorStrokeBlack" data-item-index="1" data-renderer-id="0" transform="translate(277, 62.999969482421875)"></g><g id="g-root-tx_screenin_8winc8d2pwjl-fill" data-item-order="1000000000" data-item-id="tx_screenin_8winc8d2pwjl" data-item-class="Label Stroke Indexed Indexed_1 ColorStrokeBlack" data-item-index="1" data-renderer-id="0" transform="translate(363, 50.999969482421875)"><g id="tx_screenin_8winc8d2pwjl-fill" stroke="none" fill="#484848"><g><text style="font: 20px Roboto, sans-serif; white-space: pre;" font-weight="20px" font-size="Roboto," font-family="sans-serif"><tspan x="12" y="34" dominant-baseline="ideographic">Screening</tspan></text></g></g></g><g id="g-root-tx_coding_qn66qwd2pxc8-fill" data-item-order="1000000000" data-item-id="tx_coding_qn66qwd2pxc8" data-item-class="Label Stroke Indexed ColorStrokeBlack" data-item-index="2" data-renderer-id="0" transform="translate(363.112060546875, 122.99996948242188)"><g id="tx_coding_qn66qwd2pxc8-fill" stroke="none" fill="#484848"><g><text style="font: 20px Roboto, sans-serif; white-space: pre;" font-weight="20px" font-size="Roboto," font-family="sans-serif"><tspan x="12" y="34" dominant-baseline="ideographic">Coding</tspan></text></g></g></g><g id="g-root-tx_intervie_13ymp48d2pvrb-fill" data-item-order="1000000000" data-item-id="tx_intervie_13ymp48d2pvrb" data-item-class="Label Stroke Indexed ColorStrokeBlack" data-item-index="3" data-renderer-id="0" transform="translate(363.112060546875, 194.99996948242188)"><g id="tx_intervie_13ymp48d2pvrb-fill" stroke="none" fill="#484848"><g><text style="font: 20px Roboto, sans-serif; white-space: pre;" font-weight="20px" font-size="Roboto," font-family="sans-serif"><tspan x="12" y="34" dominant-baseline="ideographic">Interview</tspan></text></g></g></g><g id="g-root-tx_offerlet_1lz9qqwd3az2m-fill" data-item-order="1000000000" data-item-id="tx_offerlet_1lz9qqwd3az2m" data-item-class="Label Stroke Indexed ColorStrokeBlack" data-item-index="4" data-renderer-id="0" transform="translate(363.112060546875, 266.9999694824219)"><g id="tx_offerlet_1lz9qqwd3az2m-fill" stroke="none" fill="#484848"><g><text style="font: 20px Roboto, sans-serif; white-space: pre;" font-weight="20px" font-size="Roboto," font-family="sans-serif"><tspan x="12" y="34" dominant-baseline="ideographic">Offer Letter</tspan></text></g></g></g><g id="g-root-4.cu_sy_mcchbcd2pxje-stroke" data-item-order="999891140" data-item-id="4.cu_sy_mcchbcd2pxje" data-item-class="Part Indexed Fill Stroke" data-item-index="4" data-renderer-id="0" transform="translate(112.10736083984375, 242.27340698242188)"><g id="4.cu_sy_mcchbcd2pxje-stroke" fill="none" stroke-linecap="round" stroke-linejoin="round" stroke-miterlimit="4" stroke="#2c2c2c" stroke-width="2"><g><path d="M 10 10C 14.464699 33.297303 17.991699 57.615509 20.668594 82.726318C 20.668594 89.353699 36.886688 94.726318 56.8927 94.726318C 76.898804 94.726318 93.116897 89.353699 93.116897 82.726318C 95.789795 57.653504 99.310104 33.37091 103.765198 10.105804L 103.505295 10.919403C 100.607101 17.575988 80.845703 22.726197 56.898895 22.726197C 32.866699 22.726197 13.049797 17.539307 10.2621 10.848115L 10 10Z"></path></g></g></g><g id="g-root-4.cu_sy_mcchbcd2pxje-stroke" data-item-order="999891140" data-item-id="4.cu_sy_mcchbcd2pxje" data-item-class="Part Indexed Fill Stroke" data-item-index="4" data-renderer-id="0" transform="translate(112.10736083984375, 242.27340698242188)"><g id="4.cu_sy_mcchbcd2pxje-stroke" fill="none" stroke-linecap="round" stroke-linejoin="round" stroke-miterlimit="4" stroke="#2c2c2c" stroke-width="2"><g><path d="M 10 10C 14.464699 33.297303 17.991699 57.615509 20.668594 82.726318C 20.668594 89.353699 36.886688 94.726318 56.8927 94.726318C 76.898804 94.726318 93.116897 89.353699 93.116897 82.726318C 95.789795 57.653504 99.310104 33.37091 103.765198 10.105804L 103.505295 10.919403C 100.607101 17.575988 80.845703 22.726197 56.898895 22.726197C 32.866699 22.726197 13.049797 17.539307 10.2621 10.848115L 10 10Z"></path></g></g></g><g id="g-root-4.line_sy_91ig14d2pvyj-stroke" data-item-order="999891143" data-item-id="4.line_sy_91ig14d2pvyj" data-item-class="Curve Stroke Part LeaderLine Indexed ColorStrokeBlack" data-item-index="4" data-renderer-id="0" transform="translate(199, 284.9999694824219)"><g id="4.line_sy_91ig14d2pvyj-stroke" fill="none" stroke-linecap="round" stroke-linejoin="round" stroke-miterlimit="4" stroke="#484848" stroke-width="2"><g><path d="M 150 10L 12 10"></path><path d="M 18 3.5L 11.5 10L 18 16.5" stroke-dasharray="none"></path></g></g></g><g id="g-root-4.line_sy_91ig14d2pvyj-stroke" data-item-order="999891143" data-item-id="4.line_sy_91ig14d2pvyj" data-item-class="Curve Stroke Part LeaderLine Indexed ColorStrokeBlack" data-item-index="4" data-renderer-id="0" transform="translate(199, 284.9999694824219)"><g id="4.line_sy_91ig14d2pvyj-stroke" fill="none" stroke-linecap="round" stroke-linejoin="round" stroke-miterlimit="4" stroke="#484848" stroke-width="2"><g><path d="M 150 10L 12 10"></path><path d="M 18 3.5L 11.5 10L 18 16.5" stroke-dasharray="none"></path></g></g></g><g id="g-root-3.cu_sy_1lua17sd2pwqo-stroke" data-item-order="999891144" data-item-id="3.cu_sy_1lua17sd2pwqo" data-item-class="Part Indexed Fill Stroke" data-item-index="3" data-renderer-id="0" transform="translate(93.7005615234375, 168.92575073242188)"><g id="3.cu_sy_1lua17sd2pwqo-stroke" fill="none" stroke-linecap="round" stroke-linejoin="round" stroke-miterlimit="4" stroke="#2c2c2c" stroke-width="2"><g><path d="M 10.000488 10C 17.365791 32.989807 23.461594 57.542389 28.406891 83.347504L 28.668892 84.195801C 31.456497 90.886902 51.273392 96.073914 75.305603 96.073914C 99.252396 96.073914 119.013886 90.923706 121.911987 84.266999L 122.172089 83.453308C 127.104492 57.695709 133.182587 33.185303 140.524994 10.2305L 140.297897 10.927704C 136.362793 18.346192 108.741287 24.073487 75.421997 24.073487C 41.887787 24.073487 13.931595 18.34729 10.27739 10.859406L 10.000488 10Z"></path></g></g></g><g id="g-root-3.cu_sy_1lua17sd2pwqo-stroke" data-item-order="999891144" data-item-id="3.cu_sy_1lua17sd2pwqo" data-item-class="Part Indexed Fill Stroke" data-item-index="3" data-renderer-id="0" transform="translate(93.7005615234375, 168.92575073242188)"><g id="3.cu_sy_1lua17sd2pwqo-stroke" fill="none" stroke-linecap="round" stroke-linejoin="round" stroke-miterlimit="4" stroke="#2c2c2c" stroke-width="2"><g><path d="M 10.000488 10C 17.365791 32.989807 23.461594 57.542389 28.406891 83.347504L 28.668892 84.195801C 31.456497 90.886902 51.273392 96.073914 75.305603 96.073914C 99.252396 96.073914 119.013886 90.923706 121.911987 84.266999L 122.172089 83.453308C 127.104492 57.695709 133.182587 33.185303 140.524994 10.2305L 140.297897 10.927704C 136.362793 18.346192 108.741287 24.073487 75.421997 24.073487C 41.887787 24.073487 13.931595 18.34729 10.27739 10.859406L 10.000488 10Z"></path></g></g></g><g id="g-root-3.line_sy_18jfzxkd2pv5t-stroke" data-item-order="999891147" data-item-id="3.line_sy_18jfzxkd2pv5t" data-item-class="Curve Stroke Part LeaderLine Indexed ColorStrokeBlack" data-item-index="3" data-renderer-id="0" transform="translate(214, 206.99996948242188)"><g id="3.line_sy_18jfzxkd2pv5t-stroke" fill="none" stroke-linecap="round" stroke-linejoin="round" stroke-miterlimit="4" stroke="#484848" stroke-width="2"><g><path d="M 135 10L 12 10"></path><path d="M 18 3.5L 11.5 10L 18 16.5" stroke-dasharray="none"></path></g></g></g><g id="g-root-3.line_sy_18jfzxkd2pv5t-stroke" data-item-order="999891147" data-item-id="3.line_sy_18jfzxkd2pv5t" data-item-class="Curve Stroke Part LeaderLine Indexed ColorStrokeBlack" data-item-index="3" data-renderer-id="0" transform="translate(214, 206.99996948242188)"><g id="3.line_sy_18jfzxkd2pv5t-stroke" fill="none" stroke-linecap="round" stroke-linejoin="round" stroke-miterlimit="4" stroke="#484848" stroke-width="2"><g><path d="M 135 10L 12 10"></path><path d="M 18 3.5L 11.5 10L 18 16.5" stroke-dasharray="none"></path></g></g></g><g id="g-root-2.cu_sy_18hkko8d2pw5i-stroke" data-item-order="999891148" data-item-id="2.cu_sy_18hkko8d2pw5i" data-item-class="Part Indexed Fill Stroke" data-item-index="2" data-renderer-id="0" transform="translate(62.96014404296875, 96.01956176757812)"><g id="2.cu_sy_18hkko8d2pw5i-stroke" fill="none" stroke-linecap="round" stroke-linejoin="round" stroke-miterlimit="4" stroke="#2c2c2c" stroke-width="2"><g><path d="M 10 10.060807C 22.058304 31.945297 32.244202 56.385803 40.740692 82.905884L 41.017899 83.765595C 44.672104 91.25351 72.628204 96.979798 106.162399 96.979798C 139.481689 96.979798 167.103195 91.252503 171.038391 83.833985L 171.265198 83.136414C 179.784302 56.502808 190.005203 31.963394 202.113098 10L 201.764313 10.612702C 195.717102 18.729492 155.154602 24.979706 106.107697 24.979706C 56.941193 24.979706 16.210297 18.774094 10.316696 10.628495L 10 10.060807Z"></path></g></g></g><g id="g-root-2.cu_sy_18hkko8d2pw5i-stroke" data-item-order="999891148" data-item-id="2.cu_sy_18hkko8d2pw5i" data-item-class="Part Indexed Fill Stroke" data-item-index="2" data-renderer-id="0" transform="translate(62.96014404296875, 96.01956176757812)"><g id="2.cu_sy_18hkko8d2pw5i-stroke" fill="none" stroke-linecap="round" stroke-linejoin="round" stroke-miterlimit="4" stroke="#2c2c2c" stroke-width="2"><g><path d="M 10 10.060807C 22.058304 31.945297 32.244202 56.385803 40.740692 82.905884L 41.017899 83.765595C 44.672104 91.25351 72.628204 96.979798 106.162399 96.979798C 139.481689 96.979798 167.103195 91.252503 171.038391 83.833985L 171.265198 83.136414C 179.784302 56.502808 190.005203 31.963394 202.113098 10L 201.764313 10.612702C 195.717102 18.729492 155.154602 24.979706 106.107697 24.979706C 56.941193 24.979706 16.210297 18.774094 10.316696 10.628495L 10 10.060807Z"></path></g></g></g><g id="g-root-2.line_sy_8zn0rsd2pwy7-stroke" data-item-order="999891151" data-item-id="2.line_sy_8zn0rsd2pwy7" data-item-class="Curve Stroke Part LeaderLine Indexed ColorStrokeBlack" data-item-index="2" data-renderer-id="0" transform="translate(237, 134.99996948242188)"><g id="2.line_sy_8zn0rsd2pwy7-stroke" fill="none" stroke-linecap="round" stroke-linejoin="round" stroke-miterlimit="4" stroke="#484848" stroke-width="2"><g><path d="M 112 10L 12 10"></path><path d="M 18 3.5L 11.5 10L 18 16.5" stroke-dasharray="none"></path></g></g></g><g id="g-root-2.line_sy_8zn0rsd2pwy7-stroke" data-item-order="999891151" data-item-id="2.line_sy_8zn0rsd2pwy7" data-item-class="Curve Stroke Part LeaderLine Indexed ColorStrokeBlack" data-item-index="2" data-renderer-id="0" transform="translate(237, 134.99996948242188)"><g id="2.line_sy_8zn0rsd2pwy7-stroke" fill="none" stroke-linecap="round" stroke-linejoin="round" stroke-miterlimit="4" stroke="#484848" stroke-width="2"><g><path d="M 112 10L 12 10"></path><path d="M 18 3.5L 11.5 10L 18 16.5" stroke-dasharray="none"></path></g></g></g><g id="g-root-1.cu_sy_ddl3mwd2pxxg-stroke" data-item-order="999891152" data-item-id="1.cu_sy_ddl3mwd2pxxg" data-item-class="Part Indexed Indexed_1 Fill Stroke" data-item-index="1" data-renderer-id="0" transform="translate(3, 3)"><g id="1.cu_sy_ddl3mwd2pxxg-stroke" fill="none" stroke-linecap="round" stroke-linejoin="round" stroke-miterlimit="4" stroke="#2c2c2c" stroke-width="2"><g><path d="M 166 10C 79.843582 10 10 18.058868 10 28C 10 37.941132 79.843582 46 166 46C 252.156418 46 322 37.941132 322 28C 322 18.058868 252.156418 10 166 10M 11.027405 30.074219C 30.834991 46.413513 52.862 71.289215 70.10379 103.506119C 75.617584 110.763321 108.929688 118.000519 165.989792 118.000519C 223.248993 118.000519 258.314087 110.388123 262.259491 102.96933C 280.650879 68.386719 304.786194 43.199326 320.95459 30.09642"></path></g></g></g><g id="g-root-1.cu_sy_ddl3mwd2pxxg-stroke" data-item-order="999891152" data-item-id="1.cu_sy_ddl3mwd2pxxg" data-item-class="Part Indexed Indexed_1 Fill Stroke" data-item-index="1" data-renderer-id="0" transform="translate(3, 3)"><g id="1.cu_sy_ddl3mwd2pxxg-stroke" fill="none" stroke-linecap="round" stroke-linejoin="round" stroke-miterlimit="4" stroke="#2c2c2c" stroke-width="2"><g><path d="M 166 10C 79.843582 10 10 18.058868 10 28C 10 37.941132 79.843582 46 166 46C 252.156418 46 322 37.941132 322 28C 322 18.058868 252.156418 10 166 10M 11.027405 30.074219C 30.834991 46.413513 52.862 71.289215 70.10379 103.506119C 75.617584 110.763321 108.929688 118.000519 165.989792 118.000519C 223.248993 118.000519 258.314087 110.388123 262.259491 102.96933C 280.650879 68.386719 304.786194 43.199326 320.95459 30.09642"></path></g></g></g><g id="g-root-1.line_sy_1q8842wd2pwy5-stroke" data-item-order="999891155" data-item-id="1.line_sy_1q8842wd2pwy5" data-item-class="Curve Stroke Part LeaderLine Indexed Indexed_1 ColorStrokeBlack" data-item-index="1" data-renderer-id="0" transform="translate(277, 62.999969482421875)"><g id="1.line_sy_1q8842wd2pwy5-stroke" fill="none" stroke-linecap="round" stroke-linejoin="round" stroke-miterlimit="4" stroke="#484848" stroke-width="2"><g><path d="M 72 10L 12 10"></path><path d="M 18 3.5L 11.5 10L 18 16.5" stroke-dasharray="none"></path></g></g></g><g id="g-root-1.line_sy_1q8842wd2pwy5-stroke" data-item-order="999891155" data-item-id="1.line_sy_1q8842wd2pwy5" data-item-class="Curve Stroke Part LeaderLine Indexed Indexed_1 ColorStrokeBlack" data-item-index="1" data-renderer-id="0" transform="translate(277, 62.999969482421875)"><g id="1.line_sy_1q8842wd2pwy5-stroke" fill="none" stroke-linecap="round" stroke-linejoin="round" stroke-miterlimit="4" stroke="#484848" stroke-width="2"><g><path d="M 72 10L 12 10"></path><path d="M 18 3.5L 11.5 10L 18 16.5" stroke-dasharray="none"></path></g></g></g><g id="g-root-tx_screenin_8winc8d2pwjl-stroke" data-item-order="1000000000" data-item-id="tx_screenin_8winc8d2pwjl" data-item-class="Label Stroke Indexed Indexed_1 ColorStrokeBlack" data-item-index="1" data-renderer-id="0" transform="translate(363, 50.999969482421875)"></g><g id="g-root-tx_coding_qn66qwd2pxc8-stroke" data-item-order="1000000000" data-item-id="tx_coding_qn66qwd2pxc8" data-item-class="Label Stroke Indexed ColorStrokeBlack" data-item-index="2" data-renderer-id="0" transform="translate(363.112060546875, 122.99996948242188)"></g><g id="g-root-tx_intervie_13ymp48d2pvrb-stroke" data-item-order="1000000000" data-item-id="tx_intervie_13ymp48d2pvrb" data-item-class="Label Stroke Indexed ColorStrokeBlack" data-item-index="3" data-renderer-id="0" transform="translate(363.112060546875, 194.99996948242188)"></g><g id="g-root-tx_offerlet_1lz9qqwd3az2m-stroke" data-item-order="1000000000" data-item-id="tx_offerlet_1lz9qqwd3az2m" data-item-class="Label Stroke Indexed ColorStrokeBlack" data-item-index="4" data-renderer-id="0" transform="translate(363.112060546875, 266.9999694824219)"></g></g></g></svg>