<svg xmlns="http://www.w3.org/2000/svg" width="500" height="500" viewBox="0 0 500 500" version="1.1"><path d="M 62.500 70.403 C 56.658 72.981, 53.610 78.812, 55.130 84.500 C 55.806 87.027, 78.586 126.909, 90.401 146.250 L 93.914 152 251.707 151.985 C 338.493 151.976, 410.040 151.626, 410.700 151.207 C 411.705 150.567, 426.649 125.600, 445.597 92.902 C 452.251 81.418, 451.196 74.069, 442.364 70.379 C 437.551 68.368, 67.058 68.391, 62.500 70.403 M 107.011 174.500 C 107.033 176.640, 139.189 231.539, 140.796 232.180 C 143.115 233.105, 363.222 233.159, 364.578 232.235 C 365.171 231.831, 367.685 227.900, 370.166 223.500 C 372.647 219.100, 379.953 206.341, 386.401 195.146 C 392.849 183.951, 397.861 174.528, 397.538 174.205 C 396.462 173.129, 106.999 173.423, 107.011 174.500 M 157.750 254.805 C 155.137 254.972, 153 255.252, 153 255.427 C 153 255.602, 156.434 261.764, 160.631 269.122 C 164.827 276.480, 172.079 289.250, 176.745 297.500 C 181.412 305.750, 185.740 312.831, 186.365 313.235 C 186.989 313.639, 216.551 313.976, 252.059 313.985 C 302.179 313.997, 316.987 313.720, 318.267 312.750 C 319.175 312.063, 323.236 305.650, 327.293 298.500 C 331.350 291.350, 338.344 279.148, 342.835 271.386 C 347.326 263.623, 351 256.760, 351 256.136 C 351 255.430, 348.823 254.967, 345.250 254.912 C 327.626 254.644, 161.736 254.549, 157.750 254.805 M 194.417 335.917 C 194.188 336.146, 194.002 357.746, 194.004 383.917 C 194.007 429.879, 194.076 431.613, 196.026 434.810 C 199.862 441.103, 199.861 441.103, 253.804 440.786 C 297.255 440.531, 302.752 440.321, 304.842 438.842 C 310.688 434.701, 310.475 436.631, 310.787 385.087 C 310.980 353.306, 310.733 337.333, 310.038 336.638 C 309.042 335.642, 195.401 334.933, 194.417 335.917" stroke="none" fill="#050505" fill-rule="evenodd"/></svg>