<?xml version="1.0" encoding="utf-8"?>
<svg width="500" height="500" viewBox="-5.211 5.212 394.892 367.095" version="1.1" xmlns="http://www.w3.org/2000/svg">
  <defs/>
  <path d="M 2.042 1.605 C -3.8 4.183 -6.848 10.014 -5.328 15.702 C -4.652 18.229 18.128 58.111 29.943 77.452 L 33.456 83.202 L 191.249 83.187 C 278.035 83.178 349.582 82.828 350.242 82.409 C 351.247 81.769 366.191 56.802 385.139 24.104 C 391.793 12.62 390.738 5.271 381.906 1.581 C 377.093 -0.43 6.6 -0.407 2.042 1.605 M 46.553 105.702 C 46.575 107.842 78.731 162.741 80.338 163.382 C 82.657 164.307 302.764 164.361 304.12 163.437 C 304.713 163.033 307.227 159.102 309.708 154.702 C 312.189 150.302 319.495 137.543 325.943 126.348 C 332.391 115.153 337.403 105.73 337.08 105.407 C 336.004 104.331 46.541 104.625 46.553 105.702 M 97.292 186.007 C 94.679 186.174 92.542 186.454 92.542 186.629 C 92.542 186.804 95.976 192.966 100.173 200.324 C 104.369 207.682 111.621 220.452 116.287 228.702 C 120.954 236.952 125.282 244.033 125.907 244.437 C 126.531 244.841 156.093 245.178 191.601 245.187 C 241.721 245.199 256.529 244.922 257.809 243.952 C 258.717 243.265 262.778 236.852 266.835 229.702 C 270.892 222.552 277.886 210.35 282.377 202.588 C 286.868 194.825 290.542 187.962 290.542 187.338 C 290.542 186.632 288.365 186.169 284.792 186.114 C 267.168 185.846 101.278 185.751 97.292 186.007 M 133.959 267.119 C 133.73 267.348 133.544 288.948 133.546 315.119 C 133.549 361.081 133.618 362.815 135.568 366.012 C 139.404 372.305 139.403 372.305 193.346 371.988 C 236.797 371.733 242.294 371.523 244.384 370.044 C 250.23 365.903 250.017 367.833 250.329 316.289 C 250.522 284.508 250.275 268.535 249.58 267.84 C 248.584 266.844 134.943 266.135 133.959 267.119" stroke="none" fill="#050505" fill-rule="evenodd"/>
</svg>