<?xml version="1.0" encoding="UTF-8"?>
<svg version="1.1" xmlns="http://www.w3.org/2000/svg" width="980" height="980">
<path d="M0 0 C323.4 0 646.8 0 980 0 C980 323.4 980 646.8 980 980 C656.6 980 333.2 980 0 980 C0 656.6 0 333.2 0 0 Z " fill="#transparent" transform="translate(0,0)"/>
<path d="M0 0 C9.02936581 6.1744928 14.89639703 12.61401057 17.125 23.453125 C18.07130355 34.03310901 16.25328825 41.98122686 9.5 50.265625 C5.23338253 55.23092437 1.70094673 56.16515163 -4.875 59.453125 C-5.205 110.933125 -5.535 162.413125 -5.875 215.453125 C21.185 215.453125 48.245 215.453125 76.125 215.453125 C76.125 192.353125 76.125 169.253125 76.125 145.453125 C74.475 145.123125 72.825 144.793125 71.125 144.453125 C62.51063901 139.86608016 57.09548334 133.82717048 53.75 124.703125 C51.85038932 114.91131735 52.26767597 105.68913218 57.53125 97.1796875 C62.2685271 90.45364784 68.30796156 86.05880448 76.125 83.453125 C87.6074948 82.6580828 96.9291994 83.19122191 106.375 90.453125 C112.79214137 96.63549291 116.29295933 103.87447897 116.83569336 112.75512695 C117.00552777 122.25214073 114.81994157 130.05777257 108.44921875 137.37890625 C104.57263281 140.97031805 98.58848772 145.453125 93.125 145.453125 C93.125 168.553125 93.125 191.653125 93.125 215.453125 C104.29764223 215.25694591 104.29764223 215.25694591 115.46899414 215.00268555 C132.23862782 214.75070551 146.73556346 219.35021039 159.25 230.953125 C173.03877095 245.39333394 175.60759096 260.91618868 175.3125 280.140625 C175.250625 285.85375 175.18875 291.566875 175.125 297.453125 C198.225 297.453125 221.325 297.453125 245.125 297.453125 C245.455 295.803125 245.785 294.153125 246.125 292.453125 C250.05079067 284.25387217 256.62535265 278.71325405 264.9765625 275.28125 C272.32934076 273.34726862 282.2498038 273.07925944 289.29296875 276.34765625 C298.00202637 281.60280189 304.36912118 287.48863737 307.125 297.453125 C308.16935961 308.27317634 307.27668873 318.42897692 300.5 327.265625 C294.21583771 333.9185009 286.63165899 337.4808116 277.59106445 337.79614258 C268.06431993 337.94185227 261.62168128 336.36328264 254.25 329.953125 C253.54875 329.128125 252.8475 328.303125 252.125 327.453125 C251.42375 326.64875 250.7225 325.844375 250 325.015625 C245.125 318.353125 245.125 318.353125 245.125 314.453125 C222.025 314.453125 198.925 314.453125 175.125 314.453125 C175.125 341.843125 175.125 369.233125 175.125 397.453125 C226.605 397.453125 278.085 397.453125 331.125 397.453125 C331.455 395.803125 331.785 394.153125 332.125 392.453125 C335.75027215 384.51797996 341.98613412 378.62449623 349.875 375.015625 C359.17896129 371.74358968 367.53509281 372.7710211 376.3671875 376.921875 C384.95116425 381.68804906 390.08210714 388.03570476 393.125 397.453125 C394.53769191 407.18983232 393.1979199 416.60508263 387.51171875 424.76953125 C381.38888833 432.14136478 374.01950047 436.71691571 364.41796875 437.7421875 C354.38626485 438.05085531 346.47931951 435.35844395 339.125 428.453125 C335.44758847 424.29463303 333.20437384 420.65155959 331.125 415.453125 C279.645 415.123125 228.165 414.793125 175.125 414.453125 C175.125 441.513125 175.125 468.573125 175.125 496.453125 C198.225 496.453125 221.325 496.453125 245.125 496.453125 C245.455 494.803125 245.785 493.153125 246.125 491.453125 C250.40111317 483.887694 256.32819412 478.20714264 264.125 474.453125 C271.54737309 472.54228639 280.92236644 471.85365527 288.18359375 474.6171875 C290.65578299 476.0846971 292.87638921 477.66543635 295.125 479.453125 C296.1975 480.154375 297.27 480.855625 298.375 481.578125 C304.70323449 488.19400651 307.69867514 495.48934726 307.75 504.578125 C307.52903975 513.59075347 305.16428807 521.18187611 298.96875 527.8515625 C289.88066935 535.74586984 280.85291727 537.46127854 269.1640625 536.70947266 C261.33889942 535.72570575 255.48557437 531.36786731 250.5 525.515625 C247.27229334 521.32777775 246.69756693 518.95710925 245.125 513.453125 C222.025 513.453125 198.925 513.453125 175.125 513.453125 C175.125 524.673125 175.125 535.893125 175.125 547.453125 C170.23606324 564.56440364 164.29715132 578.64865005 148.65234375 588.2109375 C130.02102503 597.36821625 115.53736693 595.453125 93.125 595.453125 C93.125 618.553125 93.125 641.653125 93.125 665.453125 C95.435 666.113125 97.745 666.773125 100.125 667.453125 C108.20761324 672.08193434 113.47067762 678.52211087 116.125 687.453125 C117.45232726 698.27251528 116.30561274 707.33429219 109.9375 716.203125 C106.54284792 720.31546251 102.90562375 723.11905576 98.125 725.453125 C97.38636719 725.81535156 96.64773438 726.17757812 95.88671875 726.55078125 C87.68243077 729.2313902 77.37612801 728.60621724 69.5625 725.078125 C62.28060148 720.83701927 56.07393502 713.94224815 53.5234375 705.77734375 C52.10518643 697.50421251 51.84941596 687.92186675 56.125 680.453125 C60.66584081 674.32483577 65.99430891 668.5183542 73.125 665.453125 C74.115 665.453125 75.105 665.453125 76.125 665.453125 C76.125 642.353125 76.125 619.253125 76.125 595.453125 C49.065 595.453125 22.005 595.453125 -5.875 595.453125 C-5.545 646.933125 -5.215 698.413125 -4.875 751.453125 C-1.575 753.103125 1.725 754.753125 5.125 756.453125 C12.48199808 762.74217175 16.44061704 769.25027484 17.36328125 778.9609375 C17.62979661 788.35911086 15.50886747 795.9812506 9.5 803.328125 C2.64555677 810.49063309 -5.64075257 813.52887932 -15.375 813.890625 C-24.17138221 813.79918652 -30.56409803 811.09972405 -37.2578125 805.4375 C-43.91393929 798.60944373 -46.98567499 790.880422 -47.375 781.390625 C-47.01850079 772.50114458 -43.88048343 765.66150417 -37.80859375 759.2109375 C-33.56174229 755.35016344 -29.44307683 752.84514421 -23.875 751.453125 C-23.875 699.973125 -23.875 648.493125 -23.875 595.453125 C-50.935 595.453125 -77.995 595.453125 -105.875 595.453125 C-105.875 618.553125 -105.875 641.653125 -105.875 665.453125 C-104.555 665.783125 -103.235 666.113125 -101.875 666.453125 C-93.04576868 671.01694238 -86.05992385 677.89835344 -82.875 687.453125 C-82.1581998 699.84549768 -82.87416595 708.55239297 -90.91015625 718.40625 C-93.85329148 721.47225967 -97.06937531 723.59508471 -100.875 725.453125 C-101.61105469 725.81664062 -102.34710938 726.18015625 -103.10546875 726.5546875 C-110.85175246 729.0675863 -121.29047025 728.79848272 -128.625 725.203125 C-134.163641 721.97557161 -138.23054822 718.42029512 -141.625 712.953125 C-142.21796875 712.0146875 -142.8109375 711.07625 -143.421875 710.109375 C-147.25722922 703.09851245 -146.79661772 693.74608546 -145.44921875 686.0078125 C-142.51185571 677.10562022 -136.04646187 670.99702163 -128.109375 666.44921875 C-125.875 665.453125 -125.875 665.453125 -122.875 665.453125 C-122.875 642.353125 -122.875 619.253125 -122.875 595.453125 C-134.13749027 595.61028697 -134.13749027 595.61028697 -145.39916992 595.81347656 C-162.43335036 596.01709818 -175.98120811 591.61612947 -188.51953125 579.8359375 C-207.52516165 560.60967789 -204.875 541.13042114 -204.875 513.453125 C-227.975 513.453125 -251.075 513.453125 -274.875 513.453125 C-275.535 515.763125 -276.195 518.073125 -276.875 520.453125 C-281.78808183 528.87175711 -288.56100139 533.85518873 -297.875 536.453125 C-308.75149741 537.49243475 -317.95257025 536.54891577 -326.6875 529.703125 C-332.75864541 524.03290428 -336.42314267 517.00023665 -337.24609375 508.71875 C-337.50537484 500.15718268 -336.88269317 493.71428009 -331.875 486.453125 C-330.7921875 484.844375 -330.7921875 484.844375 -329.6875 483.203125 C-321.66695616 475.36081547 -314.12701358 473.13640291 -303.203125 473.234375 C-296.0442691 473.70491013 -290.59915906 476.1600057 -284.875 480.453125 C-284.029375 480.989375 -283.18375 481.525625 -282.3125 482.078125 C-278.71714055 485.58129575 -276.76589846 489.83450492 -274.875 494.453125 C-274.875 495.113125 -274.875 495.773125 -274.875 496.453125 C-251.775 496.453125 -228.675 496.453125 -204.875 496.453125 C-204.875 469.393125 -204.875 442.333125 -204.875 414.453125 C-256.355 414.783125 -307.835 415.113125 -360.875 415.453125 C-362.525 418.753125 -364.175 422.053125 -365.875 425.453125 C-371.69511426 432.6013915 -379.12360542 436.68266791 -388.19921875 437.8984375 C-398.11561582 438.40025737 -405.75291647 435.9370473 -413.2578125 429.3671875 C-420.65501264 421.58784417 -423.57342897 414.26802561 -423.48217773 403.54663086 C-423.02188295 394.26782803 -419.13224143 387.19052352 -412.375 380.890625 C-403.89141188 374.02973662 -395.62020014 372.45516112 -384.875 373.453125 C-381.61928356 374.40806918 -378.80774401 375.76138245 -375.875 377.453125 C-374.823125 378.05125 -373.77125 378.649375 -372.6875 379.265625 C-367.77453904 383.08681686 -363.67040305 387.8623189 -360.875 393.453125 C-360.875 394.443125 -360.875 395.433125 -360.875 396.453125 C-309.395 396.453125 -257.915 396.453125 -204.875 396.453125 C-204.875 369.393125 -204.875 342.333125 -204.875 314.453125 C-227.975 314.453125 -251.075 314.453125 -274.875 314.453125 C-275.535 316.763125 -276.195 319.073125 -276.875 321.453125 C-280.94666002 328.73925345 -287.36647231 334.26043438 -295.31640625 336.94140625 C-304.38292835 338.75471067 -313.75675567 338.70964756 -321.83203125 333.8671875 C-322.50621094 333.40054687 -323.18039062 332.93390625 -323.875 332.453125 C-324.45636719 332.06898438 -325.03773438 331.68484375 -325.63671875 331.2890625 C-331.10412724 327.24015042 -334.82839165 320.86462373 -336.875 314.453125 C-337.8507043 303.15310774 -337.20252607 294.75894869 -330.6875 285.265625 C-322.56897564 277.14710064 -314.38211771 274.0188076 -302.99462891 274.01489258 C-296.69767816 274.17892836 -292.08299927 275.86140136 -286.875 279.453125 C-285.8025 280.175 -284.73 280.896875 -283.625 281.640625 C-279.50657736 285.85264815 -274.875 291.35685092 -274.875 297.453125 C-251.775 297.453125 -228.675 297.453125 -204.875 297.453125 C-205.03216197 286.19063473 -205.03216197 286.19063473 -205.23535156 274.92895508 C-205.43888484 257.90216517 -201.0473315 244.32291342 -189.24609375 231.8046875 C-179.32214564 221.96248526 -166.99980745 215.33761432 -152.78967285 215.33996582 C-151.66208557 215.34763977 -151.66208557 215.34763977 -150.51171875 215.35546875 C-149.80905884 215.35647583 -149.10639893 215.35748291 -148.38244629 215.35852051 C-145.77578075 215.36372399 -143.16913861 215.37768513 -140.5625 215.390625 C-134.725625 215.41125 -128.88875 215.431875 -122.875 215.453125 C-122.875 192.353125 -122.875 169.253125 -122.875 145.453125 C-124.525 145.123125 -126.175 144.793125 -127.875 144.453125 C-136.56174997 139.47397093 -141.87711064 134.13441034 -145.109375 124.6171875 C-147.38840938 115.1987291 -146.72758856 105.89966196 -141.875 97.453125 C-137.48893095 90.58618564 -130.55251174 86.01229558 -122.875 83.453125 C-112.83508045 82.70307765 -104.44709389 82.50796311 -95.875 88.453125 C-94.9675 89.030625 -94.06 89.608125 -93.125 90.203125 C-87.05176781 96.27635719 -82.6863595 103.41971344 -82.49511719 112.12548828 C-82.49672852 112.8111084 -82.49833984 113.49672852 -82.5 114.203125 C-82.50161133 114.9132373 -82.50322266 115.62334961 -82.50488281 116.35498047 C-82.64207015 122.24193112 -83.81130312 126.48929556 -86.875 131.453125 C-87.431875 132.505 -87.98875 133.556875 -88.5625 134.640625 C-93.29059932 140.39101607 -98.88669447 143.12368982 -105.875 145.453125 C-105.875 168.553125 -105.875 191.653125 -105.875 215.453125 C-78.815 215.453125 -51.755 215.453125 -23.875 215.453125 C-23.875 163.973125 -23.875 112.493125 -23.875 59.453125 C-25.855 58.793125 -27.835 58.133125 -29.875 57.453125 C-38.14695261 52.87715122 -43.35002006 46.25645688 -46.21875 37.31640625 C-48.23910691 28.50139662 -47.22545429 20.13115346 -42.62109375 12.328125 C-33.30208526 -1.07905888 -15.37301646 -8.26881946 0 0 Z " fill="#transparent" transform="translate(504.875,84.546875)"/>
<path d="M0 0 C9.02936581 6.1744928 14.89639703 12.61401057 17.125 23.453125 C18.07130355 34.03310901 16.25328825 41.98122686 9.5 50.265625 C5.23338253 55.23092437 1.70094673 56.16515163 -4.875 59.453125 C-5.205 110.933125 -5.535 162.413125 -5.875 215.453125 C21.185 215.453125 48.245 215.453125 76.125 215.453125 C76.125 192.353125 76.125 169.253125 76.125 145.453125 C74.475 145.123125 72.825 144.793125 71.125 144.453125 C62.51063901 139.86608016 57.09548334 133.82717048 53.75 124.703125 C51.85038932 114.91131735 52.26767597 105.68913218 57.53125 97.1796875 C62.2685271 90.45364784 68.30796156 86.05880448 76.125 83.453125 C87.6074948 82.6580828 96.9291994 83.19122191 106.375 90.453125 C112.79214137 96.63549291 116.29295933 103.87447897 116.83569336 112.75512695 C117.00552777 122.25214073 114.81994157 130.05777257 108.44921875 137.37890625 C104.57263281 140.97031805 98.58848772 145.453125 93.125 145.453125 C93.125 168.553125 93.125 191.653125 93.125 215.453125 C104.29764223 215.25694591 104.29764223 215.25694591 115.46899414 215.00268555 C132.23862782 214.75070551 146.73556346 219.35021039 159.25 230.953125 C173.03877095 245.39333394 175.60759096 260.91618868 175.3125 280.140625 C175.250625 285.85375 175.18875 291.566875 175.125 297.453125 C198.225 297.453125 221.325 297.453125 245.125 297.453125 C245.455 295.803125 245.785 294.153125 246.125 292.453125 C250.05079067 284.25387217 256.62535265 278.71325405 264.9765625 275.28125 C272.32934076 273.34726862 282.2498038 273.07925944 289.29296875 276.34765625 C298.00202637 281.60280189 304.36912118 287.48863737 307.125 297.453125 C308.16935961 308.27317634 307.27668873 318.42897692 300.5 327.265625 C294.21583771 333.9185009 286.63165899 337.4808116 277.59106445 337.79614258 C268.06431993 337.94185227 261.62168128 336.36328264 254.25 329.953125 C253.54875 329.128125 252.8475 328.303125 252.125 327.453125 C251.42375 326.64875 250.7225 325.844375 250 325.015625 C245.125 318.353125 245.125 318.353125 245.125 314.453125 C222.025 314.453125 198.925 314.453125 175.125 314.453125 C175.125 341.843125 175.125 369.233125 175.125 397.453125 C226.605 397.453125 278.085 397.453125 331.125 397.453125 C331.455 395.803125 331.785 394.153125 332.125 392.453125 C335.75027215 384.51797996 341.98613412 378.62449623 349.875 375.015625 C359.17896129 371.74358968 367.53509281 372.7710211 376.3671875 376.921875 C384.95116425 381.68804906 390.08210714 388.03570476 393.125 397.453125 C394.53769191 407.18983232 393.1979199 416.60508263 387.51171875 424.76953125 C381.38888833 432.14136478 374.01950047 436.71691571 364.41796875 437.7421875 C354.38626485 438.05085531 346.47931951 435.35844395 339.125 428.453125 C335.44758847 424.29463303 333.20437384 420.65155959 331.125 415.453125 C279.645 415.123125 228.165 414.793125 175.125 414.453125 C175.125 441.513125 175.125 468.573125 175.125 496.453125 C198.225 496.453125 221.325 496.453125 245.125 496.453125 C245.455 494.803125 245.785 493.153125 246.125 491.453125 C250.40111317 483.887694 256.32819412 478.20714264 264.125 474.453125 C271.54737309 472.54228639 280.92236644 471.85365527 288.18359375 474.6171875 C290.65578299 476.0846971 292.87638921 477.66543635 295.125 479.453125 C296.1975 480.154375 297.27 480.855625 298.375 481.578125 C304.70323449 488.19400651 307.69867514 495.48934726 307.75 504.578125 C307.52903975 513.59075347 305.16428807 521.18187611 298.96875 527.8515625 C289.88066935 535.74586984 280.85291727 537.46127854 269.1640625 536.70947266 C261.33889942 535.72570575 255.48557437 531.36786731 250.5 525.515625 C247.27229334 521.32777775 246.69756693 518.95710925 245.125 513.453125 C222.025 513.453125 198.925 513.453125 175.125 513.453125 C175.125 524.673125 175.125 535.893125 175.125 547.453125 C170.23606324 564.56440364 164.29715132 578.64865005 148.65234375 588.2109375 C130.02102503 597.36821625 115.53736693 595.453125 93.125 595.453125 C93.125 618.553125 93.125 641.653125 93.125 665.453125 C95.435 666.113125 97.745 666.773125 100.125 667.453125 C108.20761324 672.08193434 113.47067762 678.52211087 116.125 687.453125 C117.45232726 698.27251528 116.30561274 707.33429219 109.9375 716.203125 C106.54284792 720.31546251 102.90562375 723.11905576 98.125 725.453125 C97.38636719 725.81535156 96.64773438 726.17757812 95.88671875 726.55078125 C87.68243077 729.2313902 77.37612801 728.60621724 69.5625 725.078125 C62.28060148 720.83701927 56.07393502 713.94224815 53.5234375 705.77734375 C52.10518643 697.50421251 51.84941596 687.92186675 56.125 680.453125 C60.66584081 674.32483577 65.99430891 668.5183542 73.125 665.453125 C74.115 665.453125 75.105 665.453125 76.125 665.453125 C76.125 642.353125 76.125 619.253125 76.125 595.453125 C49.065 595.453125 22.005 595.453125 -5.875 595.453125 C-5.545 646.933125 -5.215 698.413125 -4.875 751.453125 C-1.575 753.103125 1.725 754.753125 5.125 756.453125 C12.48199808 762.74217175 16.44061704 769.25027484 17.36328125 778.9609375 C17.62979661 788.35911086 15.50886747 795.9812506 9.5 803.328125 C2.64555677 810.49063309 -5.64075257 813.52887932 -15.375 813.890625 C-24.17138221 813.79918652 -30.56409803 811.09972405 -37.2578125 805.4375 C-43.91393929 798.60944373 -46.98567499 790.880422 -47.375 781.390625 C-47.01850079 772.50114458 -43.88048343 765.66150417 -37.80859375 759.2109375 C-33.56174229 755.35016344 -29.44307683 752.84514421 -23.875 751.453125 C-23.875 699.973125 -23.875 648.493125 -23.875 595.453125 C-50.935 595.453125 -77.995 595.453125 -105.875 595.453125 C-105.875 618.553125 -105.875 641.653125 -105.875 665.453125 C-104.555 665.783125 -103.235 666.113125 -101.875 666.453125 C-93.04576868 671.01694238 -86.05992385 677.89835344 -82.875 687.453125 C-82.1581998 699.84549768 -82.87416595 708.55239297 -90.91015625 718.40625 C-93.85329148 721.47225967 -97.06937531 723.59508471 -100.875 725.453125 C-101.61105469 725.81664062 -102.34710938 726.18015625 -103.10546875 726.5546875 C-110.85175246 729.0675863 -121.29047025 728.79848272 -128.625 725.203125 C-134.163641 721.97557161 -138.23054822 718.42029512 -141.625 712.953125 C-142.21796875 712.0146875 -142.8109375 711.07625 -143.421875 710.109375 C-147.25722922 703.09851245 -146.79661772 693.74608546 -145.44921875 686.0078125 C-142.51185571 677.10562022 -136.04646187 670.99702163 -128.109375 666.44921875 C-125.875 665.453125 -125.875 665.453125 -122.875 665.453125 C-122.875 642.353125 -122.875 619.253125 -122.875 595.453125 C-134.13749027 595.61028697 -134.13749027 595.61028697 -145.39916992 595.81347656 C-162.43335036 596.01709818 -175.98120811 591.61612947 -188.51953125 579.8359375 C-207.52516165 560.60967789 -204.875 541.13042114 -204.875 513.453125 C-227.975 513.453125 -251.075 513.453125 -274.875 513.453125 C-275.535 515.763125 -276.195 518.073125 -276.875 520.453125 C-281.78808183 528.87175711 -288.56100139 533.85518873 -297.875 536.453125 C-308.75149741 537.49243475 -317.95257025 536.54891577 -326.6875 529.703125 C-332.75864541 524.03290428 -336.42314267 517.00023665 -337.24609375 508.71875 C-337.50537484 500.15718268 -336.88269317 493.71428009 -331.875 486.453125 C-330.7921875 484.844375 -330.7921875 484.844375 -329.6875 483.203125 C-321.66695616 475.36081547 -314.12701358 473.13640291 -303.203125 473.234375 C-296.0442691 473.70491013 -290.59915906 476.1600057 -284.875 480.453125 C-284.029375 480.989375 -283.18375 481.525625 -282.3125 482.078125 C-278.71714055 485.58129575 -276.76589846 489.83450492 -274.875 494.453125 C-274.875 495.113125 -274.875 495.773125 -274.875 496.453125 C-251.775 496.453125 -228.675 496.453125 -204.875 496.453125 C-204.875 469.393125 -204.875 442.333125 -204.875 414.453125 C-256.355 414.783125 -307.835 415.113125 -360.875 415.453125 C-362.525 418.753125 -364.175 422.053125 -365.875 425.453125 C-371.69511426 432.6013915 -379.12360542 436.68266791 -388.19921875 437.8984375 C-398.11561582 438.40025737 -405.75291647 435.9370473 -413.2578125 429.3671875 C-420.65501264 421.58784417 -423.57342897 414.26802561 -423.48217773 403.54663086 C-423.02188295 394.26782803 -419.13224143 387.19052352 -412.375 380.890625 C-403.89141188 374.02973662 -395.62020014 372.45516112 -384.875 373.453125 C-381.61928356 374.40806918 -378.80774401 375.76138245 -375.875 377.453125 C-374.823125 378.05125 -373.77125 378.649375 -372.6875 379.265625 C-367.77453904 383.08681686 -363.67040305 387.8623189 -360.875 393.453125 C-360.875 394.443125 -360.875 395.433125 -360.875 396.453125 C-309.395 396.453125 -257.915 396.453125 -204.875 396.453125 C-204.875 369.393125 -204.875 342.333125 -204.875 314.453125 C-227.975 314.453125 -251.075 314.453125 -274.875 314.453125 C-275.535 316.763125 -276.195 319.073125 -276.875 321.453125 C-280.94666002 328.73925345 -287.36647231 334.26043438 -295.31640625 336.94140625 C-304.38292835 338.75471067 -313.75675567 338.70964756 -321.83203125 333.8671875 C-322.50621094 333.40054687 -323.18039062 332.93390625 -323.875 332.453125 C-324.45636719 332.06898438 -325.03773438 331.68484375 -325.63671875 331.2890625 C-331.10412724 327.24015042 -334.82839165 320.86462373 -336.875 314.453125 C-337.8507043 303.15310774 -337.20252607 294.75894869 -330.6875 285.265625 C-322.56897564 277.14710064 -314.38211771 274.0188076 -302.99462891 274.01489258 C-296.69767816 274.17892836 -292.08299927 275.86140136 -286.875 279.453125 C-285.8025 280.175 -284.73 280.896875 -283.625 281.640625 C-279.50657736 285.85264815 -274.875 291.35685092 -274.875 297.453125 C-251.775 297.453125 -228.675 297.453125 -204.875 297.453125 C-205.03216197 286.19063473 -205.03216197 286.19063473 -205.23535156 274.92895508 C-205.43888484 257.90216517 -201.0473315 244.32291342 -189.24609375 231.8046875 C-179.32214564 221.96248526 -166.99980745 215.33761432 -152.78967285 215.33996582 C-151.66208557 215.34763977 -151.66208557 215.34763977 -150.51171875 215.35546875 C-149.80905884 215.35647583 -149.10639893 215.35748291 -148.38244629 215.35852051 C-145.77578075 215.36372399 -143.16913861 215.37768513 -140.5625 215.390625 C-134.725625 215.41125 -128.88875 215.431875 -122.875 215.453125 C-122.875 192.353125 -122.875 169.253125 -122.875 145.453125 C-124.525 145.123125 -126.175 144.793125 -127.875 144.453125 C-136.56174997 139.47397093 -141.87711064 134.13441034 -145.109375 124.6171875 C-147.38840938 115.1987291 -146.72758856 105.89966196 -141.875 97.453125 C-137.48893095 90.58618564 -130.55251174 86.01229558 -122.875 83.453125 C-112.83508045 82.70307765 -104.44709389 82.50796311 -95.875 88.453125 C-94.9675 89.030625 -94.06 89.608125 -93.125 90.203125 C-87.05176781 96.27635719 -82.6863595 103.41971344 -82.49511719 112.12548828 C-82.49672852 112.8111084 -82.49833984 113.49672852 -82.5 114.203125 C-82.50161133 114.9132373 -82.50322266 115.62334961 -82.50488281 116.35498047 C-82.64207015 122.24193112 -83.81130312 126.48929556 -86.875 131.453125 C-87.431875 132.505 -87.98875 133.556875 -88.5625 134.640625 C-93.29059932 140.39101607 -98.88669447 143.12368982 -105.875 145.453125 C-105.875 168.553125 -105.875 191.653125 -105.875 215.453125 C-78.815 215.453125 -51.755 215.453125 -23.875 215.453125 C-23.875 163.973125 -23.875 112.493125 -23.875 59.453125 C-25.855 58.793125 -27.835 58.133125 -29.875 57.453125 C-38.14695261 52.87715122 -43.35002006 46.25645688 -46.21875 37.31640625 C-48.23910691 28.50139662 -47.22545429 20.13115346 -42.62109375 12.328125 C-33.30208526 -1.07905888 -15.37301646 -8.26881946 0 0 Z M-181.75 247.765625 C-186.99679326 256.2424335 -188.46545921 264.68497592 -188.3896637 274.50814819 C-188.39660922 275.67218693 -188.40355475 276.83622567 -188.41071075 278.03553832 C-188.42573993 281.23523818 -188.42308433 284.43433237 -188.41255772 287.6340313 C-188.40552381 291.09700824 -188.42159526 294.55989316 -188.43455505 298.02284241 C-188.45613124 304.79493275 -188.45608453 311.56685464 -188.44792951 318.33896802 C-188.44161405 323.84681042 -188.44278068 329.35460392 -188.44920158 334.86244583 C-188.45010324 335.64818 -188.45100489 336.43391416 -188.45193387 337.24345846 C-188.45378519 338.83999209 -188.45564775 340.43652571 -188.45752143 342.03305931 C-188.47407793 356.9846078 -188.46539932 371.93606176 -188.44853585 386.88760455 C-188.43384373 400.54520936 -188.44846419 414.20259406 -188.47730602 427.86017053 C-188.50674898 441.90778967 -188.51765786 455.95530741 -188.50812382 470.00295603 C-188.50710134 471.59402822 -188.50610672 473.18510042 -188.5051403 474.77617264 C-188.50466391 475.55886994 -188.50418752 476.34156725 -188.5036967 477.14798265 C-188.50153887 482.64336585 -188.51130298 488.13865235 -188.52591133 493.63401413 C-188.54348936 500.33965404 -188.54323952 507.0450136 -188.52055968 513.75064276 C-188.50946619 517.1671009 -188.50614204 520.58306615 -188.52486038 523.99950218 C-189.1468549 546.8031417 -189.1468549 546.8031417 -178.3125 566.078125 C-177.56871094 566.85414063 -176.82492187 567.63015625 -176.05859375 568.4296875 C-172.91086752 571.34654293 -169.77063518 573.65017186 -165.9375 575.578125 C-165.28910156 575.91070313 -164.64070313 576.24328125 -163.97265625 576.5859375 C-160.01040796 578.22396193 -156.11591389 578.57852363 -151.86074066 578.59013939 C-150.86951816 578.59521393 -149.87829566 578.60028847 -148.85703611 578.60551679 C-147.77543856 578.60601455 -146.69384101 578.60651231 -145.57946777 578.60702515 C-143.84722481 578.61359853 -143.84722481 578.61359853 -142.07998705 578.6203047 C-138.87833054 578.63134854 -135.67670158 578.63791066 -132.47503042 578.64248586 C-129.02015801 578.64845504 -125.56530345 578.66006161 -122.11044312 578.67077637 C-113.76831341 578.69527086 -105.42617781 578.70992349 -97.08402324 578.72283643 C-94.72629111 578.72655062 -92.36855956 578.73052367 -90.01082802 578.7345891 C-75.35752322 578.75982866 -60.70421743 578.78187335 -46.05089569 578.79431725 C-42.6586049 578.79724675 -39.26631415 578.80020844 -35.87402344 578.80322266 C-35.03092639 578.80396871 -34.18782933 578.80471476 -33.31918389 578.80548342 C-19.67091641 578.81812874 -6.02277944 578.85134249 7.62542707 578.89302449 C21.65023289 578.93550411 35.67497201 578.95901925 49.69984198 578.96423781 C57.56921496 578.96764517 65.438384 578.97932031 73.30769348 579.01234055 C80.01161576 579.04042527 86.71529226 579.05130368 93.41926879 579.04014508 C96.8357101 579.03497973 100.2516374 579.03770474 103.66800308 579.06261063 C127.965634 579.34995231 127.965634 579.34995231 148.03515625 566.77734375 C156.36313387 557.51538733 158.58104503 547.85569491 158.51268005 535.62515259 C158.51806559 534.46141157 158.52345113 533.29767054 158.52899987 532.09866464 C158.54077886 528.8906759 158.53923292 525.68302319 158.53183305 522.47503185 C158.52708543 519.00662043 158.53962529 515.53826366 158.54985046 512.06987 C158.56701294 505.28349413 158.56788376 498.49721095 158.56263756 491.71081902 C158.55858971 486.19243035 158.56004671 480.67406899 158.56538582 475.15568161 C158.56613424 474.36909902 158.56688266 473.58251643 158.56765376 472.772098 C158.5691853 471.17394984 158.57072365 469.57580169 158.57226873 467.97765355 C158.58598465 453.00329921 158.58056257 438.02899717 158.56908352 423.05464403 C158.55915301 409.36972562 158.57209025 395.68494245 158.59601771 382.0000449 C158.62042856 367.93216842 158.63001165 353.86435488 158.62336498 339.79645765 C158.61987705 331.90490052 158.62207656 324.01344735 158.63961601 316.12190628 C158.65436291 309.40375429 158.65494113 302.68577948 158.6375451 295.96763088 C158.62905288 292.54339406 158.62684138 289.11947342 158.64219666 285.69525337 C158.65541381 281.97489388 158.64385086 278.25538787 158.62620544 274.5350647 C158.63581045 273.46432477 158.64541546 272.39358484 158.65531152 271.29039824 C158.54657166 260.10961367 155.33635653 251.70736741 147.55078125 243.6796875 C137.81499853 234.74346182 128.3872247 231.99221311 115.34172058 232.06544495 C114.18276868 232.06005941 113.02381677 232.05467387 111.82974511 232.04912513 C108.63508809 232.03734657 105.44076852 232.03889188 102.24610889 232.04629195 C98.79199331 232.05103978 95.33793259 232.03849946 91.88383484 232.02827454 C85.12519734 232.01111193 78.36665291 232.01024134 71.60799929 232.01548744 C66.111549 232.0195356 60.61512613 232.01807792 55.11867714 232.01273918 C54.33515863 232.01199076 53.55164012 232.01124234 52.74437863 232.01047124 C51.15243321 232.00893969 49.56048779 232.00740134 47.96854237 232.00585627 C33.05186172 231.99214007 18.13523356 231.99756241 3.21855412 232.00904148 C-10.41072348 232.01896994 -24.03986525 232.00603834 -37.6691219 231.98210729 C-51.68163265 231.95768972 -65.69408022 231.94811513 -79.70661181 231.95476002 C-87.56634292 231.95824672 -95.42596963 231.95605666 -103.28568459 231.93850899 C-109.97745779 231.92375359 -116.66905311 231.9231948 -123.36082295 231.9405799 C-126.77100724 231.94906555 -130.18087421 231.95129992 -133.59104156 231.93592834 C-137.2979144 231.92269398 -141.00393299 231.93428932 -144.71076965 231.95191956 C-145.77470579 231.94231455 -146.83864194 231.93270954 -147.93481857 231.92281348 C-161.58785618 232.05579416 -173.17594874 236.92427143 -181.75 247.765625 Z " fill="#262324" transform="translate(504.875,84.546875)"/>
<path d="M0 0 C9.24 0 18.48 0 28 0 C32.47611977 11.19029943 32.47611977 11.19029943 33.87890625 15.5390625 C35.47753106 20.42120204 37.11233763 25.28865714 38.77734375 30.1484375 C39.02756287 30.8794165 39.27778198 31.61039551 39.5355835 32.36352539 C40.06221308 33.90155268 40.58903277 35.43951489 41.11602783 36.97741699 C41.95736399 39.43297586 42.79786632 41.88881885 43.63818359 44.34472656 C46.33256324 52.21808273 49.03007967 60.09034738 51.73457336 67.9602356 C52.91552475 71.39740475 54.09505787 74.8350598 55.27444458 78.27276611 C55.8354748 79.90676085 56.39720663 81.54051488 56.95968628 83.17401123 C61.90294664 97.53036532 61.90294664 97.53036532 63.6171875 103.453125 C64.54388942 106.64248492 65.6400014 109.67951758 66.90625 112.75 C69.97479698 120.21718656 72.23466695 127.9578439 74.64453125 135.65625 C76.56707814 141.73440511 78.60114605 147.68537011 81.03125 153.57861328 C82.78732831 157.96792392 84.26026025 162.45229642 85.75 166.9375 C86.06582031 167.86884766 86.38164063 168.80019531 86.70703125 169.75976562 C87.00480469 170.65244141 87.30257812 171.54511719 87.609375 172.46484375 C87.87717773 173.265271 88.14498047 174.06569824 88.42089844 174.89038086 C89 177 89 177 89 180 C80.75 180 72.5 180 64 180 C62.906875 176.7 61.81375 173.4 60.6875 170 C55.57761707 154.62540265 50.28153583 139.31645391 45 124 C24.21 123.67 3.42 123.34 -18 123 C-18.99 126.3 -19.98 129.6 -21 133 C-21.63453402 134.97372047 -22.27844667 136.94448725 -22.9375 138.91015625 C-23.27523437 139.92013672 -23.61296875 140.93011719 -23.9609375 141.97070312 C-24.30382812 142.99099609 -24.64671875 144.01128906 -25 145.0625 C-25.34289062 146.08666016 -25.68578125 147.11082031 -26.0390625 148.16601562 C-27.30438919 151.94509246 -28.57085672 155.72378145 -29.84106445 159.5012207 C-31.35066096 164.0042378 -32.8007483 168.51969271 -34.1875 173.0625 C-35.0846875 176.0015625 -35.0846875 176.0015625 -36 179 C-43.92 179 -51.84 179 -60 179 C-58.66202121 172.97909545 -57.25092367 167.3246634 -55.28515625 161.52734375 C-55.02874863 160.75999405 -54.772341 159.99264435 -54.50816345 159.20204163 C-53.9698813 157.59386348 -53.42945755 155.98640068 -52.88696289 154.37963867 C-52.06384524 151.94148472 -51.24716993 149.50124827 -50.43164062 147.06054688 C-49.9040192 145.48685394 -49.37603652 143.91328206 -48.84765625 142.33984375 C-48.48656517 141.26294533 -48.48656517 141.26294533 -48.11817932 140.16429138 C-46.73391208 136.0684301 -45.26650861 132.01423048 -43.73554993 127.97108459 C-42.52443476 124.72560749 -41.40483208 121.44980162 -40.28515625 118.171875 C-40.03379913 117.43858475 -39.78244202 116.70529449 -39.52346802 115.94978333 C-38.70169776 113.55034803 -37.88194931 111.15022885 -37.0625 108.75 C-36.63307602 107.4939949 -36.63307602 107.4939949 -36.19497681 106.21261597 C-32.13916626 94.34676702 -28.13799764 82.46378697 -24.1875 70.5625 C-19.31201728 55.87466197 -14.35843874 41.21405328 -9.375 26.5625 C-8.84391129 24.99884201 -8.84391129 24.99884201 -8.30209351 23.40359497 C-7.29403713 20.43652055 -6.28407222 17.4701033 -5.2734375 14.50390625 C-4.97189255 13.61598389 -4.6703476 12.72806152 -4.35966492 11.81323242 C-4.07774796 10.98742676 -3.79583099 10.16162109 -3.50537109 9.31079102 C-3.26176849 8.5955275 -3.01816589 7.88026398 -2.7671814 7.14332581 C-1.90663929 4.73917195 -0.94835527 2.37088818 0 0 Z " fill="#050505" transform="translate(451,400)"/>
<path d="M0 0 C7.59 0 15.18 0 23 0 C23 59.4 23 118.8 23 180 C15.08 180 7.16 180 -1 180 C-1.02311642 156.67857097 -1.0409779 133.35714469 -1.05181217 110.03570652 C-1.05697568 99.2079638 -1.06401942 88.38022831 -1.07543945 77.55249023 C-1.08538462 68.11865593 -1.09185303 58.68482687 -1.09408849 49.25098747 C-1.09539589 44.25258514 -1.09848353 39.25419779 -1.10573006 34.25580025 C-1.11248764 29.5568499 -1.1146175 24.85792081 -1.11310768 20.15896606 C-1.11338413 18.42911094 -1.1153908 16.69925516 -1.11920547 14.96940422 C-1.12413864 12.61817177 -1.1229997 10.26702085 -1.12025452 7.91578674 C-1.12117631 6.59670098 -1.1220981 5.27761522 -1.12304783 3.91855717 C-1 1 -1 1 0 0 Z " fill="#0B0B0B" transform="translate(567,400)"/>
<path d="M0 0 C2.22276764 3.33415147 2.97826958 6.07695095 4.0234375 9.94140625 C4.21088531 10.62371811 4.39833313 11.30602997 4.59146118 12.00901794 C5.39017181 14.9166354 6.1764461 17.8275702 6.96289062 20.73852539 C8.94185329 28.03801852 10.92902317 35.21614406 13.87939453 42.19555664 C16.33875412 48.35038531 18.33847403 54.68276981 20.42871094 60.97045898 C21.25685716 63.45809798 22.09304396 65.94294211 22.9296875 68.42773438 C23.45881884 70.01285885 23.98748198 71.59813971 24.515625 73.18359375 C24.76556213 73.9241954 25.01549927 74.66479706 25.27301025 75.42784119 C26.25646078 78.4051381 27 80.84230844 27 84 C9.51 84 -7.98 84 -26 84 C-24.77647689 78.49414602 -23.7715104 74.05431524 -21.76751709 68.96557617 C-20.47471229 65.65476221 -19.37858318 62.27836982 -18.2578125 58.90625 C-18.00756317 58.15645874 -17.75731384 57.40666748 -17.4994812 56.63415527 C-16.97271279 55.05452615 -16.4466914 53.47464774 -15.92138672 51.89453125 C-15.13601086 49.53310684 -14.34748259 47.17275279 -13.55859375 44.8125 C-7.18866351 25.78775296 -7.18866351 25.78775296 -1.6875 6.5 C-1.36136719 5.2521875 -1.03523438 4.004375 -0.69921875 2.71875 C-0.46847656 1.8215625 -0.23773438 0.924375 0 0 Z " fill="#FAFAFA" transform="translate(464,421)"/>
<path d="M0 0 C1.44172629 0.87672545 2.86346199 1.7883688 4.25 2.75 C5.61125 3.61625 5.61125 3.61625 7 4.5 C13.07323219 10.57323219 17.4386405 17.71658844 17.62988281 26.42236328 C17.62746582 27.45079346 17.62746582 27.45079346 17.625 28.5 C17.62258301 29.56516846 17.62258301 29.56516846 17.62011719 30.65185547 C17.48358574 36.51066077 16.34601509 40.82357059 13.25 45.75 C12.67765625 46.67619141 12.67765625 46.67619141 12.09375 47.62109375 C11.186297 49.024405 10.22462795 50.39248249 9.25 51.75 C7.6 51.42 5.95 51.09 4.25 50.75 C4.25 49.75 4.25 48.75 4.25 47.75 C2.93733482 46.39631404 1.60432675 45.06200404 0.25 43.75 C-0.74 44.41 -1.73 45.07 -2.75 45.75 C-2.87375 45.110625 -2.9975 44.47125 -3.125 43.8125 C-3.33125 43.131875 -3.5375 42.45125 -3.75 41.75 C-4.74 41.255 -4.74 41.255 -5.75 40.75 C-5.110625 39.986875 -4.47125 39.22375 -3.8125 38.4375 C-0.56533448 34.20634493 -0.47975811 30.97467664 -0.75 25.75 C-1.89998375 21.25460898 -3.99164741 19.38084682 -7.75 16.75 C-11.50710172 14.87144914 -15.66978738 15.08620422 -19.75 15.75 C-23.18403788 17.75011167 -25.96175747 20.17351494 -27.75 23.75 C-28.51968122 30.65189551 -27.71039495 35.05693227 -23.75 40.75 C-24.36875 41.4925 -24.9875 42.235 -25.625 43 C-28.80146582 47.11072047 -30.04134715 49.50575131 -29.75 54.75 C-31.235 55.245 -31.235 55.245 -32.75 55.75 C-37.51823806 52.50354004 -40.27874231 48.97808293 -42.75 43.75 C-43.3275 42.574375 -43.905 41.39875 -44.5 40.1875 C-47.4681621 31.74217689 -46.78795559 21.96203425 -43 13.92578125 C-34.64580513 -0.61573919 -15.49404517 -7.64154119 0 0 Z " fill="#242122" transform="translate(404.75,170.25)"/>
<path d="M0 0 C4.07592745 2.23022446 6.24910972 4.68571945 8.3125 8.8125 C9.12230094 15.33073377 8.23536213 19.54760608 4.3125 24.8125 C0.39410042 28.2856269 -2.61923938 29.42566378 -7.734375 29.1328125 C-12.20183894 28.40014841 -14.96745748 26.59092435 -18 23.3125 C-21.11012982 18.70490027 -21.34388658 14.21151074 -20.6875 8.8125 C-16.25539822 -0.22216901 -9.44652646 -3.04210174 0 0 Z " fill="#F6F6F6" transform="translate(119.6875,476.1875)"/>
<path d="M0 0 C4.75772372 2.56573636 7.27679998 5.1780562 8.96484375 10.2421875 C9.54030591 15.99680914 9.14142481 19.23878665 5.44140625 23.765625 C1.89546527 27.31156598 -1.64672608 28.41722145 -6.53515625 28.6796875 C-11.01213566 28.52141045 -13.59674439 27.18939767 -17.03515625 24.2421875 C-20.32312483 20.61408424 -20.83277272 17.74560797 -21.47265625 12.9921875 C-20.88161316 7.92610384 -18.61214984 4.81097697 -15.03515625 1.2421875 C-10.44653511 -1.62222449 -5.05983617 -1.88408487 0 0 Z " fill="#F6F6F6" transform="translate(496.03515625,99.7578125)"/>
<path d="M0 0 C4.06001298 2.34545539 7.23769062 4.51204765 8.88671875 9.046875 C9.62110097 14.70161811 9.2256994 19.26100274 5.88671875 24.046875 C1.58435079 27.74891254 -2.48724003 29.31892728 -8.11328125 29.046875 C-13.3230187 27.48395376 -16.14747553 25.60965303 -19.11328125 21.046875 C-20.89766701 15.69371773 -20.97185816 10.86705805 -18.55078125 5.734375 C-13.55985222 0.23155582 -7.45602223 -3.36279006 0 0 Z " fill="#F7F7F7" transform="translate(872.11328125,475.953125)"/>
<path d="M0 0 C4.34919475 2.23539257 6.87334152 4.96224169 9.00390625 9.30859375 C9.69460752 14.73553229 8.61696325 18.53300682 6.00390625 23.30859375 C1.37255506 27.70837738 -2.50419707 28.67667747 -8.71484375 28.5859375 C-13.61383539 27.99034091 -16.27262592 25.14629334 -19.37109375 21.55859375 C-21.32511694 17.65054737 -21.9148149 14.54579906 -20.99609375 10.30859375 C-19.24250167 6.29114305 -17.01774661 3.21672962 -13.74609375 0.30859375 C-9.14869092 -1.3631891 -4.66721372 -1.61662784 0 0 Z " fill="#F7F7F7" transform="translate(495.99609375,852.69140625)"/>
<path d="M0 0 C4.30419687 1.72167875 7.93182415 4.79583925 10 9 C10.92182493 14.34022716 10.67225643 18.60569036 8.3125 23.5 C4.29713233 27.84093802 1.52462771 29.19932182 -4.375 29.5625 C-9.45116177 29.42549159 -12.16692023 28.25796345 -15.6953125 24.63671875 C-18.83961156 20.69222383 -19.45894815 17.03426435 -19.31640625 11.98828125 C-18.61711608 7.59397633 -15.735741 4.82229877 -12.875 1.625 C-8.62016971 -0.77990408 -4.77788651 -0.63968398 0 0 Z " fill="#F8F8F8" transform="translate(785,376)"/>
<path d="M0 0 C3.33008315 2.22005543 6.03815861 4.25836371 7.8125 7.875 C8.74465124 12.85998272 8.38828468 16.67913952 6.1875 21.25 C2.94476355 24.83407713 0.34774104 27.47035241 -4.5859375 28.2578125 C-8.86381663 28.45050976 -11.69146893 28.10046867 -15.625 26.3125 C-19.83056349 22.31208595 -21.31314905 18.07347789 -21.75 12.375 C-21.60349161 7.86408376 -19.91363265 5.51427805 -16.890625 2.28515625 C-11.72583891 -1.99119186 -6.1552616 -2.17244527 0 0 Z " fill="#F9F9F9" transform="translate(787.1875,576.125)"/>
<path d="M0 0 C3.4375 1.8125 3.4375 1.8125 6 4 C6.8971875 4.7425 6.8971875 4.7425 7.8125 5.5 C10.67514821 9.11597669 10.30482891 13.57998074 10 18 C8.01155883 23.33739473 5.09332352 26.45333824 0 29 C-4.21019538 29.43011819 -7.88692855 29.4699635 -11.8125 27.8125 C-15.34881246 24.88241254 -18.58254279 21.55218158 -19.34375 16.8984375 C-19.67617422 11.5297864 -19.22536679 8.56821128 -15.625 4.4375 C-10.82554786 -0.47058171 -6.72247939 -0.7641528 0 0 Z " fill="#FAFAFA" transform="translate(395,185)"/>
<path d="M0 0 C4.71878688 1.69164058 7.20582817 3.86048618 10 8 C11.24350856 11.73052567 11.52198871 15.12552043 11 19 C8.6006196 23.79876079 5.83831756 26.6704397 1 29 C-3.60503257 29.96582059 -7.3272342 30.05403409 -11.38671875 27.49609375 C-17.79339549 21.98658179 -17.79339549 21.98658179 -18.203125 18.046875 C-18.34295183 11.19536029 -17.09970885 7.29968112 -12.375 2.125 C-8.03305086 -0.60881983 -4.99575629 -0.8161828 0 0 Z " fill="#FAFAFA" transform="translate(203,575)"/>
<path d="M0 0 C3.90098666 1.30032889 5.6227828 2.58307572 8.375 5.625 C10.45946833 9.95428038 10.69486489 13.28000314 10 18 C8.07936852 23.35755096 5.08325568 26.45837216 0 29 C-5.60727817 29.37381854 -9.16772538 29.18490827 -14 26 C-18.26596997 21.38814057 -19.46206512 17.51460438 -19.421875 11.35546875 C-18.68408378 7.23613444 -16.06558431 4.69264218 -13 2 C-8.72747682 -0.84834879 -5.01180499 -0.4925799 0 0 Z " fill="#FAFAFA" transform="translate(594,185)"/>
<path d="M0 0 C3.24794695 2.8243017 4.67508096 4.3802908 5.51953125 8.58984375 C5.81602547 13.61645499 5.50737122 17.10060829 2.25 21.0625 C-1.30550792 24.73472914 -4.69862638 26.30671974 -9.8125 26.5 C-14.71034657 26.40594977 -17.24372596 25.08530368 -20.66015625 21.63671875 C-23.86357441 17.72350532 -24.44797945 14.03781587 -24.32421875 8.9921875 C-23.61311116 4.62273125 -20.42222459 0.70926113 -17 -2 C-11.08529326 -4.32363479 -5.21142426 -3.39875495 0 0 Z " fill="#FAF9F9" transform="translate(599,769)"/>
<path d="M0 0 C5.35755096 1.92063148 8.45837216 4.91674432 11 10 C11.37381854 15.60727817 11.18490827 19.16772538 8 24 C3.39200702 28.26239351 -0.48637139 29.47433813 -6.64453125 29.4140625 C-10.83124387 28.6780898 -13.32899913 26.17181353 -16 23 C-18.58219712 18.84603071 -19.06264028 13.74645994 -18 9 C-13.11841794 1.41634118 -8.82996959 -0.81896851 0 0 Z " fill="#F9F9F9" transform="translate(203,376)"/>
<path d="M0 0 C3.62011046 2.33296007 5.89022378 4.96794755 7.8125 8.8125 C8.38675085 13.51947417 8.26804552 16.93394792 6.0625 21.1875 C2.72437196 25.08198271 -0.02235978 27.32791458 -5.203125 28.12109375 C-9.79547393 28.38603696 -12.52200637 28.06121797 -16.125 25.0625 C-19.90900814 21.5200243 -21.49137099 18.18924665 -21.6875 13 C-21.59346034 8.10270368 -20.2717738 5.57185482 -16.828125 2.15234375 C-11.74345335 -2.0001381 -6.06918874 -2.26107031 0 0 Z " fill="#FAFAFA" transform="translate(397.1875,767.1875)"/>
<path d="M0 0 C0.99 0.66 1.98 1.32 3 2 C2.67 4.97 2.34 7.94 2 11 C0.68 11.33 -0.64 11.66 -2 12 C-2 11.34 -2 10.68 -2 10 C-2.99 10.33 -3.98 10.66 -5 11 C-7.1875 10.0625 -7.1875 10.0625 -9 9 C-8.071875 8.443125 -7.14375 7.88625 -6.1875 7.3125 C-3.0580593 5.04212145 -1.70245949 3.40491897 0 0 Z M-5 12 C-2 13 -2 13 -2 13 Z " fill="#2B292A" transform="translate(213,594)"/>
<path d="M0 0 C4.76993569 2.83924743 9.11080329 6.15469346 12 11 C11.67 11.99 11.34 12.98 11 14 C10.34 14 9.68 14 9 14 C8.773125 13.21625 8.54625 12.4325 8.3125 11.625 C7.23553696 8.79728463 7.23553696 8.79728463 4.5 7.8125 C3.2625 7.4103125 3.2625 7.4103125 2 7 C1.34 6.34 0.68 5.68 0 5 C0.66 5 1.32 5 2 5 C2 4.34 2 3.68 2 3 C1.01 2.67 0.02 2.34 -1 2 C-0.67 1.34 -0.34 0.68 0 0 Z " fill="#2B2829" transform="translate(506,839)"/>
<path d="M0 0 C1.32 0.66 2.64 1.32 4 2 C4 4.31 4 6.62 4 9 C5.32 9.66 6.64 10.32 8 11 C7.34 11 6.68 11 6 11 C6.33 12.32 6.66 13.64 7 15 C3.19374018 13.50468364 1.22059499 11.41019944 -1 8 C-1.37955141 4.81176817 -1.02200151 3.06600453 0 0 Z " fill="#2D292A" transform="translate(755,600)"/>
<path d="M0 0 C0.33 0 0.66 0 1 0 C1.33 1.98 1.66 3.96 2 6 C2.66 6 3.32 6 4 6 C3.67 7.32 3.34 8.64 3 10 C2.34 10 1.68 10 1 10 C0.67 10.99 0.34 11.98 0 13 C-1.6875 15.1875 -1.6875 15.1875 -4 17 C-7.25 17.25 -7.25 17.25 -10 17 C-9.2575 16.46375 -8.515 15.9275 -7.75 15.375 C-2.52955464 10.86643355 -0.5490879 6.86359876 0 0 Z " fill="#363334" transform="translate(795,587)"/>
<path d="M0 0 C1.32 0 2.64 0 4 0 C3.95875 0.7425 3.9175 1.485 3.875 2.25 C4.00398134 5.08758952 4.57051222 6.58773938 6 9 C4.02 9.99 4.02 9.99 2 11 C-0.26881841 7.91440696 -1.05451946 6.57790624 -0.6875 2.6875 C-0.460625 1.800625 -0.23375 0.91375 0 0 Z " fill="#2B2728" transform="translate(361,786)"/>
<path d="M0 0 C2.89492486 0.64259543 5.44888438 1.53549426 8.125 2.8125 C8.80820312 3.12832031 9.49140625 3.44414063 10.1953125 3.76953125 C12.35665331 5.24317271 13.02646343 6.60630441 14 9 C13.01 9.495 13.01 9.495 12 10 C10.55680308 9.09232898 9.12065894 8.17343894 7.6875 7.25 C6.88699219 6.73953125 6.08648438 6.2290625 5.26171875 5.703125 C2.99631139 3.99722239 1.57315833 2.34191855 0 0 Z " fill="#2F2C2C" transform="translate(842,510)"/>
<path d="M0 0 C4.83256305 0.41421969 6.82679218 2.46413986 10 6 C5.94568308 7.15837626 3.78187881 6.83691257 0 5 C0 3.33333333 0 1.66666667 0 0 Z " fill="#F3F3F3" transform="translate(392,185)"/>
<path d="M0 0 C0.58394531 0.21914063 1.16789063 0.43828125 1.76953125 0.6640625 C0.77953125 0.6640625 -0.21046875 0.6640625 -1.23046875 0.6640625 C-1.35421875 1.2621875 -1.47796875 1.8603125 -1.60546875 2.4765625 C-2.23046875 4.6640625 -2.23046875 4.6640625 -4.23046875 7.6640625 C-6.19799703 8.72652777 -8.19634454 9.73544058 -10.23046875 10.6640625 C-10.14710897 7.8298301 -9.6165562 6.10704705 -7.74609375 3.9609375 C-2.93209205 -0.44161106 -2.93209205 -0.44161106 0 0 Z " fill="#EAEAEA" transform="translate(196.23046875,575.3359375)"/>
<path d="M0 0 C1.90608098 3.21182149 2.22266247 5.53882603 2.125 9.25 C2.10695313 10.14203125 2.08890625 11.0340625 2.0703125 11.953125 C2.03550781 12.96632813 2.03550781 12.96632813 2 14 C-0.66666667 14 -3.33333333 14 -6 14 C-5.38125 13.360625 -4.7625 12.72125 -4.125 12.0625 C-1.43405212 8.18436924 -0.76093455 4.59564421 0 0 Z " fill="#302D2E" transform="translate(405,778)"/>
<path d="M0 0 C0.33 0 0.66 0 1 0 C1.08636719 0.65226562 1.17273438 1.30453125 1.26171875 1.9765625 C2.25358851 8.14617438 3.57066275 11.57066275 8 16 C6.35 16 4.7 16 3 16 C3 15.34 3 14.68 3 14 C2.34 14 1.68 14 1 14 C0.67 13.34 0.34 12.68 0 12 C-0.99 12.495 -0.99 12.495 -2 13 C-1.34 8.71 -0.68 4.42 0 0 Z " fill="#333132" transform="translate(851,487)"/>
<path d="M0 0 C2.3125 -0.25 2.3125 -0.25 5 0 C6.8125 2 6.8125 2 8 4 C8.66 3.67 9.32 3.34 10 3 C10.33 4.32 10.66 5.64 11 7 C10.01 7.66 9.02 8.32 8 9 C7.443125 8.21625 6.88625 7.4325 6.3125 6.625 C3.92331435 3.91295142 2.39926587 3.03866457 -1 2 C-0.67 1.34 -0.34 0.68 0 0 Z " fill="#353233" transform="translate(594,765)"/>
<path d="M0 0 C0.66 0.33 1.32 0.66 2 1 C-1.32307692 6.78461538 -1.32307692 6.78461538 -4.75 7.875 C-5.4925 7.91625 -6.235 7.9575 -7 8 C-7 6.68 -7 5.36 -7 4 C-1.7265625 0.77734375 -1.7265625 0.77734375 0 0 Z " fill="#2F2E2E" transform="translate(769,559)"/>
<path d="M0 0 C0.99 0.33 1.98 0.66 3 1 C3 3.55261502 2.90102041 6.02118848 2.6875 8.5625 C2.62949219 9.34753906 2.57148437 10.13257813 2.51171875 10.94140625 C2 13 2 13 -1 15 C-1.125 10.25 -1.125 10.25 0 8 C-0.165 7.01 -0.33 6.02 -0.5 5 C-1 2 -1 2 0 0 Z " fill="#1E1A1B" transform="translate(763,379)"/>
<path d="M0 0 C0.66 0 1.32 0 2 0 C3.97387813 4.76052962 4.0070238 7.96488101 3 13 C2.01 12.67 1.02 12.34 0 12 C0 8.04 0 4.08 0 0 Z " fill="#353535" transform="translate(458,860)"/>
<path d="M0 0 C0.99 0 1.98 0 3 0 C3.66 1.65 4.32 3.3 5 5 C2.03 7.475 2.03 7.475 -1 10 C-2.23076923 4.58461538 -2.23076923 4.58461538 -1.0625 1.625 C-0.5365625 0.820625 -0.5365625 0.820625 0 0 Z " fill="#2D2B2C" transform="translate(362,765)"/>
<path d="M0 0 C0.66 0 1.32 0 2 0 C2 0.66 2 1.32 2 2 C2.33 2.33 2.66 2.66 3 3 C2.58259433 5.03448779 2.09104822 7.05401678 1.5625 9.0625 C1.27503906 10.16722656 0.98757813 11.27195312 0.69140625 12.41015625 C0.46324219 13.26480469 0.23507812 14.11945312 0 15 C-0.33 15 -0.66 15 -1 15 C-1.22211116 13.06403108 -1.42722992 11.12610672 -1.625 9.1875 C-1.74101563 8.10855469 -1.85703125 7.02960937 -1.9765625 5.91796875 C-2 3 -2 3 0 0 Z " fill="#1E1A1B" transform="translate(765,577)"/>
<path d="M0 0 C0.33 0 0.66 0 1 0 C1.33 2.64 1.66 5.28 2 8 C1.67 8 1.34 8 1 8 C0.731875 8.928125 0.46375 9.85625 0.1875 10.8125 C-0.91148371 13.76240366 -1.62418561 15.05615186 -4 17 C-4 16.34 -4 15.68 -4 15 C-4.66 14.67 -5.32 14.34 -6 14 C-5.38125 13.360625 -4.7625 12.72125 -4.125 12.0625 C-1.43405212 8.18436924 -0.76093455 4.59564421 0 0 Z " fill="#363536" transform="translate(405,197)"/>
<path d="M0 0 C0.33 0.66 0.66 1.32 1 2 C1.66 2 2.32 2 3 2 C4.625 3.375 4.625 3.375 6 5 C6 5.66 6 6.32 6 7 C7.65 7.33 9.3 7.66 11 8 C10.01 8.99 9.02 9.98 8 11 C6.65499045 9.93119777 5.32428562 8.84437492 4 7.75 C3.2575 7.14671875 2.515 6.5434375 1.75 5.921875 C0 4 0 4 0 0 Z " fill="#2E2C2D" transform="translate(465,130)"/>
<path d="M0 0 C1.875 0.1875 1.875 0.1875 4 1 C5.5225431 3.68257593 6.12235992 5.24544717 5.625 8.3125 C5.41875 8.869375 5.2125 9.42625 5 10 C0.07692308 5.69230769 0.07692308 5.69230769 -0.3125 2.1875 C-0.209375 1.465625 -0.10625 0.74375 0 0 Z " fill="#2A2728" transform="translate(89,505)"/>
<path d="M0 0 C2.29633824 3.44450737 2.54016485 5.93812283 3 10 C1.68 10.33 0.36 10.66 -1 11 C-2.41687119 6.74938644 -1.19320039 4.28148375 0 0 Z " fill="#E3E3E3" transform="translate(464,421)"/>
<path d="M0 0 C0.33 0.66 0.66 1.32 1 2 C-0.1875 5.0625 -0.1875 5.0625 -2 8 C-4.0625 8.8125 -4.0625 8.8125 -6 9 C-6.99 9.495 -6.99 9.495 -8 10 C-8 10.99 -8 11.98 -8 13 C-8.66 13 -9.32 13 -10 13 C-10 12.34 -10 11.68 -10 11 C-10.66 10.67 -11.32 10.34 -12 10 C-11.30132813 9.52949219 -10.60265625 9.05898438 -9.8828125 8.57421875 C-8.97273437 7.95160156 -8.06265625 7.32898438 -7.125 6.6875 C-6.22007812 6.07261719 -5.31515625 5.45773437 -4.3828125 4.82421875 C-1.80028615 3.05086051 -1.80028615 3.05086051 0 0 Z " fill="#E4E4E4" transform="translate(806,608)"/>
<path d="M0 0 C0.66 0.66 1.32 1.32 2 2 C1.01 3.32 0.02 4.64 -1 6 C-0.67 6.66 -0.34 7.32 0 8 C-6.625 11.125 -6.625 11.125 -10 10 C-5.25 6 -5.25 6 -3 6 C-2.690625 5.38125 -2.38125 4.7625 -2.0625 4.125 C-1.375 2.75 -0.6875 1.375 0 0 Z " fill="#E2E1E1" transform="translate(417,216)"/>
<path d="M0 0 C0.66 0 1.32 0 2 0 C2.66 2.31 3.32 4.62 4 7 C3.01 7.33 2.02 7.66 1 8 C0.01 7.01 -0.98 6.02 -2 5 C-1.34 3.35 -0.68 1.7 0 0 Z " fill="#282727" transform="translate(226,574)"/>
<path d="M0 0 C0.66 0.33 1.32 0.66 2 1 C0.52307692 6.66153846 0.52307692 6.66153846 -2.125 8.375 C-2.74375 8.58125 -3.3625 8.7875 -4 9 C-4.33 8.34 -4.66 7.68 -5 7 C-3.6875 4.375 -3.6875 4.375 -2 2 C-1.34 2 -0.68 2 0 2 C0 1.34 0 0.68 0 0 Z " fill="#2E2B2C" transform="translate(808,401)"/>
<path d="M0 0 C3.82669043 3.42388092 5.72278474 6.00724943 7 11 C6.01 11 5.02 11 4 11 C2.25 9.25 2.25 9.25 1 7 C1.3125 4.75 1.3125 4.75 2 3 C1.34 3 0.68 3 0 3 C0 2.01 0 1.02 0 0 Z " fill="#373435" transform="translate(612,758)"/>
<path d="M0 0 C3.96 0 7.92 0 12 0 C12.33 0.99 12.66 1.98 13 3 C8.71 2.67 4.42 2.34 0 2 C0 1.34 0 0.68 0 0 Z " fill="#383838" transform="translate(860,458)"/>
<path d="M0 0 C0.66 0.33 1.32 0.66 2 1 C2 1.66 2 2.32 2 3 C1.01 3.33 0.02 3.66 -1 4 C-2.65637688 5.63044124 -2.65637688 5.63044124 -4.1875 7.5625 C-4.71730469 8.20316406 -5.24710937 8.84382812 -5.79296875 9.50390625 C-6.19128906 9.99761719 -6.58960938 10.49132812 -7 11 C-7.66 10.34 -8.32 9.68 -9 9 C-6.21000549 5.51250686 -3.74764169 2.49842779 0 0 Z " fill="#363535" transform="translate(373,172)"/>
<path d="M0 0 C0.598125 0.268125 1.19625 0.53625 1.8125 0.8125 C2.1425 1.8025 2.4725 2.7925 2.8125 3.8125 C2.4825 4.1425 2.1525 4.4725 1.8125 4.8125 C-1.6875 4.5 -1.6875 4.5 -5.1875 3.8125 C-5.5175 3.1525 -5.8475 2.4925 -6.1875 1.8125 C-3.93528616 0.44508445 -2.66192242 -0.22816478 0 0 Z " fill="#2B2B2B" transform="translate(381.1875,169.1875)"/>
<path d="M0 0 C0.33 0 0.66 0 1 0 C1 2.64 1 5.28 1 8 C0.67 7.34 0.34 6.68 0 6 C-0.66 6 -1.32 6 -2 6 C-1.67 8.31 -1.34 10.62 -1 13 C-1.99 13.33 -2.98 13.66 -4 14 C-3.91231752 12.4156683 -3.80412671 10.83246433 -3.6875 9.25 C-3.60048828 7.92742187 -3.60048828 7.92742187 -3.51171875 6.578125 C-2.93320407 3.66347087 -1.98342659 2.18227912 0 0 Z " fill="#302C2D" transform="translate(884,482)"/>
<path d="M0 0 C1.32 0 2.64 0 4 0 C2.5361389 4.39158329 0.02168662 4.87947433 -4 7 C-3.67 5.35 -3.34 3.7 -3 2 C-2.01 2 -1.02 2 0 2 C0 1.34 0 0.68 0 0 Z " fill="#302E2F" transform="translate(608,802)"/>
<path d="M0 0 C0.53625 0.2475 1.0725 0.495 1.625 0.75 C0.4803125 1.3996875 0.4803125 1.3996875 -0.6875 2.0625 C-3.35612992 3.55270977 -3.35612992 3.55270977 -4.875 5.5 C-5.37 5.9125 -5.865 6.325 -6.375 6.75 C-9.0625 6.4375 -9.0625 6.4375 -11.375 5.75 C-10.385 5.09 -9.395 4.43 -8.375 3.75 C-6.9209375 2.6671875 -6.9209375 2.6671875 -5.4375 1.5625 C-2.375 -0.25 -2.375 -0.25 0 0 Z " fill="#E7E6E6" transform="translate(221.375,614.25)"/>
<path d="M0 0 C0.99 0.33 1.98 0.66 3 1 C2.67 2.98 2.34 4.96 2 7 C-0.91517292 5.92598892 -2.77810176 5.22189824 -5 3 C-2.6875 1.4375 -2.6875 1.4375 0 0 Z " fill="#2B292A" transform="translate(186,560)"/>
<path d="M0 0 C0.66 0 1.32 0 2 0 C2.33 0.33 2.66 0.66 3 1 C3.99 1 4.98 1 6 1 C6.33 2.98 6.66 4.96 7 7 C4 7 4 7 2.375 5.75 C0.8631638 3.82584484 0.41208721 2.39010582 0 0 Z " fill="#EDEDED" transform="translate(663,313)"/>
<path d="M0 0 C1.44977894 2.34112451 2.04314411 3.5796929 1.7578125 6.359375 C1.54898438 7.14828125 1.34015625 7.9371875 1.125 8.75 C0.92132813 9.54921875 0.71765625 10.3484375 0.5078125 11.171875 C0.34023437 11.77515625 0.17265625 12.3784375 0 13 C-2.1385485 10.8614515 -2.42655063 9.86724686 -3 7 C-2.34 7 -1.68 7 -1 7 C-1.33 5.35 -1.66 3.7 -2 2 C-1.34 2 -0.68 2 0 2 C0 1.34 0 0.68 0 0 Z " fill="#292728" transform="translate(172,592)"/>
<path d="M0 0 C1.32 0.33 2.64 0.66 4 1 C3.67 2.32 3.34 3.64 3 5 C2.34 5 1.68 5 1 5 C0.67 5.99 0.34 6.98 0 8 C-0.66 7.67 -1.32 7.34 -2 7 C-1.125 2.25 -1.125 2.25 0 0 Z " fill="#111111" transform="translate(451,401)"/>
<path d="M0 0 C0.66 0.33 1.32 0.66 2 1 C2.33 1.99 2.66 2.98 3 4 C1.0625 6.6875 1.0625 6.6875 -1 9 C-1.66 8.34 -2.32 7.68 -3 7 C-2.61121812 3.98694043 -1.73543126 2.60314689 0 0 Z " fill="#2D2A2B" transform="translate(767,377)"/>
<path d="M0 0 C3.29714793 0.32971479 4.6226839 0.6226839 7 3 C6.01 4.485 6.01 4.485 5 6 C4.01 6 3.02 6 2 6 C1.67 4.68 1.34 3.36 1 2 C0.01 2 -0.98 2 -2 2 C-1.34 1.34 -0.68 0.68 0 0 Z " fill="#2C292A" transform="translate(769,360)"/>
<path d="M0 0 C2 1 4 2 6 3 C6 4.32 6 5.64 6 7 C2.34683329 5.75023244 1.21934164 5.32901247 -1 2 C-0.67 1.34 -0.34 0.68 0 0 Z " fill="#ECEBEC" transform="translate(410,752)"/>
<path d="M0 0 C0.33 1.32 0.66 2.64 1 4 C-2.50871784 5.91384609 -3.81367786 6.04276246 -7.8125 5.125 C-8.864375 4.75375 -9.91625 4.3825 -11 4 C-11 3.67 -11 3.34 -11 3 C-8.02148438 2.70703125 -8.02148438 2.70703125 -5.04296875 2.4140625 C-2.70011858 2.07334609 -2.70011858 2.07334609 0 0 Z " fill="#302D2D" transform="translate(789,402)"/>
<path d="M0 0 C1.5625 1.75 1.5625 1.75 3 4 C2.6875 6.25 2.6875 6.25 2 8 C1.34 7.67 0.68 7.34 0 7 C-0.66 7 -1.32 7 -2 7 C-2.66 6.34 -3.32 5.68 -4 5 C-2.68 3.35 -1.36 1.7 0 0 Z " fill="#2F2D2E" transform="translate(212,397)"/>
<path d="M0 0 C1.9375 0.3125 1.9375 0.3125 4 1 C5.2077558 4.62326739 4.54311128 5.64146369 3 9 C0.23776722 6.23776722 0.42143709 3.79293383 0 0 Z " fill="#282727" transform="translate(225,397)"/>
<path d="M0 0 C1.98 0.66 3.96 1.32 6 2 C6 2.99 6 3.98 6 5 C3.36 5.33 0.72 5.66 -2 6 C-1.67 5.01 -1.34 4.02 -1 3 C-0.34 2.67 0.32 2.34 1 2 C0.67 1.34 0.34 0.68 0 0 Z " fill="#2E2A2B" transform="translate(790,360)"/>
<path d="M0 0 C2.31 1.65 4.62 3.3 7 5 C6.01 5.495 6.01 5.495 5 6 C4.67 6.99 4.34 7.98 4 9 C2.35 6.69 0.7 4.38 -1 2 C-0.67 1.34 -0.34 0.68 0 0 Z " fill="#EAE9E9" transform="translate(414,175)"/>
<path d="M0 0 C0.99 0.33 1.98 0.66 3 1 C4.05404945 4.98196457 3.84098656 7.98195309 3 12 C0.50494038 9.50494038 0.64051624 8.32671112 0.375 4.875 C0.30023438 3.96492188 0.22546875 3.05484375 0.1484375 2.1171875 C0.09945312 1.41851562 0.05046875 0.71984375 0 0 Z " fill="#2F2B2C" transform="translate(82,482)"/>
<path d="M0 0 C0.99 0.33 1.98 0.66 3 1 C0.14723863 3.93200474 -2.65079784 6.64315404 -6 9 C-4.68775452 5.06326356 -3.08089673 2.77280706 0 0 Z " fill="#E3E3E3" transform="translate(581,187)"/>
<path d="M0 0 C-0.33 0.99 -0.66 1.98 -1 3 C-2.175625 2.9690625 -2.175625 2.9690625 -3.375 2.9375 C-5.98114961 2.81315937 -5.98114961 2.81315937 -8 4 C-8.33 2.68 -8.66 1.36 -9 0 C-5.93109813 -1.53445094 -3.29905734 -0.54984289 0 0 Z " fill="#2B2829" transform="translate(486,84)"/>
<path d="M0 0 C-2.36292656 2.52588702 -3.66462511 3.88820837 -7 5 C-6.625 2.5625 -6.625 2.5625 -6 0 C-3.50907189 -1.24546405 -2.58919267 -0.7767578 0 0 Z " fill="#2B2829" transform="translate(657,669)"/>
<path d="M0 0 C0.33 0.66 0.66 1.32 1 2 C-0.21958756 4.67371119 -1.18298261 6.75412136 -3 9 C-5.75 9.9375 -5.75 9.9375 -8 10 C-7.59007812 9.52949219 -7.18015625 9.05898438 -6.7578125 8.57421875 C-6.21898437 7.95160156 -5.68015625 7.32898438 -5.125 6.6875 C-4.59132813 6.07261719 -4.05765625 5.45773437 -3.5078125 4.82421875 C-1.8359553 2.86501788 -1.8359553 2.86501788 0 0 Z " fill="#3F3E3E" transform="translate(657,645)"/>
<path d="M0 0 C0.66 0.33 1.32 0.66 2 1 C1.67 1.66 1.34 2.32 1 3 C2.65 3 4.3 3 6 3 C6 3.66 6 4.32 6 5 C6.66 5.33 7.32 5.66 8 6 C6.3125 6.8125 6.3125 6.8125 4 7 C1.25 4.5625 1.25 4.5625 -1 2 C-0.67 1.34 -0.34 0.68 0 0 Z " fill="#DCDBDB" transform="translate(769,596)"/>
<path d="M0 0 C2 3 2 3 1.875 5.5 C1 8 1 8 -3 11 C-2.01 7.37 -1.02 3.74 0 0 Z " fill="#333333" transform="translate(442,425)"/>
<path d="M0 0 C2.125 0.9375 2.125 0.9375 4 2 C3.01 3.32 2.02 4.64 1 6 C0.01 5.67 -0.98 5.34 -2 5 C-2 3.68 -2 2.36 -2 1 C-1.34 0.67 -0.68 0.34 0 0 Z " fill="#EBEBEB" transform="translate(178,361)"/>
<path d="M0 0 C0.33 0.66 0.66 1.32 1 2 C1.66 2 2.32 2 3 2 C3.33 3.98 3.66 5.96 4 8 C3.34 8 2.68 8 2 8 C0.02 4.535 0.02 4.535 -2 1 C-1.34 0.67 -0.68 0.34 0 0 Z " fill="#282727" transform="translate(601,186)"/>
<path d="M0 0 C0.33 0 0.66 0 1 0 C0.8864371 1.64666203 0.75882619 3.29236082 0.625 4.9375 C0.52058594 6.31228516 0.52058594 6.31228516 0.4140625 7.71484375 C0.27742187 8.46894531 0.14078125 9.22304688 0 10 C-0.99 10.495 -0.99 10.495 -2 11 C-2.33 8.03 -2.66 5.06 -3 2 C-2.01 2.495 -2.01 2.495 -1 3 C-0.67 2.01 -0.34 1.02 0 0 Z " fill="#2D2D2D" transform="translate(620,772)"/>
<path d="M0 0 C1.2065625 0.0309375 1.2065625 0.0309375 2.4375 0.0625 C2.7675 1.0525 3.0975 2.0425 3.4375 3.0625 C-0.0275 4.5475 -0.0275 4.5475 -3.5625 6.0625 C-3.605221 4.39638095 -3.60313832 2.72867115 -3.5625 1.0625 C-2.5625 0.0625 -2.5625 0.0625 0 0 Z " fill="#363334" transform="translate(383.5625,763.9375)"/>
<path d="M0 0 C0.66 0 1.32 0 2 0 C1.29445932 3.66881155 -0.27735506 6.70450534 -2 10 C-2.66 8.68 -3.32 7.36 -4 6 C-2.7260411 3.96166576 -1.38938077 1.96147874 0 0 Z " fill="#363536" transform="translate(188,576)"/>
<path d="M0 0 C-6.27692308 3.2 -6.27692308 3.2 -9.9375 2.1875 C-10.618125 1.795625 -11.29875 1.40375 -12 1 C-12 0.67 -12 0.34 -12 0 C-10.37585622 -0.19477739 -8.75063577 -0.38059458 -7.125 -0.5625 C-6.22007813 -0.66691406 -5.31515625 -0.77132813 -4.3828125 -0.87890625 C-2 -1 -2 -1 0 0 Z " fill="#1D1A1B" transform="translate(120,505)"/>
<path d="M0 0 C1.32 0.66 2.64 1.32 4 2 C3.67 3.65 3.34 5.3 3 7 C1.68 5.68 0.36 4.36 -1 3 C-0.67 2.01 -0.34 1.02 0 0 Z " fill="#F1F1F1" transform="translate(577,784)"/>
<path d="M0 0 C0.66 0.33 1.32 0.66 2 1 C-1.625 5.875 -1.625 5.875 -5 7 C-4.60196439 4.11424181 -4.20990931 3.17810487 -1.9375 1.25 C-1.298125 0.8375 -0.65875 0.425 0 0 Z " fill="#332F30" transform="translate(574,752)"/>
<path d="M0 0 C3.465 1.98 3.465 1.98 7 4 C6.67 4.99 6.34 5.98 6 7 C3.5625 6.3125 3.5625 6.3125 1 5 C0.1875 2.375 0.1875 2.375 0 0 Z " fill="#EEEDEE" transform="translate(322,669)"/>
<path d="M0 0 C0.33 0 0.66 0 1 0 C1.66 3.96 2.32 7.92 3 12 C2.01 11.34 1.02 10.68 0 10 C0 9.34 0 8.68 0 8 C-0.99 8.33 -1.98 8.66 -3 9 C-3 8.34 -3 7.68 -3 7 C-2.34 6.67 -1.68 6.34 -1 6 C-0.34227572 2.97065509 -0.34227572 2.97065509 0 0 Z " fill="#3C3839" transform="translate(765,586)"/>
<path d="M0 0 C0.33 0.66 0.66 1.32 1 2 C1.928125 2.1546875 1.928125 2.1546875 2.875 2.3125 C5.94394387 3.3053936 6.57543365 5.22209562 8 8 C7.01 8.495 7.01 8.495 6 9 C0.42857143 3.85714286 0.42857143 3.85714286 0 0 Z " fill="#ECECEC" transform="translate(800,562)"/>
<path d="M0 0 C0.66 1.32 1.32 2.64 2 4 C2.66 4 3.32 4 4 4 C4.33 3.01 4.66 2.02 5 1 C5.33 3.31 5.66 5.62 6 8 C5.67 7.34 5.34 6.68 5 6 C2.47266765 5.34444881 2.47266765 5.34444881 0 5 C0 3.35 0 1.7 0 0 Z " fill="#2F2B2C" transform="translate(377,224)"/>
<path d="M0 0 C1.32 1.32 2.64 2.64 4 4 C3.34 5.65 2.68 7.3 2 9 C0.79371992 6.66785852 -0.1654738 4.50357861 -1 2 C-0.67 1.34 -0.34 0.68 0 0 Z " fill="#323031" transform="translate(413,758)"/>
<path d="M0 0 C2.62187494 1.04874998 3.79371361 1.64931313 5.25 4.125 C5.4975 4.74375 5.745 5.3625 6 6 C5.01 6.33 4.02 6.66 3 7 C2.67 5.68 2.34 4.36 2 3 C1.34 3 0.68 3 0 3 C0 2.01 0 1.02 0 0 Z " fill="#E3E3E3" transform="translate(121,478)"/>
<path d="M0 0 C0.8125 1.6875 0.8125 1.6875 1 4 C-1.1613627 6.51185394 -3.01962439 8.50981219 -6 10 C-4.34832443 6.4213696 -2.21713508 3.25179812 0 0 Z " fill="#D9D9D9" transform="translate(327,328)"/>
<path d="M0 0 C0 0.66 0 1.32 0 2 C-2.25 3.75 -2.25 3.75 -5 5 C-7.3125 4.1875 -7.3125 4.1875 -9 3 C-3.375 0 -3.375 0 0 0 Z " fill="#2E2E2E" transform="translate(336,304)"/>
<path d="M0 0 C0.66 0.66 1.32 1.32 2 2 C1.9765625 4.1640625 1.9765625 4.1640625 1.625 6.625 C1.51414062 7.44226563 1.40328125 8.25953125 1.2890625 9.1015625 C1.19367188 9.72804687 1.09828125 10.35453125 1 11 C-0.93137318 7.48077851 -1.26919991 5.0379986 -1 1 C-0.67 0.67 -0.34 0.34 0 0 Z " fill="#333131" transform="translate(420,189)"/>
<path d="M0 0 C1.4606285 2.64738916 2 3.89448334 2 7 C1.01 7.33 0.02 7.66 -1 8 C-0.67 6.68 -0.34 5.36 0 4 C-0.99 4 -1.98 4 -3 4 C-2.67 3.01 -2.34 2.02 -2 1 C-1.34 0.67 -0.68 0.34 0 0 Z " fill="#1C1A1B" transform="translate(564,184)"/>
<path d="M0 0 C2.475 0.99 2.475 0.99 5 2 C5 2.99 5 3.98 5 5 C2.69 4.34 0.38 3.68 -2 3 C-1.34 2.01 -0.68 1.02 0 0 Z " fill="#2E2E2E" transform="translate(404,171)"/>
<path d="M0 0 C-2.93720508 1.52299523 -5.9168649 2.80100302 -9 4 C-9 3.01 -9 2.02 -9 1 C-5.64919071 -1.10976881 -3.77897651 -1.0497157 0 0 Z " fill="#E6E6E6" transform="translate(858,459)"/>
<path d="M0 0 C0.99 0 1.98 0 3 0 C2.64950425 3.24208567 2.43778819 4.61527704 -0.0625 6.8125 C-0.701875 7.204375 -1.34125 7.59625 -2 8 C-1.34 5.36 -0.68 2.72 0 0 Z " fill="#232323" transform="translate(433,452)"/>
<path d="M0 0 C0.66 0.33 1.32 0.66 2 1 C-2.625 6.875 -2.625 6.875 -6 8 C-4.55746343 4.63408134 -2.66735273 2.48952921 0 0 Z " fill="#E5E2E3" transform="translate(383,186)"/>
<path d="M0 0 C1.32 0.33 2.64 0.66 4 1 C3.67 2.98 3.34 4.96 3 7 C2.34 6.01 1.68 5.02 1 4 C0.01 4.33 -0.98 4.66 -2 5 C-1.34 3.35 -0.68 1.7 0 0 Z " fill="#292728" transform="translate(563,181)"/>
<path d="M0 0 C0 0.66 0 1.32 0 2 C-3.96 1.67 -7.92 1.34 -12 1 C-12 0.67 -12 0.34 -12 0 C-3.42857143 -1.28571429 -3.42857143 -1.28571429 0 0 Z " fill="#383435" transform="translate(598,795)"/>
<path d="M0 0 C0.6875 1.8125 0.6875 1.8125 1 4 C-0.4375 5.75 -0.4375 5.75 -2 7 C-2.99 6.34 -3.98 5.68 -5 5 C-3.35 3.35 -1.7 1.7 0 0 Z " fill="#2D2B2C" transform="translate(578,767)"/>
<path d="M0 0 C3.465 1.485 3.465 1.485 7 3 C6.01 4.485 6.01 4.485 5 6 C2.5 4.6875 2.5 4.6875 0 3 C0 2.01 0 1.02 0 0 Z " fill="#282627" transform="translate(402,751)"/>
<path d="M0 0 C3 1 3 1 5 3 C2.36 3.66 -0.28 4.32 -3 5 C-2 2 -2 2 0 0 Z " fill="#F1F1F1" transform="translate(636,657)"/>
<path d="M0 0 C1.9375 0.8125 1.9375 0.8125 4 2 C4.33 2.99 4.66 3.98 5 5 C3.68 5.33 2.36 5.66 1 6 C-0.0625 4.125 -0.0625 4.125 -1 2 C-0.67 1.34 -0.34 0.68 0 0 Z " fill="#2E2B2C" transform="translate(125,513)"/>
<path d="M0 0 C0.66 0 1.32 0 2 0 C2 0.99 2 1.98 2 3 C2.66 3.33 3.32 3.66 4 4 C1.69 4.33 -0.62 4.66 -3 5 C-1.625 2.5 -1.625 2.5 0 0 Z " fill="#2E2E2E" transform="translate(228,379)"/>
<path d="M0 0 C2.31 0 4.62 0 7 0 C7.66 1.32 8.32 2.64 9 4 C5.30581799 4 3.22163822 2.71820705 0 1 C0 0.67 0 0.34 0 0 Z " fill="#413E3F" transform="translate(203,376)"/>
<path d="M0 0 C0.75 1.75 0.75 1.75 1 4 C-0.8125 6.25 -0.8125 6.25 -3 8 C-3.66 8 -4.32 8 -5 8 C-3.62845496 5.04590299 -2.01136276 2.55991624 0 0 Z " fill="#343333" transform="translate(177,367)"/>
<path d="M0 0 C3.65316671 1.24976756 4.78065836 1.67098753 7 5 C3.25 6.125 3.25 6.125 1 5 C0.375 2.4375 0.375 2.4375 0 0 Z " fill="#282627" transform="translate(396,224)"/>
<path d="M0 0 C0.33 0.66 0.66 1.32 1 2 C0.67 2.99 0.34 3.98 0 5 C0.66 5.33 1.32 5.66 2 6 C0.02 6.33 -1.96 6.66 -4 7 C-4 6.34 -4 5.68 -4 5 C-3.34 4.67 -2.68 4.34 -2 4 C-2 3.01 -2 2.02 -2 1 C-1.34 0.67 -0.68 0.34 0 0 Z " fill="#2A2627" transform="translate(598,224)"/>
<path d="M0 0 C2.5 1.3125 2.5 1.3125 5 3 C5 3.99 5 4.98 5 6 C4.01 5.34 3.02 4.68 2 4 C-0.11280345 3.36707617 -0.11280345 3.36707617 -2 3 C-1 1 -1 1 0 0 Z " fill="#1B191A" transform="translate(568,218)"/>
<path d="M0 0 C0.33 0 0.66 0 1 0 C1 1.65 1 3.3 1 5 C-0.98 5.66 -2.96 6.32 -5 7 C-4.19152271 5.83054208 -3.37810888 4.66449539 -2.5625 3.5 C-2.11003906 2.8503125 -1.65757812 2.200625 -1.19140625 1.53125 C-0.79824219 1.0259375 -0.40507813 0.520625 0 0 Z " fill="#E3E2E3" transform="translate(516,884)"/>
<path d="M0 0 C0.99 0.33 1.98 0.66 3 1 C3.6875 3.0625 3.6875 3.0625 4 5 C3.01 5.33 2.02 5.66 1 6 C0.67 4.02 0.34 2.04 0 0 Z " fill="#363233" transform="translate(514,847)"/>
<path d="M0 0 C0 0.99 0 1.98 0 3 C-0.99 3 -1.98 3 -3 3 C-2.67 4.32 -2.34 5.64 -2 7 C-3.32 6.34 -4.64 5.68 -6 5 C-2.25 1.125 -2.25 1.125 0 0 Z " fill="#F2F1F2" transform="translate(607,807)"/>
<path d="M0 0 C-0.33 0.99 -0.66 1.98 -1 3 C-2.98 3 -4.96 3 -7 3 C-7 2.34 -7 1.68 -7 1 C-4.53721199 -0.231394 -2.7204945 -0.07159196 0 0 Z " fill="#2A2A2A" transform="translate(599,809)"/>
<path d="M0 0 C0.6875 1.8125 0.6875 1.8125 1 4 C-0.1875 5.8125 -0.1875 5.8125 -2 7 C-4.1875 6.6875 -4.1875 6.6875 -6 6 C-5.195625 5.38125 -4.39125 4.7625 -3.5625 4.125 C-0.96125481 2.25835959 -0.96125481 2.25835959 0 0 Z " fill="#3D3C3D" transform="translate(602,787)"/>
<path d="M0 0 C0.99 0 1.98 0 3 0 C2.34 1.98 1.68 3.96 1 6 C0.01 6 -0.98 6 -2 6 C-1.34 4.02 -0.68 2.04 0 0 Z " fill="#EEEBEC" transform="translate(402,783)"/>
<path d="M0 0 C0 1.32 0 2.64 0 4 C-2.46800047 2.84826645 -4.04783565 1.95216435 -6 0 C-3.50907189 -1.24546405 -2.58919267 -0.7767578 0 0 Z " fill="#343031" transform="translate(327,668)"/>
<path d="M0 0 C4.75 0.75 4.75 0.75 7 3 C5.1875 3.6875 5.1875 3.6875 3 4 C1.25 2.625 1.25 2.625 0 1 C0 0.67 0 0.34 0 0 Z " fill="#2E2D2D" transform="translate(185,616)"/>
<path d="M0 0 C1.32 1.65 2.64 3.3 4 5 C2.02 5.99 2.02 5.99 0 7 C-1.125 2.25 -1.125 2.25 0 0 Z " fill="#E4E0E2" transform="translate(753,606)"/>
<path d="M0 0 C0.99 0.33 1.98 0.66 3 1 C2.67 1.99 2.34 2.98 2 4 C0.02 4.33 -1.96 4.66 -4 5 C-4 4.34 -4 3.68 -4 3 C-3.01 3 -2.02 3 -1 3 C-0.67 2.01 -0.34 1.02 0 0 Z " fill="#302C2D" transform="translate(788,571)"/>
<path d="M0 0 C0.99 0.99 1.98 1.98 3 3 C1.625 5 1.625 5 0 7 C-0.66 7 -1.32 7 -2 7 C-2.33 5.68 -2.66 4.36 -3 3 C-2.01 2.67 -1.02 2.34 0 2 C0 1.34 0 0.68 0 0 Z " fill="#363435" transform="translate(223,568)"/>
<path d="M0 0 C0.99 0 1.98 0 3 0 C3.625 2.375 3.625 2.375 4 5 C3.34 5.66 2.68 6.32 2 7 C0 4 0 4 0 0 Z " fill="#0F0F0F" transform="translate(482,416)"/>
<path d="M0 0 C-0.25561323 2.3431213 -0.59270772 4.67843403 -1 7 C-1.99 7.495 -1.99 7.495 -3 8 C-3.33 5.69 -3.66 3.38 -4 1 C-2 0 -2 0 0 0 Z " fill="#292728" transform="translate(757,401)"/>
<path d="M0 0 C0.99 0.33 1.98 0.66 3 1 C2.67 2.98 2.34 4.96 2 7 C1.34 6.67 0.68 6.34 0 6 C0 4.02 0 2.04 0 0 Z " fill="#2C2B2B" transform="translate(168,382)"/>
<path d="M0 0 C-0.66 1.32 -1.32 2.64 -2 4 C-3.65 3.67 -5.3 3.34 -7 3 C-3.375 0 -3.375 0 0 0 Z " fill="#313131" transform="translate(191,360)"/>
<path d="M0 0 C0.66 0.33 1.32 0.66 2 1 C2 1.66 2 2.32 2 3 C2.66 3 3.32 3 4 3 C4 3.66 4 4.32 4 5 C4.66 5.33 5.32 5.66 6 6 C3 6 3 6 0.3125 3.5 C-0.450625 2.675 -1.21375 1.85 -2 1 C-1.34 0.67 -0.68 0.34 0 0 Z " fill="#393738" transform="translate(647,321)"/>
<path d="M0 0 C0.66 0.33 1.32 0.66 2 1 C2 1.99 2 2.98 2 4 C2.66 4 3.32 4 4 4 C3.67 5.32 3.34 6.64 3 8 C0.9375 5.6875 0.9375 5.6875 -1 3 C-0.67 2.01 -0.34 1.02 0 0 Z " fill="#353031" transform="translate(364,214)"/>
<path d="M0 0 C0.66 0.33 1.32 0.66 2 1 C2.625 3.5625 2.625 3.5625 3 6 C2.01 6 1.02 6 0 6 C-0.38218767 4.34385343 -0.71395102 2.67542976 -1 1 C-0.67 0.67 -0.34 0.34 0 0 Z " fill="#EAE9EA" transform="translate(402,191)"/>
<path d="M0 0 C0.99 0.99 1.98 1.98 3 3 C2.67 3.66 2.34 4.32 2 5 C2.99 5.33 3.98 5.66 5 6 C4.01 6.66 3.02 7.32 2 8 C0.93224776 6.03533587 -0.06553465 4.03144641 -1 2 C-0.67 1.34 -0.34 0.68 0 0 Z " fill="#EEEDEE" transform="translate(616,178)"/>
</svg>
