<?xml version="1.0" encoding="utf-8" standalone="yes"?>
<!DOCTYPE svg PUBLIC "-//W3C//DTD SVG 1.1//EN" "http://www.w3.org/Graphics/SVG/1.1/DTD/svg11.dtd">
<svg width="612" height="421" viewBox="0 0 612 421" style="fill:none;stroke:none;fill-rule:evenodd;clip-rule:evenodd;stroke-linecap:round;stroke-linejoin:round;stroke-miterlimit:1.5;" version="1.1" xmlns="http://www.w3.org/2000/svg" xmlns:xlink="http://www.w3.org/1999/xlink"><style id="fontImports">@import url("https://fonts.googleapis.com/css2?family=Roboto:wght@400;700&amp;display=block");</style><g id="items" style="isolation: isolate"><g id="blend" style="mix-blend-mode:normal"><g id="g-root--1.cu_sy_1hckuddtqctmz-fill" data-item-order="999879753" data-item-id="-1.cu_sy_1hckuddtqctmz" data-item-class="Part Stroke ColorStrokeBlack" data-item-index="-1" data-renderer-id="0" transform="translate(137.39523315429688, 3)"></g><g id="g-root-0.cu_sy_141qt35tqcs24-fill" data-item-order="999879754" data-item-id="0.cu_sy_141qt35tqcs24" data-item-class="Part Indexed_0 Fill Stroke" data-item-index="0" data-renderer-id="0" transform="translate(241.523193359375, 104.523193359375)"></g><g id="g-root-5.cu_sy_znsq81tqcrup-fill" data-item-order="999879756" data-item-id="5.cu_sy_znsq81tqcrup" data-item-class="Part Indexed Fill Stroke" data-item-index="5" data-renderer-id="0" transform="translate(178.7615966796875, 5.7615966796875)"></g><g id="g-root-4.cu_sy_1qa39vltqcruo-fill" data-item-order="999879758" data-item-id="4.cu_sy_1qa39vltqcruo" data-item-class="Part Indexed Fill Stroke" data-item-index="4" data-renderer-id="0" transform="translate(118.7615966796875, 179.7615966796875)"></g><g id="g-root-3.cu_sy_8zmrb5tqcsuf-fill" data-item-order="999879760" data-item-id="3.cu_sy_8zmrb5tqcsuf" data-item-class="Part Indexed Fill Stroke" data-item-index="3" data-renderer-id="0" transform="translate(268.7615966796875, 287.7615966796875)"></g><g id="g-root-2.cu_sy_mb39ohtqcr9i-fill" data-item-order="999879762" data-item-id="2.cu_sy_mb39ohtqcr9i" data-item-class="Part Indexed Fill Stroke" data-item-index="2" data-renderer-id="0" transform="translate(418.7615966796875, 179.7615966796875)"></g><g id="g-root-1.cu_sy_zlxayptqcsud-fill" data-item-order="999879764" data-item-id="1.cu_sy_zlxayptqcsud" data-item-class="Part Indexed Indexed_1 Fill Stroke" data-item-index="1" data-renderer-id="0" transform="translate(358.7615966796875, 5.7615966796875)"></g><g id="g-root-tx_recruitm_1um5xhdtqct1p-fill" data-item-order="1000000000" data-item-id="tx_recruitm_1um5xhdtqct1p" data-item-class="Label Stroke Indexed ColorStrokeGray" data-item-index="5" data-renderer-id="0" transform="translate(50, 9)"><g id="tx_recruitm_1um5xhdtqct1p-fill" stroke="none" fill="#A3A3A3"><g><text style="font: 20px Roboto, sans-serif; white-space: pre;" font-weight="20px" font-size="Roboto," font-family="sans-serif"><tspan x="19.74" y="34" dominant-baseline="ideographic">Recruitment </tspan><tspan x="50.46" y="58" dominant-baseline="ideographic">Platform</tspan></text></g></g></g><g id="g-root-woma_4l2dohtqcrgl-fill" data-item-order="1000000000" data-item-id="woma_4l2dohtqcrgl" data-item-class="Icon Stroke Indexed InsideFill InsideColorFill" data-item-index="5" data-renderer-id="0" transform="translate(194, 21)"></g><g id="g-root-3_hxru81tqcs1t-fill" data-item-order="1000000000" data-item-id="3_hxru81tqcs1t" data-item-class="Icon Stroke Indexed Indexed_1 InsideFill InsideColorFill" data-item-index="1" data-renderer-id="0" transform="translate(374, 21)"></g><g id="g-root-tx_software_8ydt4xtqcqo9-fill" data-item-order="1000000000" data-item-id="tx_software_8ydt4xtqcqo9" data-item-class="Label Stroke Indexed Indexed_1 ColorStrokeGray" data-item-index="1" data-renderer-id="0" transform="translate(422, 9)"><g id="tx_software_8ydt4xtqcqo9-fill" stroke="none" fill="#A3A3A3"><g><text style="font: 20px Roboto, sans-serif; white-space: pre;" font-weight="20px" font-size="Roboto," font-family="sans-serif"><tspan x="12" y="34" dominant-baseline="ideographic">Software </tspan><tspan x="12" y="58" dominant-baseline="ideographic">Developers</tspan></text></g></g></g><g id="g-root-chai_1qclcjltqcruq-fill" data-item-order="1000000000" data-item-id="chai_1qclcjltqcruq" data-item-class="Icon Stroke Indexed Indexed_0 InsideFill InsideColorFill" data-item-index="0" data-renderer-id="0" transform="translate(272, 135)"></g><g id="g-root-tx_technolo_1cvie2ptqcs92-fill" data-item-order="1000000000" data-item-id="tx_technolo_1cvie2ptqcs92" data-item-class="Label Stroke Indexed ColorStrokeGray" data-item-index="4" data-renderer-id="0" transform="translate(2, 195)"><g id="tx_technolo_1cvie2ptqcs92-fill" stroke="none" fill="#A3A3A3"><g><text style="font: 20px Roboto, sans-serif; white-space: pre;" font-weight="20px" font-size="Roboto," font-family="sans-serif"><tspan x="13.56" y="34" dominant-baseline="ideographic">Technology</tspan></text></g></g></g><g id="g-root-pick_1qapxa9tqcsue-fill" data-item-order="1000000000" data-item-id="pick_1qapxa9tqcsue" data-item-class="Icon Stroke Indexed InsideFill InsideColorFill" data-item-index="4" data-renderer-id="0" transform="translate(134, 195)"></g><g id="g-root-1_v8lvi9tqctmo-fill" data-item-order="1000000000" data-item-id="1_v8lvi9tqctmo" data-item-class="Icon Stroke Indexed InsideFill InsideColorFill" data-item-index="2" data-renderer-id="0" transform="translate(434, 195)"></g><g id="g-root-tx_companie_m97uf5tqcs94-fill" data-item-order="1000000000" data-item-id="tx_companie_m97uf5tqcs94" data-item-class="Label Stroke Indexed ColorStrokeGray" data-item-index="2" data-renderer-id="0" transform="translate(482, 195)"><g id="tx_companie_m97uf5tqcs94-fill" stroke="none" fill="#A3A3A3"><g><text style="font: 20px Roboto, sans-serif; white-space: pre;" font-weight="20px" font-size="Roboto," font-family="sans-serif"><tspan x="12" y="34" dominant-baseline="ideographic">Companies</tspan></text></g></g></g><g id="g-root-resu_1448vr5tqcs27-fill" data-item-order="1000000000" data-item-id="resu_1448vr5tqcs27" data-item-class="Icon Stroke Indexed InsideFill InsideColorFill" data-item-index="3" data-renderer-id="0" transform="translate(284, 303)"></g><g id="g-root-tx_industry_zkocshtqcqo7-fill" data-item-order="1000000000" data-item-id="tx_industry_zkocshtqcqo7" data-item-class="Label Stroke Indexed ColorStrokeGray" data-item-index="3" data-renderer-id="0" transform="translate(242, 351)"><g id="tx_industry_zkocshtqcqo7-fill" stroke="none" fill="#A3A3A3"><g><text style="font: 20px Roboto, sans-serif; white-space: pre;" font-weight="20px" font-size="Roboto," font-family="sans-serif"><tspan x="27.98" y="34" dominant-baseline="ideographic">Industry </tspan><tspan x="14.83" y="58" dominant-baseline="ideographic">Knowledge</tspan></text></g></g></g><g id="g-root--1.cu_sy_1hckuddtqctmz-stroke" data-item-order="999879753" data-item-id="-1.cu_sy_1hckuddtqctmz" data-item-class="Part Stroke ColorStrokeBlack" data-item-index="-1" data-renderer-id="0" transform="translate(137.39523315429688, 3)"><g id="-1.cu_sy_1hckuddtqctmz-stroke" fill="none" stroke-linecap="round" stroke-linejoin="round" stroke-miterlimit="4" stroke="#666666" stroke-width="2"><g><path d="M 146.993667 311.5745C 124.535267 289.0213 108.604767 232.3476 108.604767 166C 108.604767 79.8436 135.467667 10 168.604767 10C 201.741867 10 228.604767 79.8436 228.604767 166C 228.604767 232.3479 212.674167 289.0218 190.215567 311.5748M 234.971083 35.829346C 203.595983 41.893446 158.357483 78.025746 120.063283 130.733246C 69.421783 200.435246 50.101283 272.729546 76.909783 292.207046C 103.718283 311.684546 166.503783 270.969546 217.145283 201.267546C 256.442083 147.180146 276.879083 91.531746 271.537183 60.212546M 65.671859 60.214569C 60.331559 91.534269 80.768459 147.181069 120.064259 201.266969C 170.705659 270.968969 233.491259 311.684069 260.299759 292.206569C 287.108159 272.729069 267.787759 200.434769 217.146259 130.732769C 178.851059 78.023969 133.611359 41.891069 102.236159 35.828369M 35.634034 230.911328C 63.541134 245.992728 123.142834 243.859728 187.145434 223.064028C 269.085134 196.440228 327.209234 149.309228 316.969234 117.793928C 306.729334 86.278728 232.003034 82.313428 150.063434 108.937228C 86.915034 129.455328 37.911434 162.153328 23.443634 190.496928M 313.764699 190.494984C 299.295799 162.151884 250.292899 129.454684 187.145699 108.936984C 105.206099 82.313184 30.479799 86.278484 20.239899 117.793684C 9.999999 149.308984 68.123999 196.439984 150.063699 223.063784C 214.066199 243.859484 273.667799 245.992484 301.574999 230.911184"></path></g></g></g><g id="g-root-0.cu_sy_141qt35tqcs24-stroke" data-item-order="999879754" data-item-id="0.cu_sy_141qt35tqcs24" data-item-class="Part Indexed_0 Fill Stroke" data-item-index="0" data-renderer-id="0" transform="translate(241.523193359375, 104.523193359375)"><g id="0.cu_sy_141qt35tqcs24-stroke" fill="none" stroke-linecap="round" stroke-linejoin="round" stroke-miterlimit="4" stroke="#4F92FF" stroke-width="2"><g><path d="M 108.811407 46.112807C 118.953607 70.598107 107.326107 98.669307 82.840807 108.811407C 58.355507 118.953607 30.284307 107.326107 20.142207 82.840807C 10.000007 58.355507 21.627507 30.284307 46.112807 20.142207C 70.598107 10.000007 98.669307 21.627507 108.811407 46.112807Z"></path></g></g></g><g id="g-root-5.cu_sy_znsq81tqcrup-stroke" data-item-order="999879756" data-item-id="5.cu_sy_znsq81tqcrup" data-item-class="Part Indexed Fill Stroke" data-item-index="5" data-renderer-id="0" transform="translate(178.7615966796875, 5.7615966796875)"><g id="5.cu_sy_znsq81tqcrup-stroke" fill="none" stroke-linecap="round" stroke-linejoin="round" stroke-miterlimit="4" stroke="#CD6AFB" stroke-width="2"><g><path d="M 28.056403 59.405703C 15.813703 54.334603 10.000003 40.299103 15.071103 28.056403C 20.142203 15.813703 34.177703 10.000003 46.420403 15.071103C 58.663103 20.142203 64.476803 34.177703 59.405703 46.420403C 54.334603 58.663103 40.299103 64.476803 28.056403 59.405703Z"></path></g></g></g><g id="g-root-4.cu_sy_1qa39vltqcruo-stroke" data-item-order="999879758" data-item-id="4.cu_sy_1qa39vltqcruo" data-item-class="Part Indexed Fill Stroke" data-item-index="4" data-renderer-id="0" transform="translate(118.7615966796875, 179.7615966796875)"><g id="4.cu_sy_1qa39vltqcruo-stroke" fill="none" stroke-linecap="round" stroke-linejoin="round" stroke-miterlimit="4" stroke="#886AFF" stroke-width="2"><g><path d="M 46.420404 59.405703C 34.177704 64.476803 20.142204 58.663103 15.071104 46.420403C 10.000004 34.177703 15.813704 20.142203 28.056404 15.071103C 40.299104 10.000003 54.334604 15.813703 59.405704 28.056403C 64.476804 40.299103 58.663104 54.334603 46.420404 59.405703Z"></path></g></g></g><g id="g-root-3.cu_sy_8zmrb5tqcsuf-stroke" data-item-order="999879760" data-item-id="3.cu_sy_8zmrb5tqcsuf" data-item-class="Part Indexed Fill Stroke" data-item-index="3" data-renderer-id="0" transform="translate(268.7615966796875, 287.7615966796875)"><g id="3.cu_sy_8zmrb5tqcsuf-stroke" fill="none" stroke-linecap="round" stroke-linejoin="round" stroke-miterlimit="4" stroke="#1AC6FF" stroke-width="2"><g><path d="M 59.405703 46.420403C 54.334603 58.663103 40.299103 64.476803 28.056403 59.405703C 15.813703 54.334603 10.000003 40.299103 15.071103 28.056403C 20.142203 15.813703 34.177703 10.000003 46.420403 15.071103C 58.663103 20.142203 64.476803 34.177703 59.405703 46.420403Z"></path></g></g></g><g id="g-root-2.cu_sy_mb39ohtqcr9i-stroke" data-item-order="999879762" data-item-id="2.cu_sy_mb39ohtqcr9i" data-item-class="Part Indexed Fill Stroke" data-item-index="2" data-renderer-id="0" transform="translate(418.7615966796875, 179.7615966796875)"><g id="2.cu_sy_mb39ohtqcr9i-stroke" fill="none" stroke-linecap="round" stroke-linejoin="round" stroke-miterlimit="4" stroke="#A8DD38" stroke-width="2"><g><path d="M 59.405703 28.056403C 64.476803 40.299103 58.663103 54.334603 46.420403 59.405703C 34.177703 64.476803 20.142203 58.663103 15.071103 46.420403C 10.000003 34.177703 15.813703 20.142203 28.056403 15.071103C 40.299103 10.000003 54.334603 15.813703 59.405703 28.056403Z"></path></g></g></g><g id="g-root-1.cu_sy_zlxayptqcsud-stroke" data-item-order="999879764" data-item-id="1.cu_sy_zlxayptqcsud" data-item-class="Part Indexed Indexed_1 Fill Stroke" data-item-index="1" data-renderer-id="0" transform="translate(358.7615966796875, 5.7615966796875)"><g id="1.cu_sy_zlxayptqcsud-stroke" fill="none" stroke-linecap="round" stroke-linejoin="round" stroke-miterlimit="4" stroke="#44E095" stroke-width="2"><g><path d="M 28.056403 59.405703C 15.813703 54.334603 10.000003 40.299103 15.071103 28.056403C 20.142203 15.813703 34.177703 10.000003 46.420403 15.071103C 58.663103 20.142203 64.476803 34.177703 59.405703 46.420403C 54.334603 58.663103 40.299103 64.476803 28.056403 59.405703Z"></path></g></g></g><g id="g-root-tx_recruitm_1um5xhdtqct1p-stroke" data-item-order="1000000000" data-item-id="tx_recruitm_1um5xhdtqct1p" data-item-class="Label Stroke Indexed ColorStrokeGray" data-item-index="5" data-renderer-id="0" transform="translate(50, 9)"></g><g id="g-root-woma_4l2dohtqcrgl-stroke" data-item-order="1000000000" data-item-id="woma_4l2dohtqcrgl" data-item-class="Icon Stroke Indexed InsideFill InsideColorFill" data-item-index="5" data-renderer-id="0" transform="translate(194, 21)"><g id="woma_4l2dohtqcrgl-stroke" fill="none" stroke-linecap="round" stroke-linejoin="round" stroke-miterlimit="4" stroke="#CD6AFB" stroke-width="2"><g><path d="M 22.512 15.576C 22.512 18.077297 24.539702 20.105 27.041 20.105C 29.542297 20.105 31.569999 18.077297 31.569999 15.576C 31.569999 13.074702 29.542297 11.047 27.041 11.047C 24.539702 11.047 22.512 13.074702 22.512 15.576ZM 33.512 22.047L 30.264 18.8M 26.512 33.047L 33.512 33.047C 33.511963 31.127397 32.511095 29.346698 30.871282 28.348755C 29.231469 27.350813 27.189995 27.28003 25.485 28.162001M 31.2 23.046C 31.111771 24.268381 30.343406 25.337184 29.212808 25.810203C 28.082211 26.283222 26.781661 26.080011 25.849248 25.284647C 24.916835 24.489282 24.511134 23.237031 24.800001 22.046M 22.61 24.645C 22.05143 23.726707 21.773368 22.665207 21.81 21.591L 21.81 20.342C 21.87364 18.765643 21.068935 17.281014 19.71339 16.473889C 18.357845 15.666764 16.669156 15.666764 15.313611 16.473889C 13.958066 17.281014 13.153361 18.765643 13.217 20.342001L 13.217 21.591C 13.253631 22.665207 12.97557 23.726707 12.417 24.645M 13.215 21.052C 14.866315 21.050524 16.435507 20.331615 17.515 19.082001C 18.594167 20.332049 20.16357 21.051055 21.815 21.052M 21.3 21.029C 21.206955 23.052878 19.539016 24.645899 17.513 24.645899C 15.486984 24.645899 13.819045 23.052878 13.726 21.029M 24.512 33.047C 24.512 29.181008 21.377994 26.047001 17.512 26.047001C 13.646007 26.047001 10.512 29.181008 10.512 33.047001ZM 21.052 27.007L 17.512 30.547L 13.972 27.007"></path></g></g></g><g id="g-root-3_hxru81tqcs1t-stroke" data-item-order="1000000000" data-item-id="3_hxru81tqcs1t" data-item-class="Icon Stroke Indexed Indexed_1 InsideFill InsideColorFill" data-item-index="1" data-renderer-id="0" transform="translate(374, 21)"><g id="3_hxru81tqcs1t-stroke" fill="none" stroke-linecap="round" stroke-linejoin="round" stroke-miterlimit="4" stroke="#44E095" stroke-width="2"><g><path d="M 15.5 18.5C 15.5 19.052285 15.947715 19.5 16.5 19.5L 18.5 19.5L 21.5 22.5L 21.5 19.5L 29.5 19.5C 30.052285 19.5 30.5 19.052285 30.5 18.5L 30.5 11.5C 30.5 10.947715 30.052285 10.5 29.5 10.5L 16.5 10.5C 15.947715 10.5 15.5 10.947715 15.5 11.5ZM 12.75 24.75C 12.75 25.992641 13.757359 27 15 27C 16.242641 27 17.25 25.992641 17.25 24.75C 17.25 23.507359 16.242641 22.5 15 22.5C 13.757359 22.5 12.75 23.507359 12.75 24.75M 18.17 29.27C 16.976294 28.141269 15.273849 27.729624 13.696319 28.18828C 12.118789 28.646936 10.902439 29.907201 10.5 31.5M 26.75 24.75C 26.75 25.992641 27.757359 27 29 27C 30.242641 27 31.25 25.992641 31.25 24.75C 31.25 23.507359 30.242641 22.5 29 22.5C 27.757359 22.5 26.75 23.507359 26.75 24.75M 25.83 29.27C 27.023706 28.141269 28.726152 27.729624 30.303682 28.18828C 31.881212 28.646936 33.097561 29.907201 33.5 31.5M 19.75 26.75C 19.75 27.992641 20.757359 29 22 29C 23.242641 29 24.25 27.992641 24.25 26.75C 24.25 25.507359 23.242641 24.5 22 24.5C 20.757359 24.5 19.75 25.507359 19.75 26.75M 26.5 33.5C 25.966657 31.451372 24.116917 30.021538 22 30.021538C 19.883084 30.021538 18.033344 31.451372 17.5 33.500001M 26 13L 28 15L 26 17M 20 13L 18 15L 20 17M 24 13L 22 17"></path></g></g></g><g id="g-root-tx_software_8ydt4xtqcqo9-stroke" data-item-order="1000000000" data-item-id="tx_software_8ydt4xtqcqo9" data-item-class="Label Stroke Indexed Indexed_1 ColorStrokeGray" data-item-index="1" data-renderer-id="0" transform="translate(422, 9)"></g><g id="g-root-chai_1qclcjltqcruq-stroke" data-item-order="1000000000" data-item-id="chai_1qclcjltqcruq" data-item-class="Icon Stroke Indexed Indexed_0 InsideFill InsideColorFill" data-item-index="0" data-renderer-id="0" transform="translate(272, 135)"><g id="chai_1qclcjltqcruq-stroke" fill="none" stroke-linecap="round" stroke-linejoin="round" stroke-miterlimit="4" stroke="#4F92FF" stroke-width="2"><g><path d="M 46.035999 41.486C 46.036533 42.455795 45.65152 43.386021 44.965771 44.07177C 44.280022 44.757519 43.349796 45.142532 42.380001 45.142002L 20.442001 45.141998C 18.42264 45.142292 16.785469 43.50536 16.785469 41.486C 16.785469 39.466637 18.42264 37.829704 20.441999 37.829998L 42.380001 37.830002C 43.349796 37.829468 44.280022 38.214485 44.965771 38.90023C 45.65152 39.585983 46.036533 40.516205 46.036003 41.486ZM 31.41 45.636002L 31.41 57M 22.4 57C 24.299557 53.903084 27.79208 52.152557 31.41 52.484001C 35.028427 52.152737 38.52145 53.903122 40.422001 57M 14.484 32.218002L 14.484 37.830002C 14.402153 40.291161 15.635518 42.6101 17.722 43.918003M 11.942 32.218002L 14.484 32.218002M 45.084 43.917999C 47.170483 42.6101 48.403851 40.291161 48.322002 37.830002M 30.222 14.728001C 25.001041 14.912034 20.770992 19.026167 20.441999 24.24L 20.442001 37.830002L 42.380001 37.830002M 41.228001 19.694C 41.227444 21.67157 42.830425 23.275003 44.807999 23.275003C 46.785568 23.275003 48.388554 21.67157 48.387997 19.694C 48.388554 17.716427 46.785568 16.112995 44.807999 16.112995C 42.830425 16.112995 41.227444 17.716427 41.227997 19.694M 51.967999 30.434C 51.117466 27.176245 48.17495 24.903332 44.807999 24.903332C 41.441048 24.903332 38.498535 27.176245 37.647999 30.434M 33.556 22.251999C 33.55513 28.466923 38.593079 33.505573 44.807999 33.505573C 51.022923 33.505573 56.060867 28.466923 56.059998 22.251999C 56.060867 16.037077 51.022923 10.998426 44.807999 10.998426C 38.593079 10.998426 33.55513 16.037077 33.556 22.251999"></path></g></g></g><g id="g-root-tx_technolo_1cvie2ptqcs92-stroke" data-item-order="1000000000" data-item-id="tx_technolo_1cvie2ptqcs92" data-item-class="Label Stroke Indexed ColorStrokeGray" data-item-index="4" data-renderer-id="0" transform="translate(2, 195)"></g><g id="g-root-pick_1qapxa9tqcsue-stroke" data-item-order="1000000000" data-item-id="pick_1qapxa9tqcsue" data-item-class="Icon Stroke Indexed InsideFill InsideColorFill" data-item-index="4" data-renderer-id="0" transform="translate(134, 195)"><g id="pick_1qapxa9tqcsue-stroke" fill="none" stroke-linecap="round" stroke-linejoin="round" stroke-miterlimit="4" stroke="#886AFF" stroke-width="2"><g><path d="M 18.636 25.79C 18.635701 27.665217 20.155782 29.18554 22.031 29.18554C 23.906218 29.18554 25.426298 27.665217 25.426 25.79C 25.426298 23.914782 23.906218 22.394459 22.031 22.394459C 20.155782 22.394459 18.635701 23.914782 18.636 25.79M 16.826 33.5C 17.611163 31.341536 19.646989 29.891577 21.943535 29.85518C 24.24008 29.818784 26.320831 31.203501 27.174 33.336M 12.898 26.997C 12.898 28.205399 13.877601 29.185 15.086 29.185C 16.294399 29.185 17.274 28.205399 17.274 26.997C 17.274 25.788601 16.294399 24.809 15.086 24.809C 13.877601 24.809 12.898 25.788601 12.898 26.997M 17.723 31.919C 16.970649 31.329149 16.04201 31.009038 15.086 31.010001C 13.465482 31.014337 11.983822 31.925653 11.249 33.369998M 26.726 26.997C 26.726 28.205399 27.705601 29.185 28.914 29.185C 30.122399 29.185 31.102 28.205399 31.102 26.997C 31.102 25.788601 30.122399 24.809 28.914 24.809C 27.705601 24.809 26.726 25.788601 26.726 26.997M 32.751 33.37C 32.016177 31.925653 30.534517 31.014337 28.913999 31.009999C 27.974224 31.00794 27.06013 31.316622 26.314 31.888M 28.5 10.5L 24.856 10.6C 24.188651 10.61885 23.543202 10.842261 23.007 11.24L 19.52 13.827C 18.787645 14.371571 18.259403 15.146325 18.02 16.027L 17.42 18.242C 17.181648 18.921251 17.17883 19.660953 17.412 20.342C 17.776444 21.054274 18.611009 21.387844 19.366 21.123C 19.810126 20.981563 20.15018 20.621484 20.266 20.17L 21.014 17.042C 21.136732 16.751936 21.343202 16.505078 21.607 16.333L 24.112 14.7C 24.578941 14.394567 25.171922 14.356604 25.674 14.6C 26.074 14.8 26.78 15.186 26.936 15.586C 27.244281 16.220042 27.134932 16.977956 26.659999 17.499L 24.785 19.328C 24.210102 19.852698 24.114199 20.722674 24.561 21.36C 25.136 22.045 25.944 21.642 26.69 21.126L 30.06 18.794C 30.354733 18.589184 30.572042 18.291221 30.677 17.948L 31.377 15.659"></path></g></g></g><g id="g-root-1_v8lvi9tqctmo-stroke" data-item-order="1000000000" data-item-id="1_v8lvi9tqctmo" data-item-class="Icon Stroke Indexed InsideFill InsideColorFill" data-item-index="2" data-renderer-id="0" transform="translate(434, 195)"><g id="1_v8lvi9tqctmo-stroke" fill="none" stroke-linecap="round" stroke-linejoin="round" stroke-miterlimit="4" stroke="#A8DD38" stroke-width="2"><g><path d="M 27.5 33.5L 27.5 30.833C 27.499449 28.992465 26.007537 27.500553 24.167001 27.500001L 22.5 27.5L 22.5 23C 22.5 22.171573 21.828427 21.5 21 21.5C 20.171573 21.5 19.5 22.171573 19.5 23L 19.5 30L 18.211 28.92C 17.769172 28.389254 16.980746 28.317172 16.45 28.759C 15.919254 29.200827 15.847172 29.989254 16.289 30.52L 18.768 33.5M 28.25 17.249C 28.250001 18.215499 29.033503 18.999 30.000001 18.999C 30.966499 18.999 31.750001 18.215499 31.750001 17.249C 31.750001 16.282502 30.966499 15.499 30.000001 15.499C 29.033503 15.499 28.250001 16.282502 28.250001 17.249ZM 33.5 22.5C 33.092027 20.900092 31.651106 19.780493 30 19.780493C 28.348895 19.780493 26.907974 20.900092 26.5 22.5ZM 12.25 17.249C 12.25 18.215499 13.033502 18.999 14 18.999C 14.966498 18.999 15.75 18.215499 15.75 17.249C 15.75 16.282502 14.966498 15.499 14 15.499C 13.033502 15.499 12.25 16.282502 12.25 17.249ZM 17.5 22.5C 17.092027 20.900092 15.651106 19.780493 14 19.780493C 12.348894 19.780493 10.907973 20.900092 10.5 22.5ZM 20.25 14.249C 20.250001 15.215499 21.033502 15.999 22.000001 15.999C 22.966499 15.999 23.750001 15.215499 23.750001 14.249C 23.750001 13.282502 22.966499 12.499 22.000001 12.499C 21.033502 12.499 20.250001 13.282502 20.250001 14.249ZM 25.5 19.5C 25.092027 17.900092 23.651106 16.780493 22 16.780493C 20.348895 16.780493 18.907974 17.900092 18.5 19.5ZM 16.5 13.499L 18.5 13.499M 17.728 10.499L 19.383 11.621M 26.272 10.499L 24.617 11.621M 25.5 13.499L 27.5 13.499"></path></g></g></g><g id="g-root-tx_companie_m97uf5tqcs94-stroke" data-item-order="1000000000" data-item-id="tx_companie_m97uf5tqcs94" data-item-class="Label Stroke Indexed ColorStrokeGray" data-item-index="2" data-renderer-id="0" transform="translate(482, 195)"></g><g id="g-root-resu_1448vr5tqcs27-stroke" data-item-order="1000000000" data-item-id="resu_1448vr5tqcs27" data-item-class="Icon Stroke Indexed InsideFill InsideColorFill" data-item-index="3" data-renderer-id="0" transform="translate(284, 303)"><g id="resu_1448vr5tqcs27-stroke" fill="none" stroke-linecap="round" stroke-linejoin="round" stroke-miterlimit="4" stroke="#1AC6FF" stroke-width="2"><g><path d="M 17.764 26.587L 11 26.587L 11 15.747L 15.788 10.959L 23.13 10.959L 23.13 14.875M 13.616 22.736L 16.744 22.736M 13.616 19.859L 17.425 19.859M 30.25 24.236C 30.250486 26.073242 28.761242 27.56288 26.923999 27.56288C 25.086756 27.56288 23.597513 26.073242 23.597999 24.235999M 32.956 33.018C 32.14489 30.407667 29.733433 28.625796 27 28.617L 26.925 28.617C 24.182288 28.626212 21.764964 30.41975 20.961001 33.042001M 26.879 16.537L 20.315 19.458L 26.905001 22.327L 33 19.511L 26.879 16.537ZM 21.019 19.971L 21.019 23.18M 11 15.747L 15.788 15.747L 15.788 10.959M 23.598 21.082L 23.598 24.236L 30.25 24.236L 30.25 21.082"></path></g></g></g><g id="g-root-tx_industry_zkocshtqcqo7-stroke" data-item-order="1000000000" data-item-id="tx_industry_zkocshtqcqo7" data-item-class="Label Stroke Indexed ColorStrokeGray" data-item-index="3" data-renderer-id="0" transform="translate(242, 351)"></g></g></g></svg>