<?xml version="1.0" encoding="utf-8" standalone="yes"?>
<!DOCTYPE svg PUBLIC "-//W3C//DTD SVG 1.1//EN" "http://www.w3.org/Graphics/SVG/1.1/DTD/svg11.dtd">
<svg width="338" height="503" viewBox="0 0 338 503" style="fill:none;stroke:none;fill-rule:evenodd;clip-rule:evenodd;stroke-linecap:round;stroke-linejoin:round;stroke-miterlimit:1.5;" version="1.1" xmlns="http://www.w3.org/2000/svg" xmlns:xlink="http://www.w3.org/1999/xlink"><g id="items" style="isolation: isolate"><g id="blend" style="mix-blend-mode:normal"><g id="g-root--1.cu_sy_1lt0n5unwcvf0-fill" data-item-order="999851436" data-item-id="-1.cu_sy_1lt0n5unwcvf0" data-item-class="Part Fill Stroke ColorFillBlack ColorStrokeBlack" data-item-index="-1" data-renderer-id="0" transform="translate(63, 92.69580078125)"><g id="-1.cu_sy_1lt0n5unwcvf0-fill" stroke="none" fill="#434343"><g><path d="M 45.999987 10C 64.470184 11.4847 84.738384 12.3046 105.999984 12.3046C 127.261584 12.3046 147.529984 11.4847 165.999984 10.000009L 165.999984 65.3047C 165.999984 71.6419 139.137084 76.7791 105.999984 76.7791C 72.862884 76.7791 45.999984 71.6419 45.999984 65.3047L 45.999987 10ZM 45.999979 106.024902C 64.470177 107.509602 84.738377 108.329502 105.999977 108.329502C 127.261577 108.329502 147.529977 107.509602 165.999977 106.024912L 165.999977 161.329602C 165.999977 167.666802 139.137077 172.804002 105.999977 172.804002C 72.862877 172.804002 45.999977 167.666802 45.999977 161.329602L 45.999979 106.024902ZM 45.999995 202.049804C 64.470192 203.534504 84.738392 204.354404 105.999992 204.354404C 127.261592 204.354404 147.529992 203.534504 165.999992 202.049814L 165.999992 257.354504C 165.999992 263.691704 139.137092 268.828904 105.999992 268.828904C 72.862892 268.828904 45.999992 263.691704 45.999992 257.354504L 45.999995 202.049804ZM 46 298.304199C 64.4702 299.788899 84.7384 300.608799 106 300.608799C 127.262 300.608799 147.53 299.788899 166 298.304209L 166 324.483899L 202 324.483899L 106 396.483899L 10 324.483899L 46 324.483899L 46 298.304199Z"></path></g></g></g><g id="g-root-4.cu_sy_1d14hfmnwcu89-fill" data-item-order="999851438" data-item-id="4.cu_sy_1d14hfmnwcu89" data-item-class="Part Indexed Fill Stroke" data-item-index="4" data-renderer-id="0" transform="translate(3, 313.3045654296875)"><g id="4.cu_sy_1d14hfmnwcu89-fill" stroke="none" fill="#FFE60A"><g><path d="M 322.000002 37.7655L 322.000002 49.6254C 322.000002 66.2326 252.156002 79.6954 166.000002 79.6954C 79.843602 79.6954 10.000001 66.2326 10.000002 49.6254L 10.000002 37.7655C 10.000003 25.2565 49.625202 14.5316 106.000002 10L 106.000002 36.7457C 106.000002 43.0829 132.863002 48.2202 166.000002 48.2202C 199.137002 48.2202 226.000002 43.0829 226.000002 36.7458L 226.000002 10.000009C 282.375002 14.5316 322.000002 25.2566 322.000002 37.7655Z"></path></g></g></g><g id="g-root-3.cu_sy_1qbyipunwcvt4-fill" data-item-order="999851440" data-item-id="3.cu_sy_1qbyipunwcvt4" data-item-class="Part Indexed Fill Stroke" data-item-index="3" data-renderer-id="0" transform="translate(3, 217.3045654296875)"><g id="3.cu_sy_1qbyipunwcvt4-fill" stroke="none" fill="#A8DD38"><g><path d="M 322.000003 37.7655L 322.000003 49.6254C 322.000003 66.2326 252.156003 79.6954 166.000003 79.6954C 79.843603 79.6954 10.000002 66.2326 10.000003 49.6254L 10.000003 37.7655C 10.000004 25.2565 49.625203 14.5316 106.000003 10L 106.000003 36.7208C 106.000003 43.058 132.863003 48.1953 166.000003 48.1953C 199.137003 48.1953 226.000003 43.058 226.000003 36.7209L 226.000003 10.000009C 282.375003 14.5316 322.000003 25.2566 322.000003 37.7655Z"></path></g></g></g><g id="g-root-2.cu_sy_91i05enwcwsv-fill" data-item-order="999851442" data-item-id="2.cu_sy_91i05enwcwsv" data-item-class="Part Indexed Fill Stroke" data-item-index="2" data-renderer-id="0" transform="translate(3, 121.3045654296875)"><g id="2.cu_sy_91i05enwcwsv-fill" stroke="none" fill="#44E095"><g><path d="M 322.000003 37.7655L 322.000003 49.6254C 322.000003 66.2326 252.156003 79.6954 166.000003 79.6954C 79.843603 79.6954 10.000002 66.2326 10.000003 49.6254L 10.000003 37.7655C 10.000004 25.2565 49.625203 14.5316 106.000003 10L 106.000003 36.6959C 106.000003 43.0331 132.863003 48.1704 166.000003 48.1704C 199.137003 48.1704 226.000003 43.0331 226.000003 36.696L 226.000003 10.000009C 282.375003 14.5316 322.000003 25.2566 322.000003 37.7655Z"></path></g></g></g><g id="g-root-1.cu_sy_v8lirmnwcufa-fill" data-item-order="999851444" data-item-id="1.cu_sy_v8lirmnwcufa" data-item-class="Part Indexed Indexed_1 Fill Stroke" data-item-index="1" data-renderer-id="0" transform="translate(3, 23)"><g id="1.cu_sy_v8lirmnwcufa-fill" stroke="none" fill="#1AC6FF"><g><path d="M 166 70.140108C 79.8436 70.140108 10 56.677308 10 40.070008C 10 23.462808 79.8436 10.000002 166 10.000008C 252.156 10.000014 322 23.462808 322 40.070108C 322 56.677308 252.156 70.140108 166 70.140108ZM 10.000002 51.929908C 10.000002 68.537208 79.8436 82.000008 166 82.000008C 252.156 82.000008 322 68.537208 322 51.930008L 322 40.070108C 322 56.677308 252.156 70.140108 166 70.140108C 79.8436 70.140108 10 56.677308 10 40.070008L 10.000002 51.929908Z"></path></g></g></g><g id="g-root-0.cu_sy_1qa33ginwcwst-fill" data-item-order="999851446" data-item-id="0.cu_sy_1qa33ginwcwst" data-item-class="Part Indexed_0 Fill Stroke ColorFillGray ColorStrokeGray" data-item-index="0" data-renderer-id="0" transform="translate(20, 3)"><g id="0.cu_sy_1qa33ginwcwst-fill" stroke="none" fill="#8e8e8e"><g><path d="M 52.999998 150.8432C 52.999998 150.2322 53.291598 149.6658 53.711698 149.2221C 55.105298 147.7501 55.999998 145.5717 55.999998 143.5C 55.999998 139.9101 53.313698 137 49.999998 137C 46.686298 137 43.999998 139.9101 43.999998 143.5C 43.999998 145.5717 44.894698 147.7501 46.288298 149.2221C 46.708398 149.6658 46.999998 150.2322 46.999998 150.8432L 46.999998 151C 46.999998 152.1046 46.104598 153 44.999998 153L 43.999998 153C 40.686298 153 37.999998 155.6863 37.999998 159L 37.999998 163C 37.999998 164.1046 43.372598 165 49.999998 165C 56.627398 165 61.999998 164.1046 61.999998 163L 61.999998 159C 61.999998 155.6863 59.313698 153 55.999998 153L 54.999998 153C 53.895398 153 52.999998 152.1046 52.999998 151L 52.999998 150.8432ZM 245.000006 150.843201C 245.000006 150.232193 244.708411 149.665802 244.288306 149.222107C 242.89472 147.750107 242.000006 145.571701 242.000006 143.5C 242.000006 139.910095 244.686316 137 248.000006 137C 251.313696 137 254.000006 139.910095 254.000006 143.5C 254.000006 145.571701 253.105292 147.750107 251.711706 149.222107C 251.291601 149.665802 251.000006 150.232193 251.000006 150.843201L 251.000006 151C 251.000006 152.104599 251.895392 153 253.000006 153L 254.000006 153C 257.313696 153 260.000006 155.686295 260.000006 159L 260.000006 163C 260.000006 164.104599 254.627417 165 248.000006 165C 241.372595 165 236.000006 164.104599 236.000006 163L 236.000006 159C 236.000006 155.686295 238.686316 153 242.000006 153L 243.000006 153C 244.10462 153 245.000006 152.104599 245.000006 151L 245.000006 150.843201ZM 25 133.8432C 25 133.2322 25.2916 132.6658 25.7117 132.2221C 27.1053 130.7501 28 128.5717 28 126.5C 28 122.9101 25.3137 120 22 120C 18.6863 120 16 122.9101 16 126.5C 16 128.5717 16.8947 130.7501 18.2883 132.2221C 18.7084 132.6658 19 133.2322 19 133.8432L 19 134C 19 135.1046 18.1046 136 17 136L 16 136C 12.6863 136 10 138.6863 10 142L 10 146C 10 147.1046 15.3726 148 22 148C 28.6274 148 34 147.1046 34 146L 34 142C 34 138.6863 31.3137 136 28 136L 27 136C 25.8954 136 25 135.1046 25 134L 25 133.8432ZM 273.000006 133.843201C 273.000006 133.232193 272.708411 132.665802 272.288306 132.222107C 270.89472 130.750107 270.000006 128.571701 270.000006 126.5C 270.000006 122.910095 272.686316 120 276.000006 120C 279.313696 120 282.000006 122.910095 282.000006 126.5C 282.000006 128.571701 281.105292 130.750107 279.711706 132.222107C 279.291601 132.665802 279.000006 133.232193 279.000006 133.843201L 279.000006 134C 279.000006 135.104599 279.895392 136 281.000006 136L 282.000006 136C 285.313696 136 288.000006 138.686295 288.000006 142L 288.000006 146C 288.000006 147.104599 282.627417 148 276.000006 148C 269.372595 148 264.000006 147.104599 264.000006 146L 264.000006 142C 264.000006 138.686295 266.686316 136 270.000006 136L 271.000006 136C 272.10462 136 273.000006 135.104599 273.000006 134L 273.000006 133.843201ZM 73.999998 123.8432C 73.999998 123.2322 74.291598 122.6658 74.711698 122.2221C 76.105298 120.7501 76.999998 118.5717 76.999998 116.5C 76.999998 112.9101 74.313698 110 70.999998 110C 67.686298 110 64.999998 112.9101 64.999998 116.5C 64.999998 118.5717 65.894698 120.7501 67.288298 122.2221C 67.708398 122.6658 67.999998 123.2322 67.999998 123.8432L 67.999998 124C 67.999998 125.1046 67.104598 126 65.999998 126L 64.999998 126C 61.686298 126 58.999998 128.6863 58.999998 132L 58.999998 136C 58.999998 137.1046 64.372598 138 70.999998 138C 77.627398 138 82.999998 137.1046 82.999998 136L 82.999998 132C 82.999998 128.6863 80.313698 126 76.999998 126L 75.999998 126C 74.895398 126 73.999998 125.1046 73.999998 124L 73.999998 123.8432ZM 224.000006 123.843201C 224.000006 123.232193 223.708411 122.665802 223.288306 122.222107C 221.894705 120.750107 221.000006 118.571701 221.000006 116.5C 221.000006 112.910095 223.686301 110 227.000006 110C 230.313711 110 233.000006 112.910095 233.000006 116.5C 233.000006 118.571701 232.105307 120.750107 230.711706 122.222107C 230.291601 122.665802 230.000006 123.232193 230.000006 123.843201L 230.000006 124C 230.000006 125.104599 230.895407 126 232.000006 126L 233.000006 126C 236.313711 126 239.000006 128.686295 239.000006 132L 239.000006 136C 239.000006 137.104599 233.627402 138 227.000006 138C 220.37261 138 215.000006 137.104599 215.000006 136L 215.000006 132C 215.000006 128.686295 217.686301 126 221.000006 126L 222.000006 126C 223.104605 126 224.000006 125.104599 224.000006 124L 224.000006 123.843201ZM 91.999998 159.8432C 91.999998 159.2322 92.291598 158.6658 92.711698 158.2221C 94.105298 156.7501 94.999998 154.5717 94.999998 152.5C 94.999998 148.9101 92.313698 146 88.999998 146C 85.686298 146 82.999998 148.9101 82.999998 152.5C 82.999998 154.5717 83.894698 156.7501 85.288298 158.2221C 85.708398 158.6658 85.999998 159.2322 85.999998 159.8432L 85.999998 160C 85.999998 161.1046 85.104598 162 83.999998 162L 82.999998 162C 79.686298 162 76.999998 164.6863 76.999998 168L 76.999998 172C 76.999998 173.1046 82.372598 174 88.999998 174C 95.627398 174 100.999998 173.1046 100.999998 172L 100.999998 168C 100.999998 164.6863 98.313698 162 94.999998 162L 93.999998 162C 92.895398 162 91.999998 161.1046 91.999998 160L 91.999998 159.8432ZM 206.000006 159.843201C 206.000006 159.232193 205.708411 158.665802 205.288306 158.222107C 203.894705 156.750107 203.000006 154.571701 203.000006 152.5C 203.000006 148.910095 205.686301 146 209.000006 146C 212.313711 146 215.000006 148.910095 215.000006 152.5C 215.000006 154.571701 214.105307 156.750107 212.711706 158.222107C 212.291601 158.665802 212.000006 159.232193 212.000006 159.843201L 212.000006 160C 212.000006 161.104599 212.895407 162 214.000006 162L 215.000006 162C 218.313711 162 221.000006 164.686295 221.000006 168L 221.000006 172C 221.000006 173.104599 215.627402 174 209.000006 174C 202.37261 174 197.000006 173.104599 197.000006 172L 197.000006 168C 197.000006 164.686295 199.686301 162 203.000006 162L 204.000006 162C 205.104605 162 206.000006 161.104599 206.000006 160L 206.000006 159.843201ZM 146.000006 161.843201C 146.000006 161.232193 145.708411 160.665802 145.288306 160.222107C 143.894705 158.750107 143.000006 156.571701 143.000006 154.5C 143.000006 150.910095 145.686301 148 149.000006 148C 152.313711 148 155.000006 150.910095 155.000006 154.5C 155.000006 156.571701 154.105307 158.750107 152.711706 160.222107C 152.291601 160.665802 152.000006 161.232193 152.000006 161.843201L 152.000006 162C 152.000006 163.104599 152.895407 164 154.000006 164L 155.000006 164C 158.313711 164 161.000006 166.686295 161.000006 170L 161.000006 174C 161.000006 175.104599 155.627402 176 149.000006 176C 142.37261 176 137.000006 175.104599 137.000006 174L 137.000006 170C 137.000006 166.686295 139.686301 164 143.000006 164L 144.000006 164C 145.104605 164 146.000006 163.104599 146.000006 162L 146.000006 161.843201ZM 47.999998 58.8432C 47.999998 58.2322 48.291598 57.6658 48.711698 57.2221C 50.105298 55.7501 50.999998 53.5717 50.999998 51.5C 50.999998 47.9101 48.313698 45 44.999998 45C 41.686298 45 38.999998 47.9101 38.999998 51.5C 38.999998 53.5717 39.894698 55.7501 41.288298 57.2221C 41.708398 57.6658 41.999998 58.2322 41.999998 58.8432L 41.999998 59C 41.999998 60.1046 41.104598 61 39.999998 61L 38.999998 61C 35.686298 61 32.999998 63.6863 32.999998 67L 32.999998 71C 32.999998 72.1046 38.372598 73 44.999998 73C 51.627398 73 56.999998 72.1046 56.999998 71L 56.999998 67C 56.999998 63.6863 54.313698 61 50.999998 61L 49.999998 61C 48.895398 61 47.999998 60.1046 47.999998 59L 47.999998 58.8432ZM 250.000006 58.843201C 250.000006 58.232193 249.708411 57.665802 249.288306 57.222107C 247.89472 55.750107 247.000006 53.571701 247.000006 51.5C 247.000006 47.910103 249.686316 45 253.000006 45C 256.313696 45 259.000006 47.910103 259.000006 51.5C 259.000006 53.571701 258.105292 55.750107 256.711706 57.222107C 256.291601 57.665802 256.000006 58.232193 256.000006 58.843201L 256.000006 59C 256.000006 60.104599 256.895392 61 258.000006 61L 259.000006 61C 262.313696 61 265.000006 63.686295 265.000006 67L 265.000006 71C 265.000006 72.104599 259.627417 73 253.000006 73C 246.372595 73 241.000006 72.104599 241.000006 71L 241.000006 67C 241.000006 63.686295 243.686316 61 247.000006 61L 248.000006 61C 249.10462 61 250.000006 60.104599 250.000006 59L 250.000006 58.843201ZM 25 41.8432C 25 41.2322 25.2916 40.6658 25.7117 40.2221C 27.1053 38.7501 28 36.5717 28 34.5C 28 30.9101 25.3137 28 22 28C 18.6863 28 16 30.9101 16 34.5C 16 36.5717 16.8947 38.7501 18.2883 40.2221C 18.7084 40.6658 19 41.2322 19 41.8432L 19 42C 19 43.1046 18.1046 44 17 44L 16 44C 12.6863 44 10 46.6863 10 50L 10 54C 10 55.1046 15.3726 56 22 56C 28.6274 56 34 55.1046 34 54L 34 50C 34 46.6863 31.3137 44 28 44L 27 44C 25.8954 44 25 43.1046 25 42L 25 41.8432ZM 273.000006 41.843201C 273.000006 41.232201 272.708411 40.665802 272.288306 40.222099C 270.89472 38.750099 270.000006 36.571701 270.000006 34.5C 270.000006 30.910103 272.686316 28 276.000006 28C 279.313696 28 282.000006 30.910103 282.000006 34.5C 282.000006 36.571701 281.105292 38.750099 279.711706 40.222099C 279.291601 40.665802 279.000006 41.232201 279.000006 41.843201L 279.000006 42C 279.000006 43.104599 279.895392 44 281.000006 44L 282.000006 44C 285.313696 44 288.000006 46.686302 288.000006 50L 288.000006 54C 288.000006 55.104599 282.627417 56 276.000006 56C 269.372595 56 264.000006 55.104599 264.000006 54L 264.000006 50C 264.000006 46.686302 266.686316 44 270.000006 44L 271.000006 44C 272.10462 44 273.000006 43.104599 273.000006 42L 273.000006 41.843201ZM 67.999998 33.8432C 67.999998 33.2322 68.291598 32.6658 68.711698 32.2221C 70.105298 30.7501 70.999998 28.5717 70.999998 26.5C 70.999998 22.9101 68.313698 20 64.999998 20C 61.686298 20 58.999998 22.9101 58.999998 26.5C 58.999998 28.5717 59.894698 30.7501 61.288298 32.2221C 61.708398 32.6658 61.999998 33.2322 61.999998 33.8432L 61.999998 34C 61.999998 35.1046 61.104598 36 59.999998 36L 58.999998 36C 55.686298 36 52.999998 38.6863 52.999998 42L 52.999998 46C 52.999998 47.1046 58.372598 48 64.999998 48C 71.627398 48 76.999998 47.1046 76.999998 46L 76.999998 42C 76.999998 38.6863 74.313698 36 70.999998 36L 69.999998 36C 68.895398 36 67.999998 35.1046 67.999998 34L 67.999998 33.8432ZM 96.999998 29.8432C 96.999998 29.2322 97.291598 28.6658 97.711698 28.2221C 99.105298 26.7501 99.999998 24.5717 99.999998 22.5C 99.999998 18.9101 97.313698 16 93.999998 16C 90.686298 16 87.999998 18.9101 87.999998 22.5C 87.999998 24.5717 88.894698 26.7501 90.288298 28.2221C 90.708398 28.6658 90.999998 29.2322 90.999998 29.8432L 90.999998 30C 90.999998 31.1046 90.104598 32 88.999998 32L 87.999998 32C 84.686298 32 81.999998 34.6863 81.999998 38L 81.999998 42C 81.999998 43.1046 87.372598 44 93.999998 44C 100.627398 44 105.999998 43.1046 105.999998 42L 105.999998 38C 105.999998 34.6863 103.313698 32 99.999998 32L 98.999998 32C 97.895398 32 96.999998 31.1046 96.999998 30L 96.999998 29.8432ZM 207.000006 29.8432C 207.000006 29.2322 207.291606 28.6658 207.711706 28.2221C 209.105306 26.7501 210.000006 24.5717 210.000006 22.5C 210.000006 18.9101 207.313706 16 204.000006 16C 200.686306 16 198.000006 18.9101 198.000006 22.5C 198.000006 24.5717 198.894706 26.7501 200.288306 28.2221C 200.708406 28.6658 201.000006 29.2322 201.000006 29.8432L 201.000006 30C 201.000006 31.1046 200.104606 32 199.000006 32L 198.000006 32C 194.686306 32 192.000006 34.6863 192.000006 38L 192.000006 42C 192.000006 43.1046 197.372606 44 204.000006 44C 210.627406 44 216.000006 43.1046 216.000006 42L 216.000006 38C 216.000006 34.6863 213.313706 32 210.000006 32L 209.000006 32C 207.895406 32 207.000006 31.1046 207.000006 30L 207.000006 29.8432ZM 152.000006 23.8432C 152.000006 23.2322 152.291606 22.6658 152.711706 22.2221C 154.105306 20.7501 155.000006 18.5717 155.000006 16.5C 155.000006 12.9101 152.313706 10 149.000006 10C 145.686306 10 143.000006 12.9101 143.000006 16.5C 143.000006 18.5717 143.894706 20.7501 145.288306 22.2221C 145.708406 22.6658 146.000006 23.2322 146.000006 23.8432L 146.000006 24C 146.000006 25.1046 145.104606 26 144.000006 26L 143.000006 26C 139.686306 26 137.000006 28.6863 137.000006 32L 137.000006 36C 137.000006 37.1046 142.372606 38 149.000006 38C 155.627406 38 161.000006 37.1046 161.000006 36L 161.000006 32C 161.000006 28.6863 158.313706 26 155.000006 26L 154.000006 26C 152.895406 26 152.000006 25.1046 152.000006 24L 152.000006 23.8432ZM 126.000006 34.8432C 126.000006 34.2322 126.291606 33.6658 126.711706 33.2221C 128.105306 31.7501 129.000006 29.5717 129.000006 27.5C 129.000006 23.9101 126.313706 21 123.000006 21C 119.686306 21 117.000006 23.9101 117.000006 27.5C 117.000006 29.5717 117.894706 31.7501 119.288306 33.2221C 119.708406 33.6658 120.000006 34.2322 120.000006 34.8432L 120.000006 35C 120.000006 36.1046 119.104606 37 118.000006 37L 117.000006 37C 113.686306 37 111.000006 39.6863 111.000006 43L 111.000006 47C 111.000006 48.1046 116.372606 49 123.000006 49C 129.627406 49 135.000006 48.1046 135.000006 47L 135.000006 43C 135.000006 39.6863 132.313706 37 129.000006 37L 128.000006 37C 126.895406 37 126.000006 36.1046 126.000006 35L 126.000006 34.8432ZM 178.000006 34.8432C 178.000006 34.2322 178.291606 33.6658 178.711706 33.2221C 180.105306 31.7501 181.000006 29.5717 181.000006 27.5C 181.000006 23.9101 178.313706 21 175.000006 21C 171.686306 21 169.000006 23.9101 169.000006 27.5C 169.000006 29.5717 169.894706 31.7501 171.288306 33.2221C 171.708406 33.6658 172.000006 34.2322 172.000006 34.8432L 172.000006 35C 172.000006 36.1046 171.104606 37 170.000006 37L 169.000006 37C 165.686306 37 163.000006 39.6863 163.000006 43L 163.000006 47C 163.000006 48.1046 168.372606 49 175.000006 49C 181.627406 49 187.000006 48.1046 187.000006 47L 187.000006 43C 187.000006 39.6863 184.313706 37 181.000006 37L 180.000006 37C 178.895406 37 178.000006 36.1046 178.000006 35L 178.000006 34.8432ZM 230.000006 33.843201C 230.000006 33.232201 229.708411 32.665802 229.288306 32.222099C 227.894705 30.750099 227.000006 28.571701 227.000006 26.5C 227.000006 22.910103 229.686301 20 233.000006 20C 236.313711 20 239.000006 22.910103 239.000006 26.5C 239.000006 28.571701 238.105292 30.750099 236.711706 32.222099C 236.291601 32.665802 236.000006 33.232201 236.000006 33.843201L 236.000006 34C 236.000006 35.104599 236.895407 36 238.000006 36L 239.000006 36C 242.313696 36 245.000006 38.686302 245.000006 42L 245.000006 46C 245.000006 47.104599 239.627417 48 233.000006 48C 226.37261 48 221.000006 47.104599 221.000006 46L 221.000006 42C 221.000006 38.686302 223.686301 36 227.000006 36L 228.000006 36C 229.104605 36 230.000006 35.104599 230.000006 34L 230.000006 33.843201ZM 115.999998 67.8432C 115.999998 67.2322 116.291598 66.6658 116.711698 66.2221C 118.105298 64.7501 118.999998 62.5717 118.999998 60.5C 118.999998 56.9101 116.313698 54 112.999998 54C 109.686298 54 106.999998 56.9101 106.999998 60.5C 106.999998 62.5717 107.894698 64.7501 109.288298 66.2221C 109.708398 66.6658 109.999998 67.2322 109.999998 67.8432L 109.999998 68C 109.999998 69.1046 109.104598 70 107.999998 70L 106.999998 70C 103.686298 70 100.999998 72.6863 100.999998 76L 100.999998 80C 100.999998 81.1046 106.372598 82 112.999998 82C 119.627398 82 124.999998 81.1046 124.999998 80L 124.999998 76C 124.999998 72.6863 122.313698 70 118.999998 70L 117.999998 70C 116.895398 70 115.999998 69.1046 115.999998 68L 115.999998 67.8432ZM 188.000006 67.8432C 188.000006 67.2322 188.291606 66.6658 188.711706 66.2221C 190.105306 64.7501 191.000006 62.5717 191.000006 60.5C 191.000006 56.9101 188.313706 54 185.000006 54C 181.686306 54 179.000006 56.9101 179.000006 60.5C 179.000006 62.5717 179.894706 64.7501 181.288306 66.2221C 181.708406 66.6658 182.000006 67.2322 182.000006 67.8432L 182.000006 68C 182.000006 69.1046 181.104606 70 180.000006 70L 179.000006 70C 175.686306 70 173.000006 72.6863 173.000006 76L 173.000006 80C 173.000006 81.1046 178.372606 82 185.000006 82C 191.627406 82 197.000006 81.1046 197.000006 80L 197.000006 76C 197.000006 72.6863 194.313706 70 191.000006 70L 190.000006 70C 188.895406 70 188.000006 69.1046 188.000006 68L 188.000006 67.8432ZM 79.999998 64.8432C 79.999998 64.2322 80.291598 63.6658 80.711698 63.2221C 82.105298 61.7501 82.999998 59.5717 82.999998 57.5C 82.999998 53.9101 80.313698 51 76.999998 51C 73.686298 51 70.999998 53.9101 70.999998 57.5C 70.999998 59.5717 71.894698 61.7501 73.288298 63.2221C 73.708398 63.6658 73.999998 64.2322 73.999998 64.8432L 73.999998 65C 73.999998 66.1046 73.104598 67 71.999998 67L 70.999998 67C 67.686298 67 64.999998 69.6863 64.999998 73L 64.999998 77C 64.999998 78.1046 70.372598 79 76.999998 79C 83.627398 79 88.999998 78.1046 88.999998 77L 88.999998 73C 88.999998 69.6863 86.313698 67 82.999998 67L 81.999998 67C 80.895398 67 79.999998 66.1046 79.999998 65L 79.999998 64.8432ZM 218.000006 64.843201C 218.000006 64.232193 217.708411 63.665802 217.288306 63.222107C 215.894705 61.750107 215.000006 59.571701 215.000006 57.5C 215.000006 53.910095 217.686301 51 221.000006 51C 224.313711 51 227.000006 53.910095 227.000006 57.5C 227.000006 59.571701 226.105307 61.750107 224.711706 63.222107C 224.291601 63.665802 224.000006 64.232193 224.000006 64.843201L 224.000006 65C 224.000006 66.104599 224.895407 67 226.000006 67L 227.000006 67C 230.313711 67 233.000006 69.686295 233.000006 73L 233.000006 77C 233.000006 78.104599 227.627402 79 221.000006 79C 214.37261 79 209.000006 78.104599 209.000006 77L 209.000006 73C 209.000006 69.686295 211.686301 67 215.000006 67L 216.000006 67C 217.104605 67 218.000006 66.104599 218.000006 65L 218.000006 64.843201ZM 146.000006 61.843201C 146.000006 61.232193 145.708411 60.665802 145.288306 60.222107C 143.894705 58.750107 143.000006 56.571701 143.000006 54.5C 143.000006 50.910095 145.686301 48 149.000006 48C 152.313711 48 155.000006 50.910095 155.000006 54.5C 155.000006 56.571701 154.105307 58.750107 152.711706 60.222107C 152.291601 60.665802 152.000006 61.232193 152.000006 61.843201L 152.000006 62C 152.000006 63.104599 152.895407 64 154.000006 64L 155.000006 64C 158.313711 64 161.000006 66.686295 161.000006 70L 161.000006 74C 161.000006 75.104599 155.627402 76 149.000006 76C 142.37261 76 137.000006 75.104599 137.000006 74L 137.000006 70C 137.000006 66.686295 139.686301 64 143.000006 64L 144.000006 64C 145.104605 64 146.000006 63.104599 146.000006 62L 146.000006 61.843201ZM 31.999998 236.8432C 31.999998 236.2322 32.291598 235.6658 32.711698 235.2221C 34.105298 233.7501 34.999998 231.5717 34.999998 229.5C 34.999998 225.9101 32.313698 223 28.999998 223C 25.686298 223 22.999998 225.9101 22.999998 229.5C 22.999998 231.5717 23.894698 233.7501 25.288298 235.2221C 25.708398 235.6658 25.999998 236.2322 25.999998 236.8432L 25.999998 237C 25.999998 238.1046 25.104598 239 23.999998 239L 22.999998 239C 19.686298 239 16.999998 241.6863 16.999998 245L 16.999998 249C 16.999998 250.1046 22.372598 251 28.999998 251C 35.627398 251 40.999998 250.1046 40.999998 249L 40.999998 245C 40.999998 241.6863 38.313698 239 34.999998 239L 33.999998 239C 32.895398 239 31.999998 238.1046 31.999998 237L 31.999998 236.8432ZM 266.000006 236.843201C 266.000006 236.232208 265.708411 235.665802 265.288306 235.222107C 263.89472 233.750092 263.000006 231.571686 263.000006 229.5C 263.000006 225.910095 265.686316 223 269.000006 223C 272.313696 223 275.000006 225.910095 275.000006 229.5C 275.000006 231.571686 274.105292 233.750092 272.711706 235.222107C 272.291601 235.665802 272.000006 236.232208 272.000006 236.843201L 272.000006 237C 272.000006 238.104614 272.895392 239 274.000006 239L 275.000006 239C 278.313696 239 281.000006 241.68631 281.000006 245L 281.000006 249C 281.000006 250.104614 275.627417 251 269.000006 251C 262.372595 251 257.000006 250.104614 257.000006 249L 257.000006 245C 257.000006 241.68631 259.686316 239 263.000006 239L 264.000006 239C 265.10462 239 266.000006 238.104614 266.000006 237L 266.000006 236.843201ZM 79.999998 253.8432C 79.999998 253.2322 80.291598 252.6658 80.711698 252.2221C 82.105298 250.7501 82.999998 248.5717 82.999998 246.5C 82.999998 242.9101 80.313698 240 76.999998 240C 73.686298 240 70.999998 242.9101 70.999998 246.5C 70.999998 248.5717 71.894698 250.7501 73.288298 252.2221C 73.708398 252.6658 73.999998 253.2322 73.999998 253.8432L 73.999998 254C 73.999998 255.1046 73.104598 256 71.999998 256L 70.999998 256C 67.686298 256 64.999998 258.6863 64.999998 262L 64.999998 266C 64.999998 267.1046 70.372598 268 76.999998 268C 83.627398 268 88.999998 267.1046 88.999998 266L 88.999998 262C 88.999998 258.6863 86.313698 256 82.999998 256L 81.999998 256C 80.895398 256 79.999998 255.1046 79.999998 254L 79.999998 253.8432ZM 218.000006 253.843201C 218.000006 253.232208 217.708411 252.665802 217.288306 252.222107C 215.894705 250.750092 215.000006 248.571686 215.000006 246.5C 215.000006 242.910095 217.686301 240 221.000006 240C 224.313711 240 227.000006 242.910095 227.000006 246.5C 227.000006 248.571686 226.105307 250.750092 224.711706 252.222107C 224.291601 252.665802 224.000006 253.232208 224.000006 253.843201L 224.000006 254C 224.000006 255.104614 224.895407 256 226.000006 256L 227.000006 256C 230.313711 256 233.000006 258.68631 233.000006 262L 233.000006 266C 233.000006 267.104614 227.627402 268 221.000006 268C 214.37261 268 209.000006 267.104614 209.000006 266L 209.000006 262C 209.000006 258.68631 211.686301 256 215.000006 256L 216.000006 256C 217.104605 256 218.000006 255.104614 218.000006 254L 218.000006 253.843201ZM 146.000006 261.843201C 146.000006 261.232208 145.708411 260.665802 145.288306 260.222107C 143.894705 258.750092 143.000006 256.571686 143.000006 254.5C 143.000006 250.910095 145.686301 248 149.000006 248C 152.313711 248 155.000006 250.910095 155.000006 254.5C 155.000006 256.571686 154.105307 258.750092 152.711706 260.222107C 152.291601 260.665802 152.000006 261.232208 152.000006 261.843201L 152.000006 262C 152.000006 263.104614 152.895407 264 154.000006 264L 155.000006 264C 158.313711 264 161.000006 266.68631 161.000006 270L 161.000006 274C 161.000006 275.104614 155.627402 276 149.000006 276C 142.37261 276 137.000006 275.104614 137.000006 274L 137.000006 270C 137.000006 266.68631 139.686301 264 143.000006 264L 144.000006 264C 145.104605 264 146.000006 263.104614 146.000006 262L 146.000006 261.843201ZM 48.999998 341.8432C 48.999998 341.2322 49.291598 340.6658 49.711698 340.2221C 51.105298 338.7501 51.999998 336.5717 51.999998 334.5C 51.999998 330.9101 49.313698 328 45.999998 328C 42.686298 328 39.999998 330.9101 39.999998 334.5C 39.999998 336.5717 40.894698 338.7501 42.288298 340.2221C 42.708398 340.6658 42.999998 341.2322 42.999998 341.8432L 42.999998 342C 42.999998 343.1046 42.104598 344 40.999998 344L 39.999998 344C 36.686298 344 33.999998 346.6863 33.999998 350L 33.999998 354C 33.999998 355.1046 39.372598 356 45.999998 356C 52.627398 356 57.999998 355.1046 57.999998 354L 57.999998 350C 57.999998 346.6863 55.313698 344 51.999998 344L 50.999998 344C 49.895398 344 48.999998 343.1046 48.999998 342L 48.999998 341.8432ZM 249.000006 341.843201C 249.000006 341.232208 248.708411 340.665802 248.288306 340.222107C 246.89472 338.750092 246.000006 336.571686 246.000006 334.5C 246.000006 330.910095 248.686316 328 252.000006 328C 255.313696 328 258.000006 330.910095 258.000006 334.5C 258.000006 336.571686 257.105292 338.750092 255.711706 340.222107C 255.291601 340.665802 255.000006 341.232208 255.000006 341.843201L 255.000006 342C 255.000006 343.104614 255.895392 344 257.000006 344L 258.000006 344C 261.313696 344 264.000006 346.68631 264.000006 350L 264.000006 354C 264.000006 355.104614 258.627417 356 252.000006 356C 245.372595 356 240.000006 355.104614 240.000006 354L 240.000006 350C 240.000006 346.68631 242.686316 344 246.000006 344L 247.000006 344C 248.10462 344 249.000006 343.104614 249.000006 342L 249.000006 341.843201ZM 146.000006 357.843201C 146.000006 357.232208 145.708411 356.665802 145.288306 356.222107C 143.894705 354.750092 143.000006 352.571686 143.000006 350.5C 143.000006 346.910095 145.686301 344 149.000006 344C 152.313711 344 155.000006 346.910095 155.000006 350.5C 155.000006 352.571686 154.105307 354.750092 152.711706 356.222107C 152.291601 356.665802 152.000006 357.232208 152.000006 357.843201L 152.000006 358C 152.000006 359.104614 152.895407 360 154.000006 360L 155.000006 360C 158.313711 360 161.000006 362.68631 161.000006 366L 161.000006 370C 161.000006 371.104614 155.627402 372 149.000006 372C 142.37261 372 137.000006 371.104614 137.000006 370L 137.000006 366C 137.000006 362.68631 139.686301 360 143.000006 360L 144.000006 360C 145.104605 360 146.000006 359.104614 146.000006 358L 146.000006 357.843201Z"></path></g></g></g><g id="g-root--1.cu_sy_1lt0n5unwcvf0-stroke" data-item-order="999851436" data-item-id="-1.cu_sy_1lt0n5unwcvf0" data-item-class="Part Fill Stroke ColorFillBlack ColorStrokeBlack" data-item-index="-1" data-renderer-id="0" transform="translate(63, 92.69580078125)"><g id="-1.cu_sy_1lt0n5unwcvf0-stroke" fill="none" stroke-linecap="round" stroke-linejoin="round" stroke-miterlimit="4" stroke="#2C2C2C" stroke-width="2"><g><path d="M 45.999984 10C 64.470184 11.4847 84.738384 12.3046 105.999984 12.3046C 127.261584 12.3046 147.529784 11.4847 165.999984 10L 165.999984 65.3047C 165.999984 71.6419 139.137084 76.7791 105.999984 76.7791C 72.862884 76.7791 45.999984 71.6419 45.999984 65.3047L 45.999984 10ZM 45.999977 106.024902C 64.470177 107.509602 84.738377 108.329502 105.999977 108.329502C 127.261577 108.329502 147.529777 107.509602 165.999977 106.024902L 165.999977 161.329602C 165.999977 167.666802 139.137077 172.804002 105.999977 172.804002C 72.862877 172.804002 45.999977 167.666802 45.999977 161.329602L 45.999977 106.024902ZM 45.999992 202.049804C 64.470192 203.534504 84.738392 204.354404 105.999992 204.354404C 127.261592 204.354404 147.529792 203.534504 165.999992 202.049804L 165.999992 257.354504C 165.999992 263.691704 139.137092 268.828904 105.999992 268.828904C 72.862892 268.828904 45.999992 263.691704 45.999992 257.354504L 45.999992 202.049804ZM 46 298.304199C 64.4702 299.788899 84.7384 300.608799 106 300.608799C 127.2616 300.608799 147.5298 299.788899 166 298.304199L 166 324.483899L 202 324.483899L 106 396.483899L 10 324.483899L 46 324.483899L 46 298.304199Z"></path></g></g></g><g id="g-root-4.cu_sy_1d14hfmnwcu89-stroke" data-item-order="999851438" data-item-id="4.cu_sy_1d14hfmnwcu89" data-item-class="Part Indexed Fill Stroke" data-item-index="4" data-renderer-id="0" transform="translate(3, 313.3045654296875)"><g id="4.cu_sy_1d14hfmnwcu89-stroke" fill="none" stroke-linecap="round" stroke-linejoin="round" stroke-miterlimit="4" stroke="#2C2C2C" stroke-width="2"><g><path d="M 322.000002 37.7655L 322.000002 49.6254C 322.000002 66.2326 252.156402 79.6954 166.000002 79.6954C 79.843602 79.6954 10.000001 66.2326 10.000002 49.6254L 10.000002 37.7655C 10.000002 25.2565 49.625202 14.5316 106.000002 10L 106.000002 36.7457C 106.000002 43.0829 132.862902 48.2202 166.000002 48.2202C 199.137102 48.2202 226.000002 43.0829 226.000002 36.7458L 226.000002 10C 282.374802 14.5316 322.000002 25.2566 322.000002 37.7655ZM 10.000001 37.695312C 10 54.302512 79.843601 67.765412 166.000001 67.765412C 252.156401 67.765412 322.000001 54.302612 322.000001 37.695312"></path></g></g></g><g id="g-root-3.cu_sy_1qbyipunwcvt4-stroke" data-item-order="999851440" data-item-id="3.cu_sy_1qbyipunwcvt4" data-item-class="Part Indexed Fill Stroke" data-item-index="3" data-renderer-id="0" transform="translate(3, 217.3045654296875)"><g id="3.cu_sy_1qbyipunwcvt4-stroke" fill="none" stroke-linecap="round" stroke-linejoin="round" stroke-miterlimit="4" stroke="#2C2C2C" stroke-width="2"><g><path d="M 322.000003 37.7655L 322.000003 49.6254C 322.000003 66.2326 252.156403 79.6954 166.000003 79.6954C 79.843603 79.6954 10.000002 66.2326 10.000003 49.6254L 10.000003 37.7655C 10.000003 25.2565 49.625203 14.5316 106.000003 10L 106.000003 36.7208C 106.000003 43.058 132.862903 48.1953 166.000003 48.1953C 199.137103 48.1953 226.000003 43.058 226.000003 36.7209L 226.000003 10C 282.374803 14.5316 322.000003 25.2566 322.000003 37.7655ZM 10.000001 37.765625C 10 54.372825 79.843601 67.835725 166.000001 67.835725C 252.156401 67.835725 322.000001 54.372925 322.000001 37.765625"></path></g></g></g><g id="g-root-2.cu_sy_91i05enwcwsv-stroke" data-item-order="999851442" data-item-id="2.cu_sy_91i05enwcwsv" data-item-class="Part Indexed Fill Stroke" data-item-index="2" data-renderer-id="0" transform="translate(3, 121.3045654296875)"><g id="2.cu_sy_91i05enwcwsv-stroke" fill="none" stroke-linecap="round" stroke-linejoin="round" stroke-miterlimit="4" stroke="#2C2C2C" stroke-width="2"><g><path d="M 322.000003 37.7655L 322.000003 49.6254C 322.000003 66.2326 252.156403 79.6954 166.000003 79.6954C 79.843603 79.6954 10.000002 66.2326 10.000003 49.6254L 10.000003 37.7655C 10.000003 25.2565 49.625203 14.5316 106.000003 10L 106.000003 36.6959C 106.000003 43.0331 132.862903 48.1704 166.000003 48.1704C 199.137103 48.1704 226.000003 43.0331 226.000003 36.696L 226.000003 10C 282.374803 14.5316 322.000003 25.2566 322.000003 37.7655ZM 10.000001 37.695312C 10 54.302512 79.843601 67.765412 166.000001 67.765412C 252.156401 67.765412 322.000001 54.302612 322.000001 37.695312"></path></g></g></g><g id="g-root-1.cu_sy_v8lirmnwcufa-stroke" data-item-order="999851444" data-item-id="1.cu_sy_v8lirmnwcufa" data-item-class="Part Indexed Indexed_1 Fill Stroke" data-item-index="1" data-renderer-id="0" transform="translate(3, 23)"><g id="1.cu_sy_v8lirmnwcufa-stroke" fill="none" stroke-linecap="round" stroke-linejoin="round" stroke-miterlimit="4" stroke="#2C2C2C" stroke-width="2"><g><path d="M 166 70.140108C 79.8436 70.140108 10 56.677308 10 40.070008C 10 23.462808 79.8436 10.000008 166 10.000008C 252.1564 10.000008 322 23.462808 322 40.070108C 322 56.677308 252.1564 70.140108 166 70.140108ZM 10 51.929908C 10 68.537208 79.8436 82.000008 166 82.000008C 252.1564 82.000008 322 68.537208 322 51.930008L 322 40.070108C 322 56.677308 252.1564 70.140108 166 70.140108C 79.8436 70.140108 10 56.677308 10 40.070008L 10 51.929908Z"></path></g></g></g><g id="g-root-0.cu_sy_1qa33ginwcwst-stroke" data-item-order="999851446" data-item-id="0.cu_sy_1qa33ginwcwst" data-item-class="Part Indexed_0 Fill Stroke ColorFillGray ColorStrokeGray" data-item-index="0" data-renderer-id="0" transform="translate(20, 3)"><g id="0.cu_sy_1qa33ginwcwst-stroke" fill="none" stroke-linecap="round" stroke-linejoin="round" stroke-miterlimit="4" stroke="#2C2C2C" stroke-width="2"><g><path d="M 52.999998 150.8432C 52.999998 150.2322 53.291598 149.6658 53.711698 149.2221C 55.105298 147.7501 55.999998 145.5717 55.999998 143.5C 55.999998 139.9101 53.313698 137 49.999998 137C 46.686298 137 43.999998 139.9101 43.999998 143.5C 43.999998 145.5717 44.894698 147.7501 46.288298 149.2221C 46.708398 149.6658 46.999998 150.2322 46.999998 150.8432L 46.999998 151C 46.999998 152.1046 46.104598 153 44.999998 153L 43.999998 153C 40.686298 153 37.999998 155.6863 37.999998 159L 37.999998 163C 37.999998 164.1046 43.372598 165 49.999998 165C 56.627398 165 61.999998 164.1046 61.999998 163L 61.999998 159C 61.999998 155.6863 59.313698 153 55.999998 153L 54.999998 153C 53.895398 153 52.999998 152.1046 52.999998 151L 52.999998 150.8432ZM 245.000006 150.843201C 245.000006 150.232193 244.708411 149.665802 244.288306 149.222107C 242.89472 147.750107 242.000006 145.571701 242.000006 143.5C 242.000006 139.910095 244.686316 137 248.000006 137C 251.313696 137 254.000006 139.910095 254.000006 143.5C 254.000006 145.571701 253.105292 147.750107 251.711706 149.222107C 251.291601 149.665802 251.000006 150.232193 251.000006 150.843201L 251.000006 151C 251.000006 152.104599 251.895392 153 253.000006 153L 254.000006 153C 257.313696 153 260.000006 155.686295 260.000006 159L 260.000006 163C 260.000006 164.104599 254.627417 165 248.000006 165C 241.372595 165 236.000006 164.104599 236.000006 163L 236.000006 159C 236.000006 155.686295 238.686316 153 242.000006 153L 243.000006 153C 244.10462 153 245.000006 152.104599 245.000006 151L 245.000006 150.843201ZM 25 133.8432C 25 133.2322 25.2916 132.6658 25.7117 132.2221C 27.1053 130.7501 28 128.5717 28 126.5C 28 122.9101 25.3137 120 22 120C 18.6863 120 16 122.9101 16 126.5C 16 128.5717 16.8947 130.7501 18.2883 132.2221C 18.7084 132.6658 19 133.2322 19 133.8432L 19 134C 19 135.1046 18.1046 136 17 136L 16 136C 12.6863 136 10 138.6863 10 142L 10 146C 10 147.1046 15.3726 148 22 148C 28.6274 148 34 147.1046 34 146L 34 142C 34 138.6863 31.3137 136 28 136L 27 136C 25.8954 136 25 135.1046 25 134L 25 133.8432ZM 273.000006 133.843201C 273.000006 133.232193 272.708411 132.665802 272.288306 132.222107C 270.89472 130.750107 270.000006 128.571701 270.000006 126.5C 270.000006 122.910095 272.686316 120 276.000006 120C 279.313696 120 282.000006 122.910095 282.000006 126.5C 282.000006 128.571701 281.105292 130.750107 279.711706 132.222107C 279.291601 132.665802 279.000006 133.232193 279.000006 133.843201L 279.000006 134C 279.000006 135.104599 279.895392 136 281.000006 136L 282.000006 136C 285.313696 136 288.000006 138.686295 288.000006 142L 288.000006 146C 288.000006 147.104599 282.627417 148 276.000006 148C 269.372595 148 264.000006 147.104599 264.000006 146L 264.000006 142C 264.000006 138.686295 266.686316 136 270.000006 136L 271.000006 136C 272.10462 136 273.000006 135.104599 273.000006 134L 273.000006 133.843201ZM 73.999998 123.8432C 73.999998 123.2322 74.291598 122.6658 74.711698 122.2221C 76.105298 120.7501 76.999998 118.5717 76.999998 116.5C 76.999998 112.9101 74.313698 110 70.999998 110C 67.686298 110 64.999998 112.9101 64.999998 116.5C 64.999998 118.5717 65.894698 120.7501 67.288298 122.2221C 67.708398 122.6658 67.999998 123.2322 67.999998 123.8432L 67.999998 124C 67.999998 125.1046 67.104598 126 65.999998 126L 64.999998 126C 61.686298 126 58.999998 128.6863 58.999998 132L 58.999998 136C 58.999998 137.1046 64.372598 138 70.999998 138C 77.627398 138 82.999998 137.1046 82.999998 136L 82.999998 132C 82.999998 128.6863 80.313698 126 76.999998 126L 75.999998 126C 74.895398 126 73.999998 125.1046 73.999998 124L 73.999998 123.8432ZM 224.000006 123.843201C 224.000006 123.232193 223.708411 122.665802 223.288306 122.222107C 221.894705 120.750107 221.000006 118.571701 221.000006 116.5C 221.000006 112.910095 223.686301 110 227.000006 110C 230.313711 110 233.000006 112.910095 233.000006 116.5C 233.000006 118.571701 232.105307 120.750107 230.711706 122.222107C 230.291601 122.665802 230.000006 123.232193 230.000006 123.843201L 230.000006 124C 230.000006 125.104599 230.895407 126 232.000006 126L 233.000006 126C 236.313711 126 239.000006 128.686295 239.000006 132L 239.000006 136C 239.000006 137.104599 233.627402 138 227.000006 138C 220.37261 138 215.000006 137.104599 215.000006 136L 215.000006 132C 215.000006 128.686295 217.686301 126 221.000006 126L 222.000006 126C 223.104605 126 224.000006 125.104599 224.000006 124L 224.000006 123.843201ZM 91.999998 159.8432C 91.999998 159.2322 92.291598 158.6658 92.711698 158.2221C 94.105298 156.7501 94.999998 154.5717 94.999998 152.5C 94.999998 148.9101 92.313698 146 88.999998 146C 85.686298 146 82.999998 148.9101 82.999998 152.5C 82.999998 154.5717 83.894698 156.7501 85.288298 158.2221C 85.708398 158.6658 85.999998 159.2322 85.999998 159.8432L 85.999998 160C 85.999998 161.1046 85.104598 162 83.999998 162L 82.999998 162C 79.686298 162 76.999998 164.6863 76.999998 168L 76.999998 172C 76.999998 173.1046 82.372598 174 88.999998 174C 95.627398 174 100.999998 173.1046 100.999998 172L 100.999998 168C 100.999998 164.6863 98.313698 162 94.999998 162L 93.999998 162C 92.895398 162 91.999998 161.1046 91.999998 160L 91.999998 159.8432ZM 206.000006 159.843201C 206.000006 159.232193 205.708411 158.665802 205.288306 158.222107C 203.894705 156.750107 203.000006 154.571701 203.000006 152.5C 203.000006 148.910095 205.686301 146 209.000006 146C 212.313711 146 215.000006 148.910095 215.000006 152.5C 215.000006 154.571701 214.105307 156.750107 212.711706 158.222107C 212.291601 158.665802 212.000006 159.232193 212.000006 159.843201L 212.000006 160C 212.000006 161.104599 212.895407 162 214.000006 162L 215.000006 162C 218.313711 162 221.000006 164.686295 221.000006 168L 221.000006 172C 221.000006 173.104599 215.627402 174 209.000006 174C 202.37261 174 197.000006 173.104599 197.000006 172L 197.000006 168C 197.000006 164.686295 199.686301 162 203.000006 162L 204.000006 162C 205.104605 162 206.000006 161.104599 206.000006 160L 206.000006 159.843201ZM 146.000006 161.843201C 146.000006 161.232193 145.708411 160.665802 145.288306 160.222107C 143.894705 158.750107 143.000006 156.571701 143.000006 154.5C 143.000006 150.910095 145.686301 148 149.000006 148C 152.313711 148 155.000006 150.910095 155.000006 154.5C 155.000006 156.571701 154.105307 158.750107 152.711706 160.222107C 152.291601 160.665802 152.000006 161.232193 152.000006 161.843201L 152.000006 162C 152.000006 163.104599 152.895407 164 154.000006 164L 155.000006 164C 158.313711 164 161.000006 166.686295 161.000006 170L 161.000006 174C 161.000006 175.104599 155.627402 176 149.000006 176C 142.37261 176 137.000006 175.104599 137.000006 174L 137.000006 170C 137.000006 166.686295 139.686301 164 143.000006 164L 144.000006 164C 145.104605 164 146.000006 163.104599 146.000006 162L 146.000006 161.843201ZM 47.999998 58.8432C 47.999998 58.2322 48.291598 57.6658 48.711698 57.2221C 50.105298 55.7501 50.999998 53.5717 50.999998 51.5C 50.999998 47.9101 48.313698 45 44.999998 45C 41.686298 45 38.999998 47.9101 38.999998 51.5C 38.999998 53.5717 39.894698 55.7501 41.288298 57.2221C 41.708398 57.6658 41.999998 58.2322 41.999998 58.8432L 41.999998 59C 41.999998 60.1046 41.104598 61 39.999998 61L 38.999998 61C 35.686298 61 32.999998 63.6863 32.999998 67L 32.999998 71C 32.999998 72.1046 38.372598 73 44.999998 73C 51.627398 73 56.999998 72.1046 56.999998 71L 56.999998 67C 56.999998 63.6863 54.313698 61 50.999998 61L 49.999998 61C 48.895398 61 47.999998 60.1046 47.999998 59L 47.999998 58.8432ZM 250.000006 58.843201C 250.000006 58.232193 249.708411 57.665802 249.288306 57.222107C 247.89472 55.750107 247.000006 53.571701 247.000006 51.5C 247.000006 47.910103 249.686316 45 253.000006 45C 256.313696 45 259.000006 47.910103 259.000006 51.5C 259.000006 53.571701 258.105292 55.750107 256.711706 57.222107C 256.291601 57.665802 256.000006 58.232193 256.000006 58.843201L 256.000006 59C 256.000006 60.104599 256.895392 61 258.000006 61L 259.000006 61C 262.313696 61 265.000006 63.686295 265.000006 67L 265.000006 71C 265.000006 72.104599 259.627417 73 253.000006 73C 246.372595 73 241.000006 72.104599 241.000006 71L 241.000006 67C 241.000006 63.686295 243.686316 61 247.000006 61L 248.000006 61C 249.10462 61 250.000006 60.104599 250.000006 59L 250.000006 58.843201ZM 25 41.8432C 25 41.2322 25.2916 40.6658 25.7117 40.2221C 27.1053 38.7501 28 36.5717 28 34.5C 28 30.9101 25.3137 28 22 28C 18.6863 28 16 30.9101 16 34.5C 16 36.5717 16.8947 38.7501 18.2883 40.2221C 18.7084 40.6658 19 41.2322 19 41.8432L 19 42C 19 43.1046 18.1046 44 17 44L 16 44C 12.6863 44 10 46.6863 10 50L 10 54C 10 55.1046 15.3726 56 22 56C 28.6274 56 34 55.1046 34 54L 34 50C 34 46.6863 31.3137 44 28 44L 27 44C 25.8954 44 25 43.1046 25 42L 25 41.8432ZM 273.000006 41.843201C 273.000006 41.232201 272.708411 40.665802 272.288306 40.222099C 270.89472 38.750099 270.000006 36.571701 270.000006 34.5C 270.000006 30.910103 272.686316 28 276.000006 28C 279.313696 28 282.000006 30.910103 282.000006 34.5C 282.000006 36.571701 281.105292 38.750099 279.711706 40.222099C 279.291601 40.665802 279.000006 41.232201 279.000006 41.843201L 279.000006 42C 279.000006 43.104599 279.895392 44 281.000006 44L 282.000006 44C 285.313696 44 288.000006 46.686302 288.000006 50L 288.000006 54C 288.000006 55.104599 282.627417 56 276.000006 56C 269.372595 56 264.000006 55.104599 264.000006 54L 264.000006 50C 264.000006 46.686302 266.686316 44 270.000006 44L 271.000006 44C 272.10462 44 273.000006 43.104599 273.000006 42L 273.000006 41.843201ZM 67.999998 33.8432C 67.999998 33.2322 68.291598 32.6658 68.711698 32.2221C 70.105298 30.7501 70.999998 28.5717 70.999998 26.5C 70.999998 22.9101 68.313698 20 64.999998 20C 61.686298 20 58.999998 22.9101 58.999998 26.5C 58.999998 28.5717 59.894698 30.7501 61.288298 32.2221C 61.708398 32.6658 61.999998 33.2322 61.999998 33.8432L 61.999998 34C 61.999998 35.1046 61.104598 36 59.999998 36L 58.999998 36C 55.686298 36 52.999998 38.6863 52.999998 42L 52.999998 46C 52.999998 47.1046 58.372598 48 64.999998 48C 71.627398 48 76.999998 47.1046 76.999998 46L 76.999998 42C 76.999998 38.6863 74.313698 36 70.999998 36L 69.999998 36C 68.895398 36 67.999998 35.1046 67.999998 34L 67.999998 33.8432ZM 96.999998 29.8432C 96.999998 29.2322 97.291598 28.6658 97.711698 28.2221C 99.105298 26.7501 99.999998 24.5717 99.999998 22.5C 99.999998 18.9101 97.313698 16 93.999998 16C 90.686298 16 87.999998 18.9101 87.999998 22.5C 87.999998 24.5717 88.894698 26.7501 90.288298 28.2221C 90.708398 28.6658 90.999998 29.2322 90.999998 29.8432L 90.999998 30C 90.999998 31.1046 90.104598 32 88.999998 32L 87.999998 32C 84.686298 32 81.999998 34.6863 81.999998 38L 81.999998 42C 81.999998 43.1046 87.372598 44 93.999998 44C 100.627398 44 105.999998 43.1046 105.999998 42L 105.999998 38C 105.999998 34.6863 103.313698 32 99.999998 32L 98.999998 32C 97.895398 32 96.999998 31.1046 96.999998 30L 96.999998 29.8432ZM 207.000006 29.8432C 207.000006 29.2322 207.291606 28.6658 207.711706 28.2221C 209.105306 26.7501 210.000006 24.5717 210.000006 22.5C 210.000006 18.9101 207.313706 16 204.000006 16C 200.686306 16 198.000006 18.9101 198.000006 22.5C 198.000006 24.5717 198.894706 26.7501 200.288306 28.2221C 200.708406 28.6658 201.000006 29.2322 201.000006 29.8432L 201.000006 30C 201.000006 31.1046 200.104606 32 199.000006 32L 198.000006 32C 194.686306 32 192.000006 34.6863 192.000006 38L 192.000006 42C 192.000006 43.1046 197.372606 44 204.000006 44C 210.627406 44 216.000006 43.1046 216.000006 42L 216.000006 38C 216.000006 34.6863 213.313706 32 210.000006 32L 209.000006 32C 207.895406 32 207.000006 31.1046 207.000006 30L 207.000006 29.8432ZM 152.000006 23.8432C 152.000006 23.2322 152.291606 22.6658 152.711706 22.2221C 154.105306 20.7501 155.000006 18.5717 155.000006 16.5C 155.000006 12.9101 152.313706 10 149.000006 10C 145.686306 10 143.000006 12.9101 143.000006 16.5C 143.000006 18.5717 143.894706 20.7501 145.288306 22.2221C 145.708406 22.6658 146.000006 23.2322 146.000006 23.8432L 146.000006 24C 146.000006 25.1046 145.104606 26 144.000006 26L 143.000006 26C 139.686306 26 137.000006 28.6863 137.000006 32L 137.000006 36C 137.000006 37.1046 142.372606 38 149.000006 38C 155.627406 38 161.000006 37.1046 161.000006 36L 161.000006 32C 161.000006 28.6863 158.313706 26 155.000006 26L 154.000006 26C 152.895406 26 152.000006 25.1046 152.000006 24L 152.000006 23.8432ZM 126.000006 34.8432C 126.000006 34.2322 126.291606 33.6658 126.711706 33.2221C 128.105306 31.7501 129.000006 29.5717 129.000006 27.5C 129.000006 23.9101 126.313706 21 123.000006 21C 119.686306 21 117.000006 23.9101 117.000006 27.5C 117.000006 29.5717 117.894706 31.7501 119.288306 33.2221C 119.708406 33.6658 120.000006 34.2322 120.000006 34.8432L 120.000006 35C 120.000006 36.1046 119.104606 37 118.000006 37L 117.000006 37C 113.686306 37 111.000006 39.6863 111.000006 43L 111.000006 47C 111.000006 48.1046 116.372606 49 123.000006 49C 129.627406 49 135.000006 48.1046 135.000006 47L 135.000006 43C 135.000006 39.6863 132.313706 37 129.000006 37L 128.000006 37C 126.895406 37 126.000006 36.1046 126.000006 35L 126.000006 34.8432ZM 178.000006 34.8432C 178.000006 34.2322 178.291606 33.6658 178.711706 33.2221C 180.105306 31.7501 181.000006 29.5717 181.000006 27.5C 181.000006 23.9101 178.313706 21 175.000006 21C 171.686306 21 169.000006 23.9101 169.000006 27.5C 169.000006 29.5717 169.894706 31.7501 171.288306 33.2221C 171.708406 33.6658 172.000006 34.2322 172.000006 34.8432L 172.000006 35C 172.000006 36.1046 171.104606 37 170.000006 37L 169.000006 37C 165.686306 37 163.000006 39.6863 163.000006 43L 163.000006 47C 163.000006 48.1046 168.372606 49 175.000006 49C 181.627406 49 187.000006 48.1046 187.000006 47L 187.000006 43C 187.000006 39.6863 184.313706 37 181.000006 37L 180.000006 37C 178.895406 37 178.000006 36.1046 178.000006 35L 178.000006 34.8432ZM 230.000006 33.843201C 230.000006 33.232201 229.708411 32.665802 229.288306 32.222099C 227.894705 30.750099 227.000006 28.571701 227.000006 26.5C 227.000006 22.910103 229.686301 20 233.000006 20C 236.313711 20 239.000006 22.910103 239.000006 26.5C 239.000006 28.571701 238.105292 30.750099 236.711706 32.222099C 236.291601 32.665802 236.000006 33.232201 236.000006 33.843201L 236.000006 34C 236.000006 35.104599 236.895407 36 238.000006 36L 239.000006 36C 242.313696 36 245.000006 38.686302 245.000006 42L 245.000006 46C 245.000006 47.104599 239.627417 48 233.000006 48C 226.37261 48 221.000006 47.104599 221.000006 46L 221.000006 42C 221.000006 38.686302 223.686301 36 227.000006 36L 228.000006 36C 229.104605 36 230.000006 35.104599 230.000006 34L 230.000006 33.843201ZM 115.999998 67.8432C 115.999998 67.2322 116.291598 66.6658 116.711698 66.2221C 118.105298 64.7501 118.999998 62.5717 118.999998 60.5C 118.999998 56.9101 116.313698 54 112.999998 54C 109.686298 54 106.999998 56.9101 106.999998 60.5C 106.999998 62.5717 107.894698 64.7501 109.288298 66.2221C 109.708398 66.6658 109.999998 67.2322 109.999998 67.8432L 109.999998 68C 109.999998 69.1046 109.104598 70 107.999998 70L 106.999998 70C 103.686298 70 100.999998 72.6863 100.999998 76L 100.999998 80C 100.999998 81.1046 106.372598 82 112.999998 82C 119.627398 82 124.999998 81.1046 124.999998 80L 124.999998 76C 124.999998 72.6863 122.313698 70 118.999998 70L 117.999998 70C 116.895398 70 115.999998 69.1046 115.999998 68L 115.999998 67.8432ZM 188.000006 67.8432C 188.000006 67.2322 188.291606 66.6658 188.711706 66.2221C 190.105306 64.7501 191.000006 62.5717 191.000006 60.5C 191.000006 56.9101 188.313706 54 185.000006 54C 181.686306 54 179.000006 56.9101 179.000006 60.5C 179.000006 62.5717 179.894706 64.7501 181.288306 66.2221C 181.708406 66.6658 182.000006 67.2322 182.000006 67.8432L 182.000006 68C 182.000006 69.1046 181.104606 70 180.000006 70L 179.000006 70C 175.686306 70 173.000006 72.6863 173.000006 76L 173.000006 80C 173.000006 81.1046 178.372606 82 185.000006 82C 191.627406 82 197.000006 81.1046 197.000006 80L 197.000006 76C 197.000006 72.6863 194.313706 70 191.000006 70L 190.000006 70C 188.895406 70 188.000006 69.1046 188.000006 68L 188.000006 67.8432ZM 79.999998 64.8432C 79.999998 64.2322 80.291598 63.6658 80.711698 63.2221C 82.105298 61.7501 82.999998 59.5717 82.999998 57.5C 82.999998 53.9101 80.313698 51 76.999998 51C 73.686298 51 70.999998 53.9101 70.999998 57.5C 70.999998 59.5717 71.894698 61.7501 73.288298 63.2221C 73.708398 63.6658 73.999998 64.2322 73.999998 64.8432L 73.999998 65C 73.999998 66.1046 73.104598 67 71.999998 67L 70.999998 67C 67.686298 67 64.999998 69.6863 64.999998 73L 64.999998 77C 64.999998 78.1046 70.372598 79 76.999998 79C 83.627398 79 88.999998 78.1046 88.999998 77L 88.999998 73C 88.999998 69.6863 86.313698 67 82.999998 67L 81.999998 67C 80.895398 67 79.999998 66.1046 79.999998 65L 79.999998 64.8432ZM 218.000006 64.843201C 218.000006 64.232193 217.708411 63.665802 217.288306 63.222107C 215.894705 61.750107 215.000006 59.571701 215.000006 57.5C 215.000006 53.910095 217.686301 51 221.000006 51C 224.313711 51 227.000006 53.910095 227.000006 57.5C 227.000006 59.571701 226.105307 61.750107 224.711706 63.222107C 224.291601 63.665802 224.000006 64.232193 224.000006 64.843201L 224.000006 65C 224.000006 66.104599 224.895407 67 226.000006 67L 227.000006 67C 230.313711 67 233.000006 69.686295 233.000006 73L 233.000006 77C 233.000006 78.104599 227.627402 79 221.000006 79C 214.37261 79 209.000006 78.104599 209.000006 77L 209.000006 73C 209.000006 69.686295 211.686301 67 215.000006 67L 216.000006 67C 217.104605 67 218.000006 66.104599 218.000006 65L 218.000006 64.843201ZM 146.000006 61.843201C 146.000006 61.232193 145.708411 60.665802 145.288306 60.222107C 143.894705 58.750107 143.000006 56.571701 143.000006 54.5C 143.000006 50.910095 145.686301 48 149.000006 48C 152.313711 48 155.000006 50.910095 155.000006 54.5C 155.000006 56.571701 154.105307 58.750107 152.711706 60.222107C 152.291601 60.665802 152.000006 61.232193 152.000006 61.843201L 152.000006 62C 152.000006 63.104599 152.895407 64 154.000006 64L 155.000006 64C 158.313711 64 161.000006 66.686295 161.000006 70L 161.000006 74C 161.000006 75.104599 155.627402 76 149.000006 76C 142.37261 76 137.000006 75.104599 137.000006 74L 137.000006 70C 137.000006 66.686295 139.686301 64 143.000006 64L 144.000006 64C 145.104605 64 146.000006 63.104599 146.000006 62L 146.000006 61.843201ZM 31.999998 236.8432C 31.999998 236.2322 32.291598 235.6658 32.711698 235.2221C 34.105298 233.7501 34.999998 231.5717 34.999998 229.5C 34.999998 225.9101 32.313698 223 28.999998 223C 25.686298 223 22.999998 225.9101 22.999998 229.5C 22.999998 231.5717 23.894698 233.7501 25.288298 235.2221C 25.708398 235.6658 25.999998 236.2322 25.999998 236.8432L 25.999998 237C 25.999998 238.1046 25.104598 239 23.999998 239L 22.999998 239C 19.686298 239 16.999998 241.6863 16.999998 245L 16.999998 249C 16.999998 250.1046 22.372598 251 28.999998 251C 35.627398 251 40.999998 250.1046 40.999998 249L 40.999998 245C 40.999998 241.6863 38.313698 239 34.999998 239L 33.999998 239C 32.895398 239 31.999998 238.1046 31.999998 237L 31.999998 236.8432ZM 266.000006 236.843201C 266.000006 236.232208 265.708411 235.665802 265.288306 235.222107C 263.89472 233.750092 263.000006 231.571686 263.000006 229.5C 263.000006 225.910095 265.686316 223 269.000006 223C 272.313696 223 275.000006 225.910095 275.000006 229.5C 275.000006 231.571686 274.105292 233.750092 272.711706 235.222107C 272.291601 235.665802 272.000006 236.232208 272.000006 236.843201L 272.000006 237C 272.000006 238.104614 272.895392 239 274.000006 239L 275.000006 239C 278.313696 239 281.000006 241.68631 281.000006 245L 281.000006 249C 281.000006 250.104614 275.627417 251 269.000006 251C 262.372595 251 257.000006 250.104614 257.000006 249L 257.000006 245C 257.000006 241.68631 259.686316 239 263.000006 239L 264.000006 239C 265.10462 239 266.000006 238.104614 266.000006 237L 266.000006 236.843201ZM 79.999998 253.8432C 79.999998 253.2322 80.291598 252.6658 80.711698 252.2221C 82.105298 250.7501 82.999998 248.5717 82.999998 246.5C 82.999998 242.9101 80.313698 240 76.999998 240C 73.686298 240 70.999998 242.9101 70.999998 246.5C 70.999998 248.5717 71.894698 250.7501 73.288298 252.2221C 73.708398 252.6658 73.999998 253.2322 73.999998 253.8432L 73.999998 254C 73.999998 255.1046 73.104598 256 71.999998 256L 70.999998 256C 67.686298 256 64.999998 258.6863 64.999998 262L 64.999998 266C 64.999998 267.1046 70.372598 268 76.999998 268C 83.627398 268 88.999998 267.1046 88.999998 266L 88.999998 262C 88.999998 258.6863 86.313698 256 82.999998 256L 81.999998 256C 80.895398 256 79.999998 255.1046 79.999998 254L 79.999998 253.8432ZM 218.000006 253.843201C 218.000006 253.232208 217.708411 252.665802 217.288306 252.222107C 215.894705 250.750092 215.000006 248.571686 215.000006 246.5C 215.000006 242.910095 217.686301 240 221.000006 240C 224.313711 240 227.000006 242.910095 227.000006 246.5C 227.000006 248.571686 226.105307 250.750092 224.711706 252.222107C 224.291601 252.665802 224.000006 253.232208 224.000006 253.843201L 224.000006 254C 224.000006 255.104614 224.895407 256 226.000006 256L 227.000006 256C 230.313711 256 233.000006 258.68631 233.000006 262L 233.000006 266C 233.000006 267.104614 227.627402 268 221.000006 268C 214.37261 268 209.000006 267.104614 209.000006 266L 209.000006 262C 209.000006 258.68631 211.686301 256 215.000006 256L 216.000006 256C 217.104605 256 218.000006 255.104614 218.000006 254L 218.000006 253.843201ZM 146.000006 261.843201C 146.000006 261.232208 145.708411 260.665802 145.288306 260.222107C 143.894705 258.750092 143.000006 256.571686 143.000006 254.5C 143.000006 250.910095 145.686301 248 149.000006 248C 152.313711 248 155.000006 250.910095 155.000006 254.5C 155.000006 256.571686 154.105307 258.750092 152.711706 260.222107C 152.291601 260.665802 152.000006 261.232208 152.000006 261.843201L 152.000006 262C 152.000006 263.104614 152.895407 264 154.000006 264L 155.000006 264C 158.313711 264 161.000006 266.68631 161.000006 270L 161.000006 274C 161.000006 275.104614 155.627402 276 149.000006 276C 142.37261 276 137.000006 275.104614 137.000006 274L 137.000006 270C 137.000006 266.68631 139.686301 264 143.000006 264L 144.000006 264C 145.104605 264 146.000006 263.104614 146.000006 262L 146.000006 261.843201ZM 48.999998 341.8432C 48.999998 341.2322 49.291598 340.6658 49.711698 340.2221C 51.105298 338.7501 51.999998 336.5717 51.999998 334.5C 51.999998 330.9101 49.313698 328 45.999998 328C 42.686298 328 39.999998 330.9101 39.999998 334.5C 39.999998 336.5717 40.894698 338.7501 42.288298 340.2221C 42.708398 340.6658 42.999998 341.2322 42.999998 341.8432L 42.999998 342C 42.999998 343.1046 42.104598 344 40.999998 344L 39.999998 344C 36.686298 344 33.999998 346.6863 33.999998 350L 33.999998 354C 33.999998 355.1046 39.372598 356 45.999998 356C 52.627398 356 57.999998 355.1046 57.999998 354L 57.999998 350C 57.999998 346.6863 55.313698 344 51.999998 344L 50.999998 344C 49.895398 344 48.999998 343.1046 48.999998 342L 48.999998 341.8432ZM 249.000006 341.843201C 249.000006 341.232208 248.708411 340.665802 248.288306 340.222107C 246.89472 338.750092 246.000006 336.571686 246.000006 334.5C 246.000006 330.910095 248.686316 328 252.000006 328C 255.313696 328 258.000006 330.910095 258.000006 334.5C 258.000006 336.571686 257.105292 338.750092 255.711706 340.222107C 255.291601 340.665802 255.000006 341.232208 255.000006 341.843201L 255.000006 342C 255.000006 343.104614 255.895392 344 257.000006 344L 258.000006 344C 261.313696 344 264.000006 346.68631 264.000006 350L 264.000006 354C 264.000006 355.104614 258.627417 356 252.000006 356C 245.372595 356 240.000006 355.104614 240.000006 354L 240.000006 350C 240.000006 346.68631 242.686316 344 246.000006 344L 247.000006 344C 248.10462 344 249.000006 343.104614 249.000006 342L 249.000006 341.843201ZM 146.000006 357.843201C 146.000006 357.232208 145.708411 356.665802 145.288306 356.222107C 143.894705 354.750092 143.000006 352.571686 143.000006 350.5C 143.000006 346.910095 145.686301 344 149.000006 344C 152.313711 344 155.000006 346.910095 155.000006 350.5C 155.000006 352.571686 154.105307 354.750092 152.711706 356.222107C 152.291601 356.665802 152.000006 357.232208 152.000006 357.843201L 152.000006 358C 152.000006 359.104614 152.895407 360 154.000006 360L 155.000006 360C 158.313711 360 161.000006 362.68631 161.000006 366L 161.000006 370C 161.000006 371.104614 155.627402 372 149.000006 372C 142.37261 372 137.000006 371.104614 137.000006 370L 137.000006 366C 137.000006 362.68631 139.686301 360 143.000006 360L 144.000006 360C 145.104605 360 146.000006 359.104614 146.000006 358L 146.000006 357.843201Z"></path></g></g></g></g></g></svg>